<?xml version="1.0" encoding="UTF-8" standalone="no"?>
<!-- Created with Inkscape (http://www.inkscape.org/) -->

<svg
   xml:space="preserve"
   sodipodi:docname="mockup.svg"
   inkscape:version="1.2 (dc2aeda, 2022-05-15)"
   id="svg182339"
   version="1.1"
   viewBox="0 0 6.3509142 5.293814"
   height="20.008116"
   width="24.003456"
   xmlns:inkscape="http://www.inkscape.org/namespaces/inkscape"
   xmlns:sodipodi="http://sodipodi.sourceforge.net/DTD/sodipodi-0.dtd"
   xmlns:xlink="http://www.w3.org/1999/xlink"
   xmlns="http://www.w3.org/2000/svg"
   xmlns:svg="http://www.w3.org/2000/svg"><sodipodi:namedview
     id="namedview182341"
     pagecolor="#505050"
     bordercolor="#eeeeee"
     borderopacity="1"
     inkscape:showpageshadow="0"
     inkscape:pageopacity="0"
     inkscape:pagecheckerboard="0"
     inkscape:deskcolor="#505050"
     inkscape:document-units="mm"
     showgrid="false"
     inkscape:zoom="0.34578127"
     inkscape:cx="-749.02842"
     inkscape:cy="482.96427"
     inkscape:window-width="1366"
     inkscape:window-height="705"
     inkscape:window-x="-8"
     inkscape:window-y="-8"
     inkscape:window-maximized="1"
     inkscape:current-layer="g85502"
     showguides="true"><sodipodi:guide
       position="-551.66328,781.4335"
       orientation="1,0"
       id="guide25471"
       inkscape:locked="false" /><sodipodi:guide
       position="-546.92195,702.26336"
       orientation="1,0"
       id="guide25473"
       inkscape:locked="false" /><sodipodi:guide
       position="-191.82996,552.56069"
       orientation="1,0"
       id="guide35590"
       inkscape:locked="false" /><sodipodi:guide
       position="-196.57129,586.84875"
       orientation="1,0"
       id="guide38199"
       inkscape:locked="false" /></sodipodi:namedview><defs
     id="defs182336"><linearGradient
       id="linearGradient1057"
       x1="522.69"
       y1="412.73999"
       x2="908.96997"
       y2="799.01001"
       gradientTransform="matrix(-0.26458333,0,0,-0.26458333,266.89035,244.97243)"
       gradientUnits="userSpaceOnUse"><stop
         offset="0"
         stop-color="#fcee21"
         id="stop1061" /><stop
         offset="0.1"
         stop-color="#f7ec22"
         id="stop1063" /><stop
         offset="0.22"
         stop-color="#e7e624"
         id="stop1065" /><stop
         offset="0.36"
         stop-color="#cedd28"
         id="stop1067" /><stop
         offset="0.51"
         stop-color="#aad02d"
         id="stop1069" /><stop
         offset="0.67"
         stop-color="#7cbf33"
         id="stop1071" /><stop
         offset="0.83"
         stop-color="#45ab3b"
         id="stop1073" /><stop
         offset="0.99"
         stop-color="#049344"
         id="stop1075" /><stop
         offset="1"
         stop-color="#009245"
         id="stop1077" /></linearGradient><linearGradient
       inkscape:collect="always"
       xlink:href="#linearGradient1057"
       id="linearGradient198911"
       gradientUnits="userSpaceOnUse"
       gradientTransform="matrix(13.538845,0,0,13.538845,-2625.6978,-4130.266)"
       x1="413.80301"
       y1="291.04166"
       x2="118.47618"
       y2="291.04166" /><linearGradient
       inkscape:collect="always"
       xlink:href="#linearGradient1057"
       id="linearGradient478189"
       gradientUnits="userSpaceOnUse"
       gradientTransform="matrix(1.6425514,0,0,1.6425514,352.95802,-164.19644)"
       x1="413.80301"
       y1="291.04166"
       x2="118.47618"
       y2="291.04166" /><linearGradient
       inkscape:collect="always"
       xlink:href="#linearGradient1057"
       id="linearGradient653602"
       gradientUnits="userSpaceOnUse"
       gradientTransform="matrix(1.2985426,0,0,1.2985426,458.15644,-56.374736)"
       x1="413.80301"
       y1="291.04166"
       x2="118.47618"
       y2="291.04166" /><linearGradient
       inkscape:collect="always"
       xlink:href="#linearGradient1057"
       id="linearGradient741566"
       gradientUnits="userSpaceOnUse"
       gradientTransform="matrix(1.2985426,0,0,1.2985426,649.52306,-458.3974)"
       x1="413.80301"
       y1="291.04166"
       x2="118.47618"
       y2="291.04166" /><linearGradient
       inkscape:collect="always"
       xlink:href="#linearGradient1057"
       id="linearGradient818934"
       gradientUnits="userSpaceOnUse"
       gradientTransform="matrix(1.2985426,0,0,1.2985426,457.45349,-153.39616)"
       x1="413.80301"
       y1="291.04166"
       x2="118.47618"
       y2="291.04166" /><linearGradient
       inkscape:collect="always"
       xlink:href="#linearGradient1057"
       id="linearGradient892145"
       gradientUnits="userSpaceOnUse"
       gradientTransform="matrix(1.2985426,0,0,1.2985426,458.15644,-154.90639)"
       x1="413.80301"
       y1="291.04166"
       x2="118.47618"
       y2="291.04166" /><linearGradient
       inkscape:collect="always"
       xlink:href="#linearGradient1057"
       id="linearGradient1018698"
       gradientUnits="userSpaceOnUse"
       gradientTransform="matrix(1.2985426,0,0,1.2985426,453.34098,-54.508543)"
       x1="413.80301"
       y1="291.04166"
       x2="118.47618"
       y2="291.04166" /></defs><g
     inkscape:label="ios-home"
     inkscape:groupmode="layer"
     id="layer1"
     style="display:inline"
     transform="translate(-636.32997,-103.48437)"><g
       id="g85547"
       transform="translate(543.60946)"
       style="display:inline"><g
         id="g85502"
         transform="matrix(0.26458333,0,0,0.26458333,92.719726,102.95735)"
         style="fill:#ffffff"><path
           style="color:#000000;fill:#ffffff;stroke:none;-inkscape-stroke:none"
           d="m 8,16 a 1,1 0 0 0 -0.7070313,0.292969 1,1 0 0 0 0,1.414062 l 4.0000003,4 a 1.0001,1.0001 0 0 0 1.414062,0 l 4,-4 a 1,1 0 0 0 0,-1.414062 1,1 0 0 0 -1.414062,0 L 12,19.585937 8.7070313,16.292969 A 1,1 0 0 0 8,16 Z"
           id="polyline85401" /><path
           style="color:#000000;fill:#ffffff;stroke:none;-inkscape-stroke:none"
           d="m 12,11 a 1,1 0 0 0 -1,1 v 9 a 1,1 0 0 0 1,1 1,1 0 0 0 1,-1 v -9 a 1,1 0 0 0 -1,-1 z"
           id="line85403" /><path
           style="color:#000000;fill:#ffffff;stroke:none;-inkscape-stroke:none"
           d="M 8.7539063,1.9941406 C 7.4136249,2.0249031 6.054452,2.3574445 4.7734375,3.0371094 -0.35062036,5.7557689 -1.5921634,12.609151 2.2519531,16.953125 a 1,1 0 0 0 1.4101563,0.08594 1,1 0 0 0 0.085937,-1.412109 C 0.73046201,12.216987 1.6886152,6.9388018 5.7109375,4.8046875 9.7332598,2.6705732 14.63976,4.8375039 15.771484,9.2480469 A 1.0001,1.0001 0 0 0 16.740234,10 H 18 c 2.013647,-0.00158 3.32386,1.236416 3.816406,2.791016 0.492547,1.554599 0.135446,3.322183 -1.511719,4.480468 a 1,1 0 0 0 -0.242187,1.394532 1,1 0 0 0 1.392578,0.242187 c 2.34882,-1.65169 2.994714,-4.431846 2.269531,-6.720703 C 22.999427,9.8986426 20.871416,7.9977539 18,8 H 17.314453 C 15.963971,4.2829427 12.498271,1.908199 8.7539063,1.9941406 Z"
           id="path85405" /></g></g></g></svg>
