<?xml version="1.0" encoding="UTF-8" standalone="no"?>
<!-- Created with Inkscape (http://www.inkscape.org/) -->

<svg
   xml:space="preserve"
   sodipodi:docname="mockup.svg"
   inkscape:version="1.2.1 (9c6d41e410, 2022-07-14)"
   id="svg182339"
   version="1.1"
   viewBox="0 0 39.417098 3.7282868"
   height="14.091163"
   width="148.97801"
   xmlns:inkscape="http://www.inkscape.org/namespaces/inkscape"
   xmlns:sodipodi="http://sodipodi.sourceforge.net/DTD/sodipodi-0.dtd"
   xmlns:xlink="http://www.w3.org/1999/xlink"
   xmlns="http://www.w3.org/2000/svg"
   xmlns:svg="http://www.w3.org/2000/svg"><sodipodi:namedview
     id="namedview182341"
     pagecolor="#505050"
     bordercolor="#eeeeee"
     borderopacity="1"
     inkscape:showpageshadow="0"
     inkscape:pageopacity="0"
     inkscape:pagecheckerboard="0"
     inkscape:deskcolor="#505050"
     inkscape:document-units="mm"
     showgrid="false"
     inkscape:zoom="0.34578127"
     inkscape:cx="-615.99635"
     inkscape:cy="-902.30451"
     inkscape:window-width="1366"
     inkscape:window-height="705"
     inkscape:window-x="-8"
     inkscape:window-y="-8"
     inkscape:window-maximized="1"
     inkscape:current-layer="layer1"
     showguides="true"><sodipodi:guide
       position="-596.47797,459.13967"
       orientation="1,0"
       id="guide25471"
       inkscape:locked="false" /><sodipodi:guide
       position="-591.73664,379.96953"
       orientation="1,0"
       id="guide25473"
       inkscape:locked="false" /><sodipodi:guide
       position="-236.64466,230.26686"
       orientation="1,0"
       id="guide35590"
       inkscape:locked="false" /><sodipodi:guide
       position="-241.38599,264.55492"
       orientation="1,0"
       id="guide38199"
       inkscape:locked="false" /></sodipodi:namedview><defs
     id="defs182336"><linearGradient
       id="linearGradient1057"
       x1="522.69"
       y1="412.73999"
       x2="908.96997"
       y2="799.01001"
       gradientTransform="matrix(-0.26458333,0,0,-0.26458333,266.89035,244.97243)"
       gradientUnits="userSpaceOnUse"><stop
         offset="0"
         stop-color="#fcee21"
         id="stop1061" /><stop
         offset="0.1"
         stop-color="#f7ec22"
         id="stop1063" /><stop
         offset="0.22"
         stop-color="#e7e624"
         id="stop1065" /><stop
         offset="0.36"
         stop-color="#cedd28"
         id="stop1067" /><stop
         offset="0.51"
         stop-color="#aad02d"
         id="stop1069" /><stop
         offset="0.67"
         stop-color="#7cbf33"
         id="stop1071" /><stop
         offset="0.83"
         stop-color="#45ab3b"
         id="stop1073" /><stop
         offset="0.99"
         stop-color="#049344"
         id="stop1075" /><stop
         offset="1"
         stop-color="#009245"
         id="stop1077" /></linearGradient><linearGradient
       inkscape:collect="always"
       xlink:href="#linearGradient1057"
       id="linearGradient198911"
       gradientUnits="userSpaceOnUse"
       gradientTransform="matrix(13.538845,0,0,13.538845,-2625.6978,-4130.266)"
       x1="413.80301"
       y1="291.04166"
       x2="118.47618"
       y2="291.04166" /><linearGradient
       inkscape:collect="always"
       xlink:href="#linearGradient1057"
       id="linearGradient478189"
       gradientUnits="userSpaceOnUse"
       gradientTransform="matrix(1.6425514,0,0,1.6425514,352.95802,-164.19644)"
       x1="413.80301"
       y1="291.04166"
       x2="118.47618"
       y2="291.04166" /><linearGradient
       inkscape:collect="always"
       xlink:href="#linearGradient1057"
       id="linearGradient653602"
       gradientUnits="userSpaceOnUse"
       gradientTransform="matrix(1.2985426,0,0,1.2985426,458.15644,-56.374736)"
       x1="413.80301"
       y1="291.04166"
       x2="118.47618"
       y2="291.04166" /><linearGradient
       inkscape:collect="always"
       xlink:href="#linearGradient1057"
       id="linearGradient741566"
       gradientUnits="userSpaceOnUse"
       gradientTransform="matrix(1.2985426,0,0,1.2985426,649.52306,-458.3974)"
       x1="413.80301"
       y1="291.04166"
       x2="118.47618"
       y2="291.04166" /><linearGradient
       inkscape:collect="always"
       xlink:href="#linearGradient1057"
       id="linearGradient818934"
       gradientUnits="userSpaceOnUse"
       gradientTransform="matrix(1.2985426,0,0,1.2985426,457.45349,-153.39616)"
       x1="413.80301"
       y1="291.04166"
       x2="118.47618"
       y2="291.04166" /><linearGradient
       inkscape:collect="always"
       xlink:href="#linearGradient1057"
       id="linearGradient892145"
       gradientUnits="userSpaceOnUse"
       gradientTransform="matrix(1.2985426,0,0,1.2985426,458.15644,-154.90639)"
       x1="413.80301"
       y1="291.04166"
       x2="118.47618"
       y2="291.04166" /><linearGradient
       inkscape:collect="always"
       xlink:href="#linearGradient1057"
       id="linearGradient1018698"
       gradientUnits="userSpaceOnUse"
       gradientTransform="matrix(1.2985426,0,0,1.2985426,453.34098,-54.508543)"
       x1="413.80301"
       y1="291.04166"
       x2="118.47618"
       y2="291.04166" /></defs><g
     inkscape:label="ios-home"
     inkscape:groupmode="layer"
     id="layer1"
     style="display:inline"
     transform="translate(-681.14465,-503.24123)"><g
       id="g17457"
       transform="translate(-27.07802,-98.932469)"><path
         d="m 727.8529,605.84853 h -1.35467 v -3.62161 h 1.35467 z m -1.22238,-0.13229 h 1.09009 v -3.35703 h -1.09009 z m 3.10727,0.13229 h -1.32741 v -3.62161 h 2.77336 c 0.3973,-0.0322 0.79296,0.0794 1.11495,0.31432 0.13862,0.12682 0.24607,0.28395 0.31393,0.45913 0.0679,0.17519 0.0944,0.36368 0.0774,0.55079 0.0198,0.32331 -0.0831,0.64219 -0.28813,0.89297 -0.24262,0.27834 -0.64638,0.42174 -1.19988,0.42677 -0.13944,0.004 -1.18428,0 -1.46341,0 z m -1.19592,-0.13229 h 1.06363 v -0.97896 h 0.0664 c 0.0135,0 1.37001,0.004 1.52691,0 0.51567,-0.004 0.88635,-0.13229 1.10305,-0.38179 0.18251,-0.22689 0.27315,-0.51404 0.254,-0.8046 0.0163,-0.16764 -0.006,-0.33679 -0.0659,-0.49431 -0.0597,-0.15752 -0.15478,-0.29918 -0.27802,-0.414 -0.29856,-0.21429 -0.66384,-0.31487 -1.03002,-0.28363 h -2.63922 z m 2.36088,-1.65893 h -1.30625 v -0.98584 h 1.31498 c 0.0932,-0.0129 0.18817,-0.002 0.27604,0.0316 0.0879,0.0336 0.16587,0.0889 0.22667,0.16073 0.0552,0.0918 0.0812,0.19817 0.0746,0.30506 0.005,0.0992 -0.0165,0.19804 -0.0622,0.28628 -0.0627,0.0756 -0.14388,0.13387 -0.23564,0.16909 -0.0917,0.0352 -0.191,0.0462 -0.28824,0.032 z m -1.17395,-0.1323 h 1.17395 c 0.21696,0 0.35137,-0.0452 0.4109,-0.13837 0.0328,-0.0677 0.0476,-0.14268 0.0431,-0.21776 0.006,-0.0788 -0.0113,-0.15765 -0.0492,-0.22701 l -0.002,-0.002 c -0.063,-0.0926 -0.18812,-0.13573 -0.3945,-0.13573 h -1.18268 z m 5.37554,1.97697 c -1.18798,0 -1.89707,-0.29501 -2.16721,-0.9017 -0.0442,-0.11718 -0.0742,-0.23924 -0.0894,-0.36354 l -0.0116,-0.0762 h 1.41341 l 0.009,0.0556 c 0.0109,0.0564 0.0349,0.10951 0.0698,0.15504 0.0558,0.0675 0.24209,0.18071 0.86016,0.18071 0.74295,0 0.74295,-0.13044 0.74295,-0.20055 0,-0.11827 -0.086,-0.15875 -0.69189,-0.22331 l -0.11509,-0.0109 c -0.22807,-0.0214 -0.51647,-0.0487 -0.64823,-0.0601 -1.11125,-0.10054 -1.60734,-0.44582 -1.60734,-1.11919 0,-0.70723 0.84428,-1.16416 2.15106,-1.16416 1.066,0 1.75286,0.28098 2.04099,0.83582 0.0683,0.12905 0.1143,0.26881 0.13573,0.41327 l 0.009,0.0743 h -1.415 l -0.006,-0.0598 c -0.006,-0.0467 -0.0254,-0.0906 -0.0571,-0.12542 -0.0529,-0.0709 -0.22013,-0.18811 -0.73924,-0.18811 -0.63738,0 -0.72523,0.0815 -0.72523,0.16933 0,0.11721 0.20135,0.15875 0.84667,0.22781 0.26908,0.022 0.70168,0.0664 0.84984,0.0844 0.9316,0.10107 1.34726,0.43788 1.34726,1.09246 2.7e-4,0.54901 -0.38206,1.20412 -2.20318,1.20412 z m -2.11376,-1.20915 c 0.0132,0.0873 0.0361,0.17278 0.068,0.25506 0.24606,0.55272 0.91546,0.8218 2.04576,0.8218 0.94509,0 2.07195,-0.18521 2.07195,-1.07183 0,-0.58023 -0.36777,-0.86757 -1.23005,-0.96096 -0.14817,-0.018 -0.57812,-0.0622 -0.84667,-0.0844 -0.68791,-0.0746 -0.96758,-0.1143 -0.96758,-0.3593 0,-0.25347 0.30136,-0.30163 0.85752,-0.30163 0.43947,0 0.72337,0.0794 0.84375,0.23945 0.0328,0.0394 0.0577,0.0849 0.073,0.13388 h 1.1467 c -0.023,-0.10233 -0.0595,-0.20116 -0.10848,-0.29395 -0.26458,-0.50774 -0.91096,-0.76491 -1.92378,-0.76491 -1.22635,0 -2.01877,0.40508 -2.01877,1.03187 0,0.59796 0.44476,0.89324 1.48669,0.98743 0.13229,0.0114 0.42042,0.0386 0.64902,0.0603 l 0.11589,0.0108 c 0.56277,0.0593 0.81095,0.0963 0.81095,0.35481 0,0.27834 -0.32094,0.33284 -0.87524,0.33284 -0.51277,0 -0.83662,-0.077 -0.96176,-0.2286 -0.0386,-0.0483 -0.0677,-0.10355 -0.0857,-0.16272 z m 6.83048,1.20465 c -1.38112,0 -2.14312,-0.55853 -2.14312,-1.57295 v -2.09761 h 1.33667 v 2.09761 c 0,0.34793 0.31142,0.54743 0.85408,0.54743 0.51858,0 0.84058,-0.20823 0.84058,-0.54293 v -2.10211 h 1.32292 v 2.20874 c 10e-4,0.92895 -0.8054,1.46182 -2.21192,1.46182 z m -2.01083,-3.53827 v 1.96532 c 0,1.2536 1.25889,1.44066 2.01083,1.44066 0.77735,0 2.08095,-0.17277 2.08095,-1.32953 v -2.07645 h -1.05833 v 1.96982 c 0,0.41011 -0.38206,0.67522 -0.97288,0.67522 -0.61753,0 -0.98636,-0.254 -0.98636,-0.67972 v -1.96532 z m 9.82795,3.48932 h -1.26154 v -1.63512 l -0.71543,1.63512 h -1.1004 l -0.70803,-1.63195 v 1.63195 h -1.26603 v -3.62161 h 1.66529 l 0.86519,1.99681 0.90699,-1.99681 h 1.61554 z m -1.12924,-0.13229 h 0.99695 v -3.35703 h -1.39753 l -0.99537,2.19049 -0.94879,-2.19049 h -1.44621 v 3.35703 h 1.00144 V 603.58 l 0.92604,2.13704 h 0.92605 l 0.93583,-2.13387 z m -37.08136,-3.42318 h -1.20491 v 3.48933 h 3.32951 v -0.92895 h -2.1246 z m 4.55665,-0.0794 c -1.53802,0 -2.34685,0.72893 -2.34685,1.79917 0,1.20914 0.84905,1.82245 2.34685,1.82245 1.64889,0 2.34236,-0.7112 2.34236,-1.82245 0,-1.12845 -0.78237,-1.7997 -2.34236,-1.7997 z m -0.004,0.90673 c 0.10469,-5e-4 0.20934,0.006 0.31326,0.0183 l -1.34699,1.347 c -0.0637,-0.14418 -0.0948,-0.30068 -0.091,-0.45826 0,-0.54743 0.2757,-0.90752 1.12475,-0.90752 z m 0.004,1.82245 c -0.10088,4.5e-4 -0.20169,-0.005 -0.30188,-0.0169 l 1.34937,-1.34937 c 0.0614,0.14179 0.0907,0.29536 0.086,0.44979 0,0.53261 -0.254,0.91599 -1.13348,0.91599 z m 4.7297,-0.47625 h 1.2401 c -0.0183,0.0861 -0.0563,0.16668 -0.11113,0.23548 -0.25709,0.20944 -0.5852,0.31136 -0.91572,0.28442 -0.16637,0.0178 -0.33459,-3.7e-4 -0.49331,-0.0533 -0.15873,-0.0529 -0.30425,-0.13931 -0.42665,-0.25337 -0.12538,-0.18391 -0.18494,-0.40479 -0.16906,-0.6268 -0.0203,-0.23264 0.0445,-0.46473 0.18229,-0.65325 0.17331,-0.1958 0.46673,-0.2802 0.898,-0.2802 0.2744,-0.0227 0.54845,0.0477 0.77787,0.20003 0.0723,0.0574 0.12637,0.13465 0.15558,0.22225 h 1.15014 c -0.008,-0.14434 -0.0431,-0.28593 -0.10239,-0.41778 -0.27543,-0.56012 -0.91572,-0.8935 -2.00448,-0.8935 -0.94695,0 -1.58248,0.28893 -1.93358,0.7247 -0.23188,0.31468 -0.35092,0.69835 -0.33787,1.08902 -0.015,0.39952 0.10096,0.79298 0.3302,1.12051 0.34687,0.44979 0.96467,0.67098 1.70709,0.67098 0.49358,0.0344 0.9838,-0.10382 1.38668,-0.39105 l 0.0312,0.33761 h 0.95541 v -2.06693 h -2.32039 z m 5.03211,-2.25372 c -1.53776,0 -2.34686,0.72892 -2.34686,1.79916 0,1.20915 0.84879,1.82245 2.34686,1.82245 1.64915,0 2.34262,-0.7112 2.34262,-1.82245 0,-1.12765 -0.78237,-1.7989 -2.34262,-1.7989 z m -0.004,0.90672 c 0.10195,-3e-4 0.20381,0.006 0.30507,0.0175 l -1.3417,1.3425 c -0.0618,-0.14258 -0.0918,-0.29684 -0.0881,-0.45217 -10e-4,-0.54743 0.2757,-0.90752 1.12474,-0.90752 z m 0.004,1.82245 c -0.10356,4.5e-4 -0.20704,-0.006 -0.30983,-0.018 l 1.35387,-1.35414 c 0.0637,0.14368 0.0942,0.29986 0.0892,0.45694 5.3e-4,0.53208 -0.25241,0.91546 -1.13321,0.91546 z"
         class="ccustom"
         fill="#394149"
         style="stroke-width:0.264583"
         data-darkreader-inline-fill=""
         id="path17045" /></g></g></svg>
