<?xml version="1.0" encoding="UTF-8" standalone="no"?>
<!-- Created with Inkscape (http://www.inkscape.org/) -->

<svg
   xml:space="preserve"
   sodipodi:docname="mockup.svg"
   inkscape:version="1.2.1 (9c6d41e410, 2022-07-14)"
   id="svg182339"
   version="1.1"
   viewBox="0 0 35.889758 7.0554505"
   height="26.666269"
   width="135.64633"
   xmlns:inkscape="http://www.inkscape.org/namespaces/inkscape"
   xmlns:sodipodi="http://sodipodi.sourceforge.net/DTD/sodipodi-0.dtd"
   xmlns:xlink="http://www.w3.org/1999/xlink"
   xmlns="http://www.w3.org/2000/svg"
   xmlns:svg="http://www.w3.org/2000/svg"><sodipodi:namedview
     id="namedview182341"
     pagecolor="#505050"
     bordercolor="#eeeeee"
     borderopacity="1"
     inkscape:showpageshadow="0"
     inkscape:pageopacity="0"
     inkscape:pagecheckerboard="0"
     inkscape:deskcolor="#505050"
     inkscape:document-units="mm"
     showgrid="false"
     inkscape:zoom="0.34578127"
     inkscape:cx="-615.99635"
     inkscape:cy="-902.30451"
     inkscape:window-width="1366"
     inkscape:window-height="705"
     inkscape:window-x="-8"
     inkscape:window-y="-8"
     inkscape:window-maximized="1"
     inkscape:current-layer="layer1"
     showguides="true"><sodipodi:guide
       position="-756.49005,460.80328"
       orientation="1,0"
       id="guide25471"
       inkscape:locked="false" /><sodipodi:guide
       position="-751.74872,381.63314"
       orientation="1,0"
       id="guide25473"
       inkscape:locked="false" /><sodipodi:guide
       position="-396.65674,231.93047"
       orientation="1,0"
       id="guide35590"
       inkscape:locked="false" /><sodipodi:guide
       position="-401.39807,266.21853"
       orientation="1,0"
       id="guide38199"
       inkscape:locked="false" /></sodipodi:namedview><defs
     id="defs182336"><linearGradient
       id="linearGradient1057"
       x1="522.69"
       y1="412.73999"
       x2="908.96997"
       y2="799.01001"
       gradientTransform="matrix(-0.26458333,0,0,-0.26458333,266.89035,244.97243)"
       gradientUnits="userSpaceOnUse"><stop
         offset="0"
         stop-color="#fcee21"
         id="stop1061" /><stop
         offset="0.1"
         stop-color="#f7ec22"
         id="stop1063" /><stop
         offset="0.22"
         stop-color="#e7e624"
         id="stop1065" /><stop
         offset="0.36"
         stop-color="#cedd28"
         id="stop1067" /><stop
         offset="0.51"
         stop-color="#aad02d"
         id="stop1069" /><stop
         offset="0.67"
         stop-color="#7cbf33"
         id="stop1071" /><stop
         offset="0.83"
         stop-color="#45ab3b"
         id="stop1073" /><stop
         offset="0.99"
         stop-color="#049344"
         id="stop1075" /><stop
         offset="1"
         stop-color="#009245"
         id="stop1077" /></linearGradient><linearGradient
       inkscape:collect="always"
       xlink:href="#linearGradient1057"
       id="linearGradient198911"
       gradientUnits="userSpaceOnUse"
       gradientTransform="matrix(13.538845,0,0,13.538845,-2625.6978,-4130.266)"
       x1="413.80301"
       y1="291.04166"
       x2="118.47618"
       y2="291.04166" /><linearGradient
       inkscape:collect="always"
       xlink:href="#linearGradient1057"
       id="linearGradient478189"
       gradientUnits="userSpaceOnUse"
       gradientTransform="matrix(1.6425514,0,0,1.6425514,352.95802,-164.19644)"
       x1="413.80301"
       y1="291.04166"
       x2="118.47618"
       y2="291.04166" /><linearGradient
       inkscape:collect="always"
       xlink:href="#linearGradient1057"
       id="linearGradient653602"
       gradientUnits="userSpaceOnUse"
       gradientTransform="matrix(1.2985426,0,0,1.2985426,458.15644,-56.374736)"
       x1="413.80301"
       y1="291.04166"
       x2="118.47618"
       y2="291.04166" /><linearGradient
       inkscape:collect="always"
       xlink:href="#linearGradient1057"
       id="linearGradient741566"
       gradientUnits="userSpaceOnUse"
       gradientTransform="matrix(1.2985426,0,0,1.2985426,649.52306,-458.3974)"
       x1="413.80301"
       y1="291.04166"
       x2="118.47618"
       y2="291.04166" /><linearGradient
       inkscape:collect="always"
       xlink:href="#linearGradient1057"
       id="linearGradient818934"
       gradientUnits="userSpaceOnUse"
       gradientTransform="matrix(1.2985426,0,0,1.2985426,457.45349,-153.39616)"
       x1="413.80301"
       y1="291.04166"
       x2="118.47618"
       y2="291.04166" /><linearGradient
       inkscape:collect="always"
       xlink:href="#linearGradient1057"
       id="linearGradient892145"
       gradientUnits="userSpaceOnUse"
       gradientTransform="matrix(1.2985426,0,0,1.2985426,458.15644,-154.90639)"
       x1="413.80301"
       y1="291.04166"
       x2="118.47618"
       y2="291.04166" /><linearGradient
       inkscape:collect="always"
       xlink:href="#linearGradient1057"
       id="linearGradient1018698"
       gradientUnits="userSpaceOnUse"
       gradientTransform="matrix(1.2985426,0,0,1.2985426,453.34098,-54.508543)"
       x1="413.80301"
       y1="291.04166"
       x2="118.47618"
       y2="291.04166" /></defs><g
     inkscape:label="ios-home"
     inkscape:groupmode="layer"
     id="layer1"
     style="display:inline"
     transform="translate(-841.15673,-501.57767)"><g
       id="g17457"
       transform="translate(-27.07802,-98.932469)"><g
         id="g17110"
         transform="translate(67.509436,-28.336244)"><path
           d="m 806.1094,631.94281 c -0.10028,0.10088 -0.17706,0.22264 -0.22489,0.35658 -0.0478,0.13396 -0.0655,0.2768 -0.0519,0.41838 l -0.005,-0.005 c 0.0141,0.16666 -0.008,0.33435 -0.0659,0.49144 -0.0574,0.15705 -0.14846,0.29969 -0.2667,0.41796 -0.11827,0.11824 -0.26091,0.20928 -0.41799,0.2667 -0.15705,0.0574 -0.32477,0.0799 -0.49141,0.0659 l 0.005,0.005 c -0.19933,-0.0186 -0.39954,0.0248 -0.57335,0.12422 -0.17378,0.0994 -0.31268,0.24998 -0.39775,0.43122 -0.0851,0.18124 -0.11218,0.38428 -0.0776,0.5815 0.0346,0.19719 0.12912,0.37893 0.27075,0.52043 0.14163,0.1415 0.32346,0.23588 0.52068,0.27025 0.19724,0.0344 0.40026,0.007 0.58142,-0.0781 0.18116,-0.0852 0.3316,-0.22426 0.43085,-0.39815 0.0992,-0.17388 0.14245,-0.37412 0.12371,-0.57346 l 0.005,0.005 c -0.0141,-0.16664 0.008,-0.33436 0.0658,-0.49144 0.0574,-0.15706 0.14848,-0.29969 0.26673,-0.41796 0.11827,-0.11825 0.2609,-0.20929 0.41796,-0.2667 0.15708,-0.0574 0.32478,-0.0799 0.49144,-0.0659 l -0.005,-0.005 c 0.16282,0.0146 0.32673,-0.0121 0.47651,-0.0776 0.14976,-0.0656 0.28057,-0.16788 0.38026,-0.29744 0.0997,-0.12957 0.1651,-0.28223 0.19008,-0.44379 0.025,-0.16158 0.009,-0.32684 -0.0471,-0.48051 -0.0559,-0.15364 -0.14965,-0.2907 -0.2726,-0.39846 -0.12295,-0.10777 -0.27112,-0.18275 -0.43077,-0.21799 -0.15965,-0.0352 -0.32562,-0.0296 -0.48252,0.0163 -0.1569,0.046 -0.29964,0.13081 -0.41502,0.24665 z"
           class="ccompli2"
           fill="#394149"
           style="stroke-width:0.264583"
           data-darkreader-inline-fill=""
           id="path17053" /><path
           d="m 804.15757,633.33584 -0.005,-0.005 c 0.14164,0.0143 0.28467,-0.003 0.41879,-0.0509 0.13409,-0.0478 0.2559,-0.12475 0.3566,-0.22537 0.10068,-0.10062 0.17778,-0.22238 0.22564,-0.35645 0.0479,-0.13406 0.0654,-0.27707 0.0512,-0.41873 l 0.005,0.005 c -0.0141,-0.16666 0.008,-0.33435 0.0658,-0.49143 0.0574,-0.15706 0.14848,-0.2997 0.26672,-0.41796 0.11827,-0.11825 0.26091,-0.20929 0.41797,-0.2667 0.15708,-0.0575 0.32477,-0.0799 0.49143,-0.0659 l -0.005,-0.005 c 0.19936,0.0187 0.39962,-0.0245 0.57351,-0.1238 0.17391,-0.0993 0.31292,-0.2498 0.39812,-0.43101 0.0852,-0.1812 0.11242,-0.38427 0.078,-0.58152 -0.0344,-0.19725 -0.12891,-0.37907 -0.27051,-0.52066 -0.14158,-0.14159 -0.3234,-0.23605 -0.52065,-0.27051 -0.19725,-0.0344 -0.40031,-0.007 -0.58153,0.078 -0.18121,0.0852 -0.33171,0.22422 -0.431,0.39811 -0.0993,0.17388 -0.14253,0.37416 -0.1238,0.57352 l -0.005,-0.005 c 0.0141,0.16666 -0.008,0.33439 -0.0658,0.49148 -0.0574,0.15709 -0.14846,0.29975 -0.2667,0.41803 -0.11827,0.11824 -0.26094,0.20928 -0.41802,0.2667 -0.15711,0.0574 -0.32483,0.0798 -0.49149,0.0657 l 0.005,0.005 c -0.14163,-0.0143 -0.28469,0.003 -0.41878,0.0509 -0.13409,0.0478 -0.2559,0.12475 -0.3566,0.22537 -0.1007,0.10062 -0.17778,0.22238 -0.22567,0.35645 -0.0479,0.13406 -0.0653,0.27707 -0.0512,0.41873 l -0.005,-0.005 c 0.014,0.16663 -0.008,0.33432 -0.0659,0.49138 -0.0575,0.15703 -0.14848,0.29967 -0.26673,0.41791 -0.11825,0.11824 -0.26087,0.20926 -0.41792,0.26673 -0.15704,0.0574 -0.32473,0.0799 -0.49137,0.0659 l 0.005,0.005 c -0.19936,-0.0187 -0.39964,0.0245 -0.57352,0.1238 -0.17389,0.0993 -0.31291,0.24979 -0.39811,0.43101 -0.0852,0.18121 -0.11243,0.38428 -0.078,0.58153 0.0345,0.19724 0.12893,0.37906 0.27051,0.52064 0.14159,0.14161 0.32341,0.23606 0.52066,0.27051 0.19725,0.0344 0.40032,0.007 0.58153,-0.078 0.1812,-0.0852 0.33171,-0.22421 0.431,-0.39809 0.0993,-0.17391 0.14253,-0.37418 0.1238,-0.57354 l 0.005,0.005 c -0.0141,-0.16666 0.008,-0.33435 0.0658,-0.49143 0.0574,-0.15706 0.14846,-0.2997 0.2667,-0.41797 0.11827,-0.11824 0.26091,-0.20928 0.41796,-0.2667 0.15709,-0.0574 0.32478,-0.0799 0.49144,-0.0659 z"
           class="ccompli1"
           fill="#394149"
           style="stroke-width:0.264583"
           data-darkreader-inline-fill=""
           id="path17055" /><path
           d="m 802.38433,632.80482 c 0.10029,-0.10086 0.17706,-0.22262 0.22486,-0.35658 0.0478,-0.13396 0.0654,-0.27683 0.0516,-0.41838 l 0.005,0.005 c -0.0141,-0.16669 0.008,-0.33446 0.0659,-0.49157 0.0575,-0.15711 0.14855,-0.29977 0.26687,-0.41804 0.11832,-0.11827 0.26101,-0.20928 0.41815,-0.26668 0.15713,-0.0574 0.32491,-0.0798 0.49159,-0.0657 l -0.005,-0.005 c 0.19928,0.0187 0.39949,-0.0246 0.5733,-0.12387 0.1738,-0.0993 0.31273,-0.24975 0.3979,-0.4309 0.0851,-0.18115 0.11234,-0.38415 0.0779,-0.58133 -0.0344,-0.19717 -0.12891,-0.37892 -0.27044,-0.52045 -0.14152,-0.14154 -0.32329,-0.23598 -0.52046,-0.27043 -0.19716,-0.0345 -0.40018,-0.007 -0.58131,0.0779 -0.18116,0.0851 -0.33163,0.2241 -0.4309,0.3979 -0.0993,0.1738 -0.14256,0.374 -0.12388,0.57329 l -0.005,-0.005 c 0.0141,0.16665 -0.008,0.33436 -0.0659,0.49143 -0.0574,0.15707 -0.14845,0.2997 -0.26671,0.41796 -0.11825,0.11826 -0.2609,0.20929 -0.41796,0.26671 -0.15707,0.0574 -0.32478,0.0799 -0.49143,0.0659 l 0.005,0.005 c -0.16283,-0.0146 -0.32671,0.0121 -0.47646,0.0777 -0.14975,0.0656 -0.28052,0.16793 -0.38019,0.29753 -0.0997,0.12956 -0.16502,0.28223 -0.18999,0.44378 -0.025,0.16158 -0.009,0.32684 0.0471,0.48046 0.0559,0.15364 0.14968,0.29067 0.27264,0.39841 0.12296,0.10776 0.27112,0.18272 0.43077,0.21796 0.15964,0.0352 0.3256,0.0296 0.48249,-0.0164 0.15688,-0.046 0.29963,-0.13081 0.415,-0.24664 z"
           class="ccustom"
           fill="#394149"
           style="stroke-width:0.264583"
           data-darkreader-inline-fill=""
           id="path17057" /><path
           d="m 810.58033,630.16587 h 0.78581 v 3.82402 h -0.78581 z"
           class="cneutral"
           fill="#394149"
           style="stroke-width:0.264583"
           data-darkreader-inline-fill=""
           id="path17059" /><path
           d="m 811.81117,632.68047 c -10e-4,-0.2748 0.0794,-0.54378 0.23128,-0.7728 0.15187,-0.22902 0.3683,-0.40783 0.62187,-0.51374 0.25358,-0.10594 0.53287,-0.13422 0.80254,-0.0813 0.26966,0.0529 0.51755,0.18471 0.71225,0.37864 0.19471,0.19392 0.32748,0.44128 0.38151,0.71073 0.054,0.26945 0.0269,0.54888 -0.078,0.80288 -0.10491,0.25397 -0.28284,0.47114 -0.51126,0.62391 -0.22844,0.1528 -0.49705,0.23437 -0.77187,0.23437 -0.1824,0.002 -0.3634,-0.0322 -0.53242,-0.10091 -0.16902,-0.0687 -0.32263,-0.17037 -0.45188,-0.29909 -0.12928,-0.12874 -0.23156,-0.28197 -0.30091,-0.45069 -0.0694,-0.16872 -0.10441,-0.34959 -0.10306,-0.53202 z m 1.99073,0 c -0.003,-0.11846 -0.0414,-0.23331 -0.10959,-0.33023 -0.0682,-0.0969 -0.16346,-0.17156 -0.27385,-0.2146 -0.11041,-0.0431 -0.23103,-0.0527 -0.34684,-0.0275 -0.11581,0.0251 -0.22164,0.0838 -0.30427,0.16878 -0.0826,0.0849 -0.13838,0.19235 -0.16026,0.30882 -0.0219,0.11644 -0.009,0.23677 0.0371,0.34594 0.0461,0.10917 0.12337,0.2023 0.22211,0.26779 0.0988,0.0655 0.21466,0.10041 0.33314,0.10041 0.0811,0.002 0.16187,-0.0125 0.23709,-0.0431 0.0752,-0.0306 0.14325,-0.0764 0.19984,-0.13459 0.0566,-0.0582 0.10055,-0.1275 0.12902,-0.20352 0.0285,-0.076 0.0409,-0.15711 0.0365,-0.23817 z"
           class="cneutral"
           fill="#394149"
           style="stroke-width:0.264583"
           data-darkreader-inline-fill=""
           id="path17061" /><path
           d="m 817.71958,631.37078 v 2.48708 c 0,0.88001 -0.68633,1.25201 -1.38297,1.25201 -0.24527,0.0184 -0.49089,-0.0312 -0.70988,-0.14319 -0.21897,-0.11203 -0.40288,-0.28218 -0.53155,-0.49181 l 0.67046,-0.38761 c 0.0541,0.10927 0.14025,0.19941 0.24696,0.25839 0.10673,0.0589 0.22892,0.0839 0.3502,0.0715 0.0775,0.0107 0.15647,0.004 0.23101,-0.02 0.0745,-0.0239 0.14271,-0.0642 0.19955,-0.11803 0.0568,-0.0538 0.10083,-0.11969 0.12877,-0.19282 0.0279,-0.0731 0.039,-0.15156 0.0325,-0.22956 v -0.23944 c -0.092,0.11258 -0.20912,0.20203 -0.34197,0.26117 -0.13285,0.0591 -0.27768,0.0863 -0.42294,0.0793 -0.3456,-0.0109 -0.67339,-0.15584 -0.914,-0.40417 -0.24061,-0.24831 -0.37515,-0.58053 -0.37515,-0.92628 0,-0.34576 0.13454,-0.67797 0.37515,-0.92628 0.24061,-0.24834 0.5684,-0.39328 0.914,-0.40418 0.14526,-0.007 0.29009,0.0202 0.42294,0.0793 0.13285,0.0591 0.24995,0.14859 0.34197,0.26117 v -0.26723 z m -0.76464,1.25703 c 0.005,-0.12663 -0.0275,-0.25196 -0.094,-0.35983 -0.0665,-0.1079 -0.16386,-0.19338 -0.2794,-0.24548 -0.11554,-0.0521 -0.24402,-0.0684 -0.36893,-0.0469 -0.12491,0.0215 -0.24051,0.08 -0.33195,0.16777 -0.0914,0.0878 -0.15446,0.20093 -0.18105,0.32486 -0.0266,0.12393 -0.0155,0.25299 0.032,0.37055 0.0474,0.11755 0.12888,0.21825 0.23397,0.28911 0.10509,0.0708 0.229,0.10863 0.35573,0.10848 0.0826,0.006 0.16542,-0.006 0.24323,-0.034 0.0778,-0.0282 0.14886,-0.0724 0.20855,-0.12973 0.0597,-0.0573 0.10673,-0.12652 0.13806,-0.20314 0.0313,-0.0766 0.0463,-0.15891 0.0438,-0.24165 z"
           class="cneutral"
           fill="#394149"
           style="stroke-width:0.264583"
           data-darkreader-inline-fill=""
           id="path17063" /><path
           d="m 818.16461,632.68047 c -0.001,-0.2748 0.0794,-0.54378 0.23127,-0.7728 0.15188,-0.22902 0.3683,-0.40783 0.62188,-0.51374 0.25358,-0.10594 0.53287,-0.13422 0.80254,-0.0813 0.26966,0.0529 0.51755,0.18471 0.71225,0.37864 0.19471,0.19392 0.32748,0.44128 0.38151,0.71073 0.054,0.26945 0.0269,0.54888 -0.0781,0.80288 -0.1049,0.25397 -0.28283,0.47114 -0.51125,0.62391 -0.22844,0.1528 -0.49705,0.23437 -0.77187,0.23437 -0.1824,0.002 -0.36343,-0.0322 -0.53242,-0.10091 -0.16902,-0.0687 -0.32263,-0.17037 -0.45188,-0.29909 -0.12928,-0.12874 -0.23156,-0.28197 -0.30091,-0.45069 -0.0694,-0.16872 -0.10441,-0.34959 -0.10306,-0.53202 z m 1.99073,0 c -0.003,-0.11846 -0.0414,-0.23331 -0.10959,-0.33023 -0.0682,-0.0969 -0.16346,-0.17156 -0.27385,-0.2146 -0.11041,-0.0431 -0.23106,-0.0527 -0.34684,-0.0275 -0.11581,0.0251 -0.22164,0.0838 -0.30427,0.16878 -0.0826,0.0849 -0.13838,0.19235 -0.16028,0.30882 -0.0219,0.11644 -0.009,0.23677 0.0371,0.34594 0.0461,0.10917 0.12337,0.2023 0.22211,0.26779 0.0988,0.0655 0.21463,0.10041 0.33314,0.10041 0.0812,0.002 0.16187,-0.0125 0.23707,-0.0431 0.0752,-0.0306 0.14327,-0.0764 0.19986,-0.13459 0.0566,-0.0582 0.10055,-0.1275 0.12902,-0.20352 0.0285,-0.076 0.0409,-0.15711 0.0365,-0.23817 z"
           class="cneutral"
           fill="#394149"
           style="stroke-width:0.264583"
           data-darkreader-inline-fill=""
           id="path17065" /><path
           d="m 821.3076,630.66884 c 0,-0.0933 0.0276,-0.18441 0.0795,-0.26194 0.0518,-0.0775 0.12547,-0.13797 0.21162,-0.17366 0.0861,-0.0357 0.18094,-0.045 0.27241,-0.0268 0.0914,0.0182 0.17547,0.0631 0.24141,0.12904 0.0659,0.0659 0.11083,0.14995 0.12903,0.24141 0.0182,0.0915 0.009,0.18626 -0.0268,0.27241 -0.0357,0.0861 -0.0961,0.15979 -0.17368,0.2116 -0.0775,0.0518 -0.16867,0.0795 -0.26193,0.0795 -0.12465,-10e-4 -0.24387,-0.0513 -0.33203,-0.13947 -0.0881,-0.0882 -0.13822,-0.20736 -0.13946,-0.33202 z m 0.0794,0.70194 h 0.78608 v 2.61937 h -0.78714 z"
           class="cneutral"
           fill="#394149"
           style="stroke-width:0.264583"
           data-darkreader-inline-fill=""
           id="path17067" /><path
           d="m 825.56607,632.68047 c 0.009,0.17311 -0.0161,0.34631 -0.0743,0.50964 -0.0581,0.16332 -0.14787,0.31355 -0.26423,0.44206 -0.11634,0.12848 -0.25697,0.23273 -0.41373,0.30671 -0.1568,0.0739 -0.32663,0.1162 -0.4998,0.1243 -0.14563,0.008 -0.29118,-0.0166 -0.42614,-0.0719 -0.13496,-0.0553 -0.2559,-0.13991 -0.35412,-0.24773 v 1.29408 h -0.78581 v -3.66686 h 0.78581 v 0.24606 c 0.0982,-0.10774 0.21924,-0.1923 0.35417,-0.24752 0.13497,-0.0552 0.28049,-0.0798 0.42609,-0.0718 0.17319,0.008 0.34308,0.0503 0.4999,0.12427 0.15682,0.074 0.29745,0.17823 0.41381,0.30676 0.11636,0.12854 0.20616,0.27882 0.26421,0.4422 0.058,0.16335 0.0832,0.3366 0.0741,0.50975 z m -0.78582,0 c -0.003,-0.12259 -0.0422,-0.24154 -0.11258,-0.342 -0.0704,-0.10044 -0.16875,-0.17791 -0.28289,-0.22268 -0.11417,-0.0448 -0.239,-0.0549 -0.35888,-0.0291 -0.11988,0.0258 -0.22947,0.0864 -0.31509,0.17417 -0.0856,0.0878 -0.14343,0.19889 -0.16621,0.31941 -0.0228,0.12049 -0.01,0.245 0.0381,0.35801 0.0476,0.113 0.12756,0.20941 0.22974,0.27723 0.10218,0.0678 0.22207,0.10395 0.3447,0.10392 0.0842,0.004 0.16822,-0.0103 0.24659,-0.0413 0.0784,-0.031 0.14928,-0.0782 0.2081,-0.13854 0.0588,-0.0603 0.10424,-0.13242 0.13327,-0.21153 0.029,-0.0791 0.041,-0.16349 0.0351,-0.24754 z"
           class="cneutral"
           fill="#394149"
           style="stroke-width:0.264583"
           data-darkreader-inline-fill=""
           id="path17069" /><path
           d="m 827.99097,633.20408 c 0,0.60245 -0.52361,0.8591 -1.08929,0.8591 -0.2286,0.0207 -0.45807,-0.0276 -0.65886,-0.13878 -0.20079,-0.11112 -0.36362,-0.27992 -0.46747,-0.48458 l 0.68078,-0.38761 c 0.0275,0.0946 0.0867,0.1769 0.16758,0.23312 0.0809,0.0562 0.17875,0.083 0.27692,0.0759 0.18838,0 0.28283,-0.0577 0.28283,-0.16219 0,-0.2884 -1.28878,-0.13626 -1.28878,-1.04246 0,-0.57123 0.48207,-0.8591 1.02685,-0.8591 0.20478,-0.006 0.40746,0.0421 0.58711,0.14065 0.17965,0.0986 0.32967,0.24352 0.43418,0.41974 l -0.67046,0.36142 c -0.0294,-0.0686 -0.0783,-0.12706 -0.14075,-0.16804 -0.0625,-0.041 -0.13547,-0.0627 -0.21008,-0.0624 -0.13626,0 -0.22014,0.0529 -0.22014,0.14657 0.001,0.29872 1.28958,0.0995 1.28958,1.06866 z"
           class="cneutral"
           fill="#394149"
           style="stroke-width:0.264583"
           data-darkreader-inline-fill=""
           id="path17071" /><path
           d="m 830.86144,631.37078 v 2.61937 h -0.78581 v -0.24632 c -0.0908,0.10869 -0.20585,0.19433 -0.33603,0.2499 -0.13017,0.0556 -0.27146,0.0794 -0.41275,0.0697 -0.52916,0 -0.97895,-0.37703 -0.97895,-1.08479 v -1.60787 h 0.78581 v 1.49278 c -0.007,0.0624 5.3e-4,0.12546 0.0209,0.18481 0.0201,0.0594 0.0532,0.11361 0.0966,0.15893 0.0434,0.0453 0.096,0.0806 0.15452,0.10354 0.0582,0.0229 0.12091,0.0328 0.18362,0.029 0.28813,0 0.4871,-0.16748 0.4871,-0.53949 v -1.42875 z"
           class="cneutral"
           fill="#394149"
           style="stroke-width:0.264583"
           data-darkreader-inline-fill=""
           id="path17073" /><path
           d="m 835.36729,632.38175 v 1.60814 h -0.78581 v -1.54014 c 0,-0.26194 -0.12568,-0.42942 -0.37703,-0.42942 -0.26194,0 -0.40878,0.18336 -0.40878,0.49239 v 1.47717 h -0.78555 v -1.54014 c 0,-0.26194 -0.12568,-0.42942 -0.3773,-0.42942 -0.26193,0 -0.40851,0.18336 -0.40851,0.49239 v 1.47717 h -0.78582 v -2.61938 h 0.78582 v 0.24077 c 0.0815,-0.10681 0.18838,-0.19153 0.31088,-0.24638 0.12277,-0.0549 0.25718,-0.0781 0.39106,-0.0677 0.1344,-0.007 0.26828,0.0218 0.38867,0.0824 0.12012,0.0605 0.22251,0.15123 0.29739,0.26318 0.087,-0.11713 0.20241,-0.21026 0.33523,-0.2707 0.13282,-0.0604 0.27887,-0.0862 0.42439,-0.0748 0.6014,2.7e-4 0.99536,0.42969 0.99536,1.08453 z"
           class="cneutral"
           fill="#394149"
           style="stroke-width:0.264583"
           data-darkreader-inline-fill=""
           id="path17075" /><path
           d="m 836.03193,631.35464 c 0.32199,0 0.58314,-0.26109 0.58314,-0.58314 0,-0.32206 -0.26115,-0.58314 -0.58314,-0.58314 -0.322,0 -0.58315,0.26108 -0.58315,0.58314 0,0.32205 0.26115,0.58314 0.58315,0.58314 z"
           class="cneutral"
           fill="#394149"
           style="stroke-width:0.264583"
           data-darkreader-inline-fill=""
           id="path17077" /></g></g></g></svg>
