<?xml version="1.0" encoding="UTF-8" standalone="no"?>
<!-- Created with Inkscape (http://www.inkscape.org/) -->

<svg
   xml:space="preserve"
   sodipodi:docname="mockup.svg"
   inkscape:version="1.2.1 (9c6d41e410, 2022-07-14)"
   id="svg182339"
   version="1.1"
   viewBox="0 0 30.134979 6.7865751"
   height="25.650047"
   width="113.89599"
   xmlns:inkscape="http://www.inkscape.org/namespaces/inkscape"
   xmlns:sodipodi="http://sodipodi.sourceforge.net/DTD/sodipodi-0.dtd"
   xmlns:xlink="http://www.w3.org/1999/xlink"
   xmlns="http://www.w3.org/2000/svg"
   xmlns:svg="http://www.w3.org/2000/svg"><sodipodi:namedview
     id="namedview182341"
     pagecolor="#505050"
     bordercolor="#eeeeee"
     borderopacity="1"
     inkscape:showpageshadow="0"
     inkscape:pageopacity="0"
     inkscape:pagecheckerboard="0"
     inkscape:deskcolor="#505050"
     inkscape:document-units="mm"
     showgrid="false"
     inkscape:zoom="0.34578127"
     inkscape:cx="-615.99635"
     inkscape:cy="-902.30451"
     inkscape:window-width="1366"
     inkscape:window-height="705"
     inkscape:window-x="-8"
     inkscape:window-y="-8"
     inkscape:window-maximized="1"
     inkscape:current-layer="layer1"
     showguides="true"><sodipodi:guide
       position="-747.78007,487.18575"
       orientation="1,0"
       id="guide25471"
       inkscape:locked="false" /><sodipodi:guide
       position="-743.03874,408.01561"
       orientation="1,0"
       id="guide25473"
       inkscape:locked="false" /><sodipodi:guide
       position="-387.94676,258.31294"
       orientation="1,0"
       id="guide35590"
       inkscape:locked="false" /><sodipodi:guide
       position="-392.68809,292.601"
       orientation="1,0"
       id="guide38199"
       inkscape:locked="false" /></sodipodi:namedview><defs
     id="defs182336"><linearGradient
       id="linearGradient1057"
       x1="522.69"
       y1="412.73999"
       x2="908.96997"
       y2="799.01001"
       gradientTransform="matrix(-0.26458333,0,0,-0.26458333,266.89035,244.97243)"
       gradientUnits="userSpaceOnUse"><stop
         offset="0"
         stop-color="#fcee21"
         id="stop1061" /><stop
         offset="0.1"
         stop-color="#f7ec22"
         id="stop1063" /><stop
         offset="0.22"
         stop-color="#e7e624"
         id="stop1065" /><stop
         offset="0.36"
         stop-color="#cedd28"
         id="stop1067" /><stop
         offset="0.51"
         stop-color="#aad02d"
         id="stop1069" /><stop
         offset="0.67"
         stop-color="#7cbf33"
         id="stop1071" /><stop
         offset="0.83"
         stop-color="#45ab3b"
         id="stop1073" /><stop
         offset="0.99"
         stop-color="#049344"
         id="stop1075" /><stop
         offset="1"
         stop-color="#009245"
         id="stop1077" /></linearGradient><linearGradient
       inkscape:collect="always"
       xlink:href="#linearGradient1057"
       id="linearGradient198911"
       gradientUnits="userSpaceOnUse"
       gradientTransform="matrix(13.538845,0,0,13.538845,-2625.6978,-4130.266)"
       x1="413.80301"
       y1="291.04166"
       x2="118.47618"
       y2="291.04166" /><linearGradient
       inkscape:collect="always"
       xlink:href="#linearGradient1057"
       id="linearGradient478189"
       gradientUnits="userSpaceOnUse"
       gradientTransform="matrix(1.6425514,0,0,1.6425514,352.95802,-164.19644)"
       x1="413.80301"
       y1="291.04166"
       x2="118.47618"
       y2="291.04166" /><linearGradient
       inkscape:collect="always"
       xlink:href="#linearGradient1057"
       id="linearGradient653602"
       gradientUnits="userSpaceOnUse"
       gradientTransform="matrix(1.2985426,0,0,1.2985426,458.15644,-56.374736)"
       x1="413.80301"
       y1="291.04166"
       x2="118.47618"
       y2="291.04166" /><linearGradient
       inkscape:collect="always"
       xlink:href="#linearGradient1057"
       id="linearGradient741566"
       gradientUnits="userSpaceOnUse"
       gradientTransform="matrix(1.2985426,0,0,1.2985426,649.52306,-458.3974)"
       x1="413.80301"
       y1="291.04166"
       x2="118.47618"
       y2="291.04166" /><linearGradient
       inkscape:collect="always"
       xlink:href="#linearGradient1057"
       id="linearGradient818934"
       gradientUnits="userSpaceOnUse"
       gradientTransform="matrix(1.2985426,0,0,1.2985426,457.45349,-153.39616)"
       x1="413.80301"
       y1="291.04166"
       x2="118.47618"
       y2="291.04166" /><linearGradient
       inkscape:collect="always"
       xlink:href="#linearGradient1057"
       id="linearGradient892145"
       gradientUnits="userSpaceOnUse"
       gradientTransform="matrix(1.2985426,0,0,1.2985426,458.15644,-154.90639)"
       x1="413.80301"
       y1="291.04166"
       x2="118.47618"
       y2="291.04166" /><linearGradient
       inkscape:collect="always"
       xlink:href="#linearGradient1057"
       id="linearGradient1018698"
       gradientUnits="userSpaceOnUse"
       gradientTransform="matrix(1.2985426,0,0,1.2985426,453.34098,-54.508543)"
       x1="413.80301"
       y1="291.04166"
       x2="118.47618"
       y2="291.04166" /></defs><g
     inkscape:label="ios-home"
     inkscape:groupmode="layer"
     id="layer1"
     style="display:inline"
     transform="translate(-832.44675,-528.22902)"><g
       id="g17413"
       transform="translate(-7.8439999,-98.932469)"><g
         id="g17376"
         transform="translate(-33.222706,-25.652531)"><g
           id="g17372"><path
             d="m 873.51346,659.60058 h 6.78656 v -6.78656 h -6.78656 z m 5.48031,-4.04627 h -1.43404 v -1.43405 h 1.43404 z m -4.17433,-1.43405 h 1.43484 v 2.74003 h 2.73949 v 1.43404 h -4.17433 z m 9.89992,-1.30624 c -0.67114,0 -1.3272,0.19901 -1.88521,0.57187 -0.55803,0.37286 -0.99296,0.90282 -1.24979,1.52286 -0.25683,0.62005 -0.32401,1.3023 -0.19309,1.96053 0.13094,0.65824 0.4541,1.26286 0.92866,1.73742 0.47456,0.47458 1.07918,0.79774 1.73741,0.92869 0.65826,0.13091 1.34052,0.0637 1.96057,-0.1931 0.62005,-0.25683 1.14998,-0.69175 1.52286,-1.24978 0.37285,-0.55804 0.57187,-1.2141 0.57187,-1.88521 -0.001,-0.89964 -0.35891,-1.76212 -0.99505,-2.39825 -0.63613,-0.63614 -1.4986,-0.99398 -2.39823,-0.99503 z m 0,5.48031 c -0.41278,0 -0.81629,-0.1224 -1.15951,-0.35174 -0.34319,-0.22931 -0.61071,-0.55525 -0.76867,-0.93662 -0.15796,-0.38135 -0.19928,-0.80097 -0.11877,-1.20584 0.0805,-0.40484 0.27932,-0.77671 0.57118,-1.06859 0.29189,-0.29187 0.66376,-0.49064 1.0686,-0.57117 0.40484,-0.0805 0.82447,-0.0392 1.20584,0.11876 0.38134,0.15796 0.70731,0.42546 0.93662,0.76868 0.22935,0.34319 0.35174,0.74671 0.35174,1.15949 -8.5e-4,0.55327 -0.22101,1.08362 -0.61222,1.47484 -0.39121,0.39121 -0.92157,0.61134 -1.47481,0.61219 z m 15.53607,-5.48031 c -0.67125,-5e-5 -1.32723,0.19891 -1.88529,0.57174 -0.55806,0.37283 -0.99301,0.90277 -1.24989,1.5228 -0.25686,0.62003 -0.32412,1.30234 -0.1932,1.96057 0.13089,0.65825 0.45405,1.26291 0.92861,1.73749 0.47453,0.47458 1.07915,0.7978 1.73751,0.92874 0.65802,0.13094 1.34038,0.0638 1.96057,-0.19304 0.61992,-0.25683 1.14988,-0.69175 1.52267,-1.24979 0.37307,-0.55803 0.57203,-1.21409 0.57203,-1.88523 -0.001,-0.89959 -0.35877,-1.76203 -0.99483,-2.39816 -0.63606,-0.63613 -1.4986,-0.994 -2.39818,-0.99512 z m 0,5.48031 c -0.41275,5e-5 -0.81624,-0.12232 -1.15957,-0.3516 -0.34324,-0.22929 -0.61079,-0.55523 -0.7688,-0.93658 -0.15801,-0.38134 -0.19936,-0.801 -0.11887,-1.20586 0.0805,-0.40484 0.27926,-0.77674 0.57113,-1.06865 0.29186,-0.29191 0.66384,-0.4907 1.06865,-0.57125 0.40481,-0.0806 0.82444,-0.0392 1.2057,0.11872 0.38153,0.15795 0.7075,0.42545 0.93689,0.76868 0.22913,0.34321 0.35164,0.74673 0.35164,1.15951 -8e-4,0.55321 -0.22093,1.08352 -0.61225,1.47473 -0.39105,0.39121 -0.92128,0.6114 -1.47452,0.6123 z m -7.76817,-5.48031 c -0.67114,0 -1.3272,0.19901 -1.88521,0.57187 -0.55803,0.37286 -0.99295,0.90282 -1.24978,1.52286 -0.25684,0.62005 -0.32401,1.3023 -0.1931,1.96053 0.13094,0.65824 0.45411,1.26286 0.92866,1.73742 0.47456,0.47458 1.07919,0.79774 1.73742,0.92869 0.65823,0.13091 1.34051,0.0637 1.96056,-0.1931 0.62005,-0.25683 1.14998,-0.69175 1.52286,-1.24978 0.37285,-0.55804 0.57187,-1.2141 0.57187,-1.88521 -10e-4,-0.89964 -0.35891,-1.76212 -0.99504,-2.39825 -0.63614,-0.63614 -1.4986,-0.99398 -2.39824,-0.99503 z m 0,5.48031 c -0.3846,1.9e-4 -0.76174,-0.10589 -1.08985,-0.30652 -0.32808,-0.20063 -0.59438,-0.488 -0.76946,-0.83042 -0.17504,-0.34242 -0.25212,-0.72657 -0.22264,-1.11001 0.0295,-0.38346 0.1643,-0.75131 0.38965,-1.06296 0.22534,-0.31164 0.53242,-0.55496 0.88731,-0.7031 0.35491,-0.14814 0.74384,-0.19534 1.12387,-0.13639 0.38004,0.059 0.73638,0.22177 1.02973,0.47048 0.29334,0.2487 0.51226,0.57364 0.63259,0.9389 h -1.9812 v 1.30598 h 1.9812 c -0.13782,0.4168 -0.40336,0.77965 -0.75898,1.03703 -0.3556,0.25742 -0.78322,0.3963 -1.22222,0.39701 z"
             class="ccustom"
             fill="#394149"
             style="stroke-width:0.264583"
             data-darkreader-inline-fill=""
             id="path17363" /></g></g></g></g></svg>
