<?xml version="1.0" encoding="UTF-8" standalone="no"?>
<!-- Created with Inkscape (http://www.inkscape.org/) -->

<svg
   xml:space="preserve"
   sodipodi:docname="mockup.svg"
   inkscape:version="1.2.1 (9c6d41e410, 2022-07-14)"
   id="svg182339"
   version="1.1"
   viewBox="0 0 34.308519 7.7258301"
   height="29.199987"
   width="129.67"
   xmlns:inkscape="http://www.inkscape.org/namespaces/inkscape"
   xmlns:sodipodi="http://sodipodi.sourceforge.net/DTD/sodipodi-0.dtd"
   xmlns:xlink="http://www.w3.org/1999/xlink"
   xmlns="http://www.w3.org/2000/svg"
   xmlns:svg="http://www.w3.org/2000/svg"><sodipodi:namedview
     id="namedview182341"
     pagecolor="#505050"
     bordercolor="#eeeeee"
     borderopacity="1"
     inkscape:showpageshadow="0"
     inkscape:pageopacity="0"
     inkscape:pagecheckerboard="0"
     inkscape:deskcolor="#505050"
     inkscape:document-units="mm"
     showgrid="false"
     inkscape:zoom="0.34578127"
     inkscape:cx="-615.99635"
     inkscape:cy="-902.30451"
     inkscape:window-width="1366"
     inkscape:window-height="705"
     inkscape:window-x="-8"
     inkscape:window-y="-8"
     inkscape:window-maximized="1"
     inkscape:current-layer="layer1"
     showguides="true"><sodipodi:guide
       position="-704.29911,461.13845"
       orientation="1,0"
       id="guide25471"
       inkscape:locked="false" /><sodipodi:guide
       position="-699.55778,381.96831"
       orientation="1,0"
       id="guide25473"
       inkscape:locked="false" /><sodipodi:guide
       position="-344.4658,232.26564"
       orientation="1,0"
       id="guide35590"
       inkscape:locked="false" /><sodipodi:guide
       position="-349.20713,266.5537"
       orientation="1,0"
       id="guide38199"
       inkscape:locked="false" /></sodipodi:namedview><defs
     id="defs182336"><linearGradient
       id="linearGradient1057"
       x1="522.69"
       y1="412.73999"
       x2="908.96997"
       y2="799.01001"
       gradientTransform="matrix(-0.26458333,0,0,-0.26458333,266.89035,244.97243)"
       gradientUnits="userSpaceOnUse"><stop
         offset="0"
         stop-color="#fcee21"
         id="stop1061" /><stop
         offset="0.1"
         stop-color="#f7ec22"
         id="stop1063" /><stop
         offset="0.22"
         stop-color="#e7e624"
         id="stop1065" /><stop
         offset="0.36"
         stop-color="#cedd28"
         id="stop1067" /><stop
         offset="0.51"
         stop-color="#aad02d"
         id="stop1069" /><stop
         offset="0.67"
         stop-color="#7cbf33"
         id="stop1071" /><stop
         offset="0.83"
         stop-color="#45ab3b"
         id="stop1073" /><stop
         offset="0.99"
         stop-color="#049344"
         id="stop1075" /><stop
         offset="1"
         stop-color="#009245"
         id="stop1077" /></linearGradient><linearGradient
       inkscape:collect="always"
       xlink:href="#linearGradient1057"
       id="linearGradient198911"
       gradientUnits="userSpaceOnUse"
       gradientTransform="matrix(13.538845,0,0,13.538845,-2625.6978,-4130.266)"
       x1="413.80301"
       y1="291.04166"
       x2="118.47618"
       y2="291.04166" /><linearGradient
       inkscape:collect="always"
       xlink:href="#linearGradient1057"
       id="linearGradient478189"
       gradientUnits="userSpaceOnUse"
       gradientTransform="matrix(1.6425514,0,0,1.6425514,352.95802,-164.19644)"
       x1="413.80301"
       y1="291.04166"
       x2="118.47618"
       y2="291.04166" /><linearGradient
       inkscape:collect="always"
       xlink:href="#linearGradient1057"
       id="linearGradient653602"
       gradientUnits="userSpaceOnUse"
       gradientTransform="matrix(1.2985426,0,0,1.2985426,458.15644,-56.374736)"
       x1="413.80301"
       y1="291.04166"
       x2="118.47618"
       y2="291.04166" /><linearGradient
       inkscape:collect="always"
       xlink:href="#linearGradient1057"
       id="linearGradient741566"
       gradientUnits="userSpaceOnUse"
       gradientTransform="matrix(1.2985426,0,0,1.2985426,649.52306,-458.3974)"
       x1="413.80301"
       y1="291.04166"
       x2="118.47618"
       y2="291.04166" /><linearGradient
       inkscape:collect="always"
       xlink:href="#linearGradient1057"
       id="linearGradient818934"
       gradientUnits="userSpaceOnUse"
       gradientTransform="matrix(1.2985426,0,0,1.2985426,457.45349,-153.39616)"
       x1="413.80301"
       y1="291.04166"
       x2="118.47618"
       y2="291.04166" /><linearGradient
       inkscape:collect="always"
       xlink:href="#linearGradient1057"
       id="linearGradient892145"
       gradientUnits="userSpaceOnUse"
       gradientTransform="matrix(1.2985426,0,0,1.2985426,458.15644,-154.90639)"
       x1="413.80301"
       y1="291.04166"
       x2="118.47618"
       y2="291.04166" /><linearGradient
       inkscape:collect="always"
       xlink:href="#linearGradient1057"
       id="linearGradient1018698"
       gradientUnits="userSpaceOnUse"
       gradientTransform="matrix(1.2985426,0,0,1.2985426,453.34098,-54.508543)"
       x1="413.80301"
       y1="291.04166"
       x2="118.47618"
       y2="291.04166" /></defs><g
     inkscape:label="ios-home"
     inkscape:groupmode="layer"
     id="layer1"
     style="display:inline"
     transform="translate(-788.96579,-501.24246)"><g
       id="g17457"
       transform="translate(-27.07802,-98.932469)"><g
         id="g17239"
         transform="translate(-81.996607,14.960725)"><path
           d="m 901.58584,586.33869 v -1.12447 h -3.54542 v 7.72583 h 3.54542 v -1.12448 c -0.72628,0 -1.42282,-0.28853 -1.93637,-0.80208 -0.51356,-0.51356 -0.80207,-1.21007 -0.80207,-1.93635 0,-0.72629 0.28851,-1.42283 0.80207,-1.93637 0.51355,-0.51356 1.21009,-0.80208 1.93637,-0.80208 z"
           class="ccustom"
           fill="#394149"
           style="stroke-width:0.264583"
           data-darkreader-inline-fill=""
           id="path17186" /><path
           d="m 901.58584,586.33869 v 5.47688 c 0.72628,0 1.42282,-0.28853 1.93638,-0.80208 0.51356,-0.51356 0.80206,-1.21007 0.80206,-1.93635 0,-0.72629 -0.2885,-1.42283 -0.80206,-1.93637 -0.51356,-0.51356 -1.2101,-0.80208 -1.93638,-0.80208 z"
           class="ccustom"
           fill="#394149"
           style="stroke-width:0.264583"
           data-darkreader-inline-fill=""
           id="path17188" /><path
           d="m 906.31394,587.02661 h 0.79375 v 3.82323 h -0.79375 z"
           class="ccustom"
           fill="#394149"
           style="stroke-width:0.264583"
           data-darkreader-inline-fill=""
           id="path17190" /><path
           d="m 907.55219,589.54016 c 0,-0.27506 0.0817,-0.54393 0.23466,-0.77253 0.15299,-0.2286 0.37039,-0.40664 0.62468,-0.51155 0.2543,-0.10488 0.53399,-0.13192 0.80365,-0.0777 0.26966,0.0542 0.51715,0.18732 0.71109,0.38237 0.19394,0.19508 0.32563,0.44331 0.37833,0.71329 0.0527,0.26999 0.024,0.54952 -0.0823,0.8032 -0.10636,0.25366 -0.28562,0.47006 -0.51509,0.62172 -0.22947,0.15168 -0.49882,0.2318 -0.77388,0.23024 -0.18243,10e-4 -0.36333,-0.0336 -0.53205,-0.103 -0.16873,-0.0694 -0.32192,-0.1718 -0.45056,-0.30115 -0.12864,-0.12938 -0.23014,-0.28316 -0.29858,-0.45228 -0.0684,-0.16912 -0.1024,-0.3502 -0.0999,-0.53263 z m 1.98967,0 c -0.003,-0.11859 -0.0411,-0.23363 -0.1093,-0.33071 -0.0682,-0.0971 -0.16341,-0.17195 -0.2739,-0.21518 -0.11046,-0.0432 -0.23121,-0.053 -0.34716,-0.0279 -0.11596,0.025 -0.22195,0.0837 -0.30474,0.16867 -0.0828,0.085 -0.1387,0.19243 -0.16071,0.30901 -0.022,0.11657 -0.009,0.23704 0.0369,0.34634 0.0461,0.1093 0.12337,0.20262 0.22222,0.26821 0.0988,0.0656 0.21479,0.10062 0.33343,0.10067 0.0808,0.002 0.161,-0.0135 0.23567,-0.0444 0.0747,-0.0308 0.14216,-0.0767 0.19827,-0.13483 0.0561,-0.0581 0.0996,-0.12719 0.12788,-0.20286 0.0282,-0.0757 0.0405,-0.15639 0.0361,-0.23706 z"
           class="ccustom"
           fill="#394149"
           style="stroke-width:0.264583"
           data-darkreader-inline-fill=""
           id="path17192" /><path
           d="m 913.45505,588.23047 v 2.48973 c 0,0.87841 -0.68792,1.25148 -1.38377,1.25148 -0.24546,0.0201 -0.49165,-0.0286 -0.71086,-0.14081 -0.21923,-0.11219 -0.4028,-0.28335 -0.53004,-0.49419 l 0.6694,-0.38629 c 0.0542,0.10937 0.14052,0.1996 0.24736,0.25868 0.10684,0.0591 0.22913,0.0842 0.3506,0.072 0.0774,0.01 0.15591,0.002 0.22997,-0.0225 0.0741,-0.0244 0.14184,-0.0648 0.19847,-0.11837 0.0566,-0.0536 0.10072,-0.11904 0.12911,-0.19166 0.0284,-0.0726 0.0404,-0.1506 0.0351,-0.22839 v -0.24077 c -0.0924,0.11199 -0.20957,0.20089 -0.34229,0.25969 -0.13274,0.0588 -0.27734,0.0858 -0.42235,0.079 -0.35087,0 -0.68734,-0.13938 -0.93544,-0.38748 -0.2481,-0.24807 -0.38748,-0.58457 -0.38748,-0.93543 0,-0.35087 0.13938,-0.68734 0.38748,-0.93544 0.2481,-0.2481 0.58457,-0.38748 0.93544,-0.38748 0.14501,-0.007 0.28961,0.0202 0.42235,0.079 0.13272,0.0588 0.24993,0.14769 0.34229,0.25969 v -0.26459 z m -0.76465,1.25677 c 0.005,-0.12658 -0.0274,-0.25186 -0.0939,-0.3597 -0.0665,-0.10785 -0.1637,-0.19333 -0.27919,-0.24548 -0.11547,-0.0521 -0.24387,-0.0686 -0.36875,-0.0471 -0.12486,0.0214 -0.24048,0.0797 -0.33195,0.16737 -0.0915,0.0877 -0.15462,0.20069 -0.18134,0.32454 -0.0267,0.12385 -0.0158,0.25283 0.0314,0.37042 0.0472,0.11758 0.12848,0.21836 0.23338,0.28937 0.10494,0.071 0.22871,0.10904 0.35539,0.10914 0.0827,0.006 0.16568,-0.005 0.24363,-0.0336 0.078,-0.0281 0.1492,-0.0723 0.20902,-0.12965 0.0598,-0.0573 0.107,-0.1266 0.13841,-0.2033 0.0314,-0.0767 0.0464,-0.15915 0.0439,-0.24199 z"
           class="ccustom"
           fill="#394149"
           style="stroke-width:0.264583"
           data-darkreader-inline-fill=""
           id="path17194" /><path
           d="m 913.90219,589.54016 c 0,-0.27485 0.0815,-0.54351 0.23429,-0.77201 0.15275,-0.22849 0.36984,-0.40653 0.62381,-0.51157 0.25397,-0.10506 0.5334,-0.13242 0.80293,-0.0786 0.26953,0.0538 0.51702,0.18637 0.7112,0.38089 0.19415,0.19455 0.32623,0.4423 0.37952,0.71191 0.0533,0.26964 0.0254,0.54901 -0.0801,0.80278 -0.10554,0.25378 -0.284,0.47053 -0.51276,0.62285 -0.22878,0.15232 -0.4976,0.23334 -0.77245,0.23281 -0.18277,0.002 -0.36409,-0.033 -0.53327,-0.10218 -0.16917,-0.0692 -0.32284,-0.17151 -0.45196,-0.30089 -0.12914,-0.12938 -0.23114,-0.28323 -0.30004,-0.45254 -0.0689,-0.16931 -0.10326,-0.35068 -0.10115,-0.53345 z m 1.98967,0 c -0.003,-0.1187 -0.0412,-0.23384 -0.10948,-0.331 -0.0683,-0.0971 -0.1637,-0.17198 -0.27432,-0.21513 -0.11063,-0.0431 -0.23151,-0.0527 -0.34753,-0.0274 -0.11602,0.0252 -0.22202,0.0842 -0.3047,0.16941 -0.0827,0.0852 -0.13838,0.19297 -0.16007,0.3097 -0.0217,0.11673 -0.009,0.23728 0.038,0.34652 0.0465,0.10928 0.12419,0.20238 0.22338,0.26768 0.0992,0.0653 0.2154,0.0999 0.33415,0.0994 0.0808,0.002 0.161,-0.0135 0.23566,-0.0444 0.0747,-0.0308 0.14216,-0.0767 0.19828,-0.13483 0.0561,-0.0581 0.0996,-0.12719 0.12787,-0.20286 0.0282,-0.0757 0.0405,-0.15639 0.0361,-0.23706 z"
           class="ccustom"
           fill="#394149"
           style="stroke-width:0.264583"
           data-darkreader-inline-fill=""
           id="path17196" /><path
           d="m 917.0428,587.52932 c 0,-0.0931 0.0276,-0.1842 0.0794,-0.26164 0.0518,-0.0775 0.12531,-0.13782 0.21135,-0.17347 0.0861,-0.0356 0.18077,-0.045 0.27213,-0.0268 0.0913,0.0182 0.17526,0.063 0.24114,0.12889 0.0658,0.0659 0.1107,0.1498 0.12888,0.24113 0.0182,0.0914 0.009,0.18606 -0.0268,0.27213 -0.0356,0.086 -0.096,0.15959 -0.17346,0.21135 -0.0774,0.0517 -0.16848,0.0794 -0.26164,0.0794 -0.12449,-10e-4 -0.24347,-0.0514 -0.3315,-0.13946 -0.088,-0.088 -0.13809,-0.20701 -0.13946,-0.3315 z m 0.0767,0.70115 h 0.79375 v 2.61937 h -0.79375 z"
           class="ccustom"
           fill="#394149"
           style="stroke-width:0.264583"
           data-darkreader-inline-fill=""
           id="path17198" /><path
           d="m 921.31053,589.54016 c 0.009,0.1742 -0.0168,0.34845 -0.0755,0.51271 -0.0587,0.16425 -0.14931,0.31527 -0.2666,0.44436 -0.11731,0.12912 -0.25897,0.23374 -0.41687,0.30787 -0.15788,0.0741 -0.32888,0.11631 -0.50314,0.12412 -0.14787,0.01 -0.29606,-0.0138 -0.43349,-0.0693 -0.13745,-0.0555 -0.26059,-0.14121 -0.36026,-0.25088 v 1.29382 h -0.79375 v -3.67242 h 0.79375 v 0.24606 c 0.0998,-0.10935 0.22305,-0.19471 0.3605,-0.24969 0.13745,-0.055 0.28556,-0.0782 0.43325,-0.0678 0.17357,0.008 0.34388,0.0497 0.50123,0.12338 0.15735,0.0736 0.29866,0.17756 0.41585,0.3058 0.11721,0.12825 0.20799,0.27832 0.26717,0.44167 0.0592,0.16333 0.0856,0.33671 0.0778,0.51028 z m -0.79375,0 c -0.003,-0.1229 -0.0425,-0.24212 -0.11306,-0.34275 -0.0706,-0.10062 -0.16933,-0.17819 -0.28382,-0.22293 -0.11448,-0.0448 -0.23963,-0.0547 -0.35978,-0.0287 -0.12012,0.0261 -0.22987,0.087 -0.31551,0.17521 -0.0856,0.0882 -0.14335,0.19968 -0.16587,0.32054 -0.0225,0.12084 -0.009,0.24564 0.0392,0.35878 0.0481,0.11311 0.12851,0.20952 0.23117,0.27715 0.10266,0.0676 0.22299,0.10342 0.34592,0.10295 0.0842,0.004 0.16819,-0.0107 0.24648,-0.0419 0.0783,-0.0312 0.14915,-0.0785 0.20786,-0.13899 0.0587,-0.0604 0.10395,-0.13266 0.13282,-0.21182 0.0289,-0.0792 0.0406,-0.16357 0.0346,-0.24762 z"
           class="ccustom"
           fill="#394149"
           style="stroke-width:0.264583"
           data-darkreader-inline-fill=""
           id="path17200" /><path
           d="m 923.72617,590.06403 c 0,0.60325 -0.52916,0.8599 -1.09008,0.8599 -0.22879,0.0206 -0.45847,-0.0279 -0.65939,-0.13923 -0.20093,-0.11131 -0.36386,-0.28032 -0.46774,-0.48519 l 0.68263,-0.38629 c 0.027,0.0944 0.0857,0.17666 0.16611,0.23302 0.0804,0.0563 0.17777,0.0834 0.27574,0.0765 0.18786,0 0.28311,-0.0582 0.28311,-0.16404 0,-0.2884 -1.28852,-0.13494 -1.28852,-1.04246 0,-0.5715 0.48154,-0.85725 1.02658,-0.85725 0.20717,-0.009 0.41302,0.0377 0.5956,0.13602 0.18262,0.0983 0.3352,0.24421 0.44157,0.42225 l -0.68263,0.35984 c -0.0302,-0.0683 -0.0794,-0.12632 -0.14187,-0.16717 -0.0625,-0.0409 -0.13541,-0.0627 -0.21002,-0.063 -0.13759,0 -0.21961,0.0529 -0.21961,0.14552 0,0.30162 1.28852,0.10319 1.28852,1.07156 z"
           class="ccustom"
           fill="#394149"
           style="stroke-width:0.264583"
           data-darkreader-inline-fill=""
           id="path17202" /><path
           d="m 926.60219,588.23047 v 2.61937 h -0.79375 v -0.24606 c -0.0902,0.10893 -0.20478,0.1951 -0.33416,0.25165 -0.12965,0.0565 -0.27067,0.0818 -0.41196,0.0738 -0.52917,0 -0.98161,-0.37836 -0.98161,-1.08479 v -1.61396 h 0.79375 v 1.49489 c -0.006,0.0625 10e-4,0.1256 0.0217,0.18497 0.0206,0.0593 0.0537,0.11354 0.0971,0.15883 0.0437,0.0453 0.0966,0.0806 0.15505,0.10346 0.0585,0.0229 0.12118,0.0327 0.18388,0.029 0.28575,0 0.48684,-0.16933 0.48684,-0.52916 v -1.44198 z"
           class="ccustom"
           fill="#394149"
           style="stroke-width:0.264583"
           data-darkreader-inline-fill=""
           id="path17204" /><path
           d="m 931.10011,589.24118 v 1.60866 h -0.79375 v -1.53987 c 0,-0.26458 -0.12435,-0.42863 -0.37571,-0.42863 -0.25135,0 -0.4101,0.18257 -0.4101,0.49213 v 1.47637 h -0.79375 v -1.53987 c 0,-0.26458 -0.12436,-0.42863 -0.37571,-0.42863 -0.25135,0 -0.4101,0.18257 -0.4101,0.49213 v 1.47637 h -0.79375 v -2.61937 h 0.79375 v 0.24077 c 0.0823,-0.10636 0.18944,-0.19061 0.31247,-0.24511 0.12277,-0.0545 0.25744,-0.0776 0.39132,-0.0671 0.13414,-0.007 0.26802,0.021 0.38814,0.0813 0.12012,0.0603 0.22252,0.15082 0.29713,0.26263 0.0873,-0.11684 0.20267,-0.20966 0.33549,-0.2698 0.13256,-0.0602 0.27861,-0.0857 0.42386,-0.0742 0.61913,0 1.01071,0.42863 1.01071,1.08215 z"
           class="ccustom"
           fill="#394149"
           style="stroke-width:0.264583"
           data-darkreader-inline-fill=""
           id="path17206" /><path
           d="m 931.76686,588.21459 c 0.32147,0 0.58208,-0.26061 0.58208,-0.58208 0,-0.32147 -0.26061,-0.58208 -0.58208,-0.58208 -0.32147,0 -0.58208,0.26061 -0.58208,0.58208 0,0.32147 0.26061,0.58208 0.58208,0.58208 z"
           class="ccustom"
           fill="#394149"
           style="stroke-width:0.264583"
           data-darkreader-inline-fill=""
           id="path17208" /></g></g></g></svg>
