<?xml version="1.0" encoding="UTF-8" standalone="no"?>
<!-- Created with Inkscape (http://www.inkscape.org/) -->

<svg
   xml:space="preserve"
   sodipodi:docname="mockup.svg"
   inkscape:version="1.2.1 (9c6d41e410, 2022-07-14)"
   id="svg182339"
   version="1.1"
   viewBox="0 0 24.340485 11.90625"
   height="45"
   width="91.995537"
   xmlns:inkscape="http://www.inkscape.org/namespaces/inkscape"
   xmlns:sodipodi="http://sodipodi.sourceforge.net/DTD/sodipodi-0.dtd"
   xmlns:xlink="http://www.w3.org/1999/xlink"
   xmlns="http://www.w3.org/2000/svg"
   xmlns:svg="http://www.w3.org/2000/svg"><sodipodi:namedview
     id="namedview182341"
     pagecolor="#505050"
     bordercolor="#eeeeee"
     borderopacity="1"
     inkscape:showpageshadow="0"
     inkscape:pageopacity="0"
     inkscape:pagecheckerboard="0"
     inkscape:deskcolor="#505050"
     inkscape:document-units="mm"
     showgrid="false"
     inkscape:zoom="0.34578127"
     inkscape:cx="-615.99635"
     inkscape:cy="-902.30451"
     inkscape:window-width="1366"
     inkscape:window-height="705"
     inkscape:window-x="-8"
     inkscape:window-y="-8"
     inkscape:window-maximized="1"
     inkscape:current-layer="layer1"
     showguides="true"><sodipodi:guide
       position="-704.36166,489.74555"
       orientation="1,0"
       id="guide25471"
       inkscape:locked="false" /><sodipodi:guide
       position="-699.62033,410.57541"
       orientation="1,0"
       id="guide25473"
       inkscape:locked="false" /><sodipodi:guide
       position="-344.52836,260.87274"
       orientation="1,0"
       id="guide35590"
       inkscape:locked="false" /><sodipodi:guide
       position="-349.26969,295.1608"
       orientation="1,0"
       id="guide38199"
       inkscape:locked="false" /></sodipodi:namedview><defs
     id="defs182336"><linearGradient
       id="linearGradient1057"
       x1="522.69"
       y1="412.73999"
       x2="908.96997"
       y2="799.01001"
       gradientTransform="matrix(-0.26458333,0,0,-0.26458333,266.89035,244.97243)"
       gradientUnits="userSpaceOnUse"><stop
         offset="0"
         stop-color="#fcee21"
         id="stop1061" /><stop
         offset="0.1"
         stop-color="#f7ec22"
         id="stop1063" /><stop
         offset="0.22"
         stop-color="#e7e624"
         id="stop1065" /><stop
         offset="0.36"
         stop-color="#cedd28"
         id="stop1067" /><stop
         offset="0.51"
         stop-color="#aad02d"
         id="stop1069" /><stop
         offset="0.67"
         stop-color="#7cbf33"
         id="stop1071" /><stop
         offset="0.83"
         stop-color="#45ab3b"
         id="stop1073" /><stop
         offset="0.99"
         stop-color="#049344"
         id="stop1075" /><stop
         offset="1"
         stop-color="#009245"
         id="stop1077" /></linearGradient><linearGradient
       inkscape:collect="always"
       xlink:href="#linearGradient1057"
       id="linearGradient198911"
       gradientUnits="userSpaceOnUse"
       gradientTransform="matrix(13.538845,0,0,13.538845,-2625.6978,-4130.266)"
       x1="413.80301"
       y1="291.04166"
       x2="118.47618"
       y2="291.04166" /><linearGradient
       inkscape:collect="always"
       xlink:href="#linearGradient1057"
       id="linearGradient478189"
       gradientUnits="userSpaceOnUse"
       gradientTransform="matrix(1.6425514,0,0,1.6425514,352.95802,-164.19644)"
       x1="413.80301"
       y1="291.04166"
       x2="118.47618"
       y2="291.04166" /><linearGradient
       inkscape:collect="always"
       xlink:href="#linearGradient1057"
       id="linearGradient653602"
       gradientUnits="userSpaceOnUse"
       gradientTransform="matrix(1.2985426,0,0,1.2985426,458.15644,-56.374736)"
       x1="413.80301"
       y1="291.04166"
       x2="118.47618"
       y2="291.04166" /><linearGradient
       inkscape:collect="always"
       xlink:href="#linearGradient1057"
       id="linearGradient741566"
       gradientUnits="userSpaceOnUse"
       gradientTransform="matrix(1.2985426,0,0,1.2985426,649.52306,-458.3974)"
       x1="413.80301"
       y1="291.04166"
       x2="118.47618"
       y2="291.04166" /><linearGradient
       inkscape:collect="always"
       xlink:href="#linearGradient1057"
       id="linearGradient818934"
       gradientUnits="userSpaceOnUse"
       gradientTransform="matrix(1.2985426,0,0,1.2985426,457.45349,-153.39616)"
       x1="413.80301"
       y1="291.04166"
       x2="118.47618"
       y2="291.04166" /><linearGradient
       inkscape:collect="always"
       xlink:href="#linearGradient1057"
       id="linearGradient892145"
       gradientUnits="userSpaceOnUse"
       gradientTransform="matrix(1.2985426,0,0,1.2985426,458.15644,-154.90639)"
       x1="413.80301"
       y1="291.04166"
       x2="118.47618"
       y2="291.04166" /><linearGradient
       inkscape:collect="always"
       xlink:href="#linearGradient1057"
       id="linearGradient1018698"
       gradientUnits="userSpaceOnUse"
       gradientTransform="matrix(1.2985426,0,0,1.2985426,453.34098,-54.508543)"
       x1="413.80301"
       y1="291.04166"
       x2="118.47618"
       y2="291.04166" /></defs><g
     inkscape:label="ios-home"
     inkscape:groupmode="layer"
     id="layer1"
     style="display:inline"
     transform="translate(-789.02835,-525.66914)"><g
       id="g17413"
       transform="translate(-7.8439999,-98.932469)"><g
         id="g17314"
         transform="translate(-18.366483,-25.652525)"><path
           d="m 821.07989,656.09525 0.0525,-0.0111 h 4.37044 l 1.64224,1.64224 h -4.43405 z"
           class="ccustom"
           fill="#000000"
           style="stroke-width:0.264583"
           data-darkreader-inline-fill=""
           id="path17241" /><path
           d="m 819.67292,656.08411 -4.43408,3e-5 1.64224,1.64224 h 2.79178 z"
           class="ccustom"
           fill="#000000"
           style="stroke-width:0.264583"
           data-darkreader-inline-fill=""
           id="path17243" /><path
           d="m 828.67121,651.36667 h 0.68107 v 2.11627 h 1.16974 v 0.57332 h -1.85081 z"
           class="ccustom"
           fill="#000000"
           style="stroke-width:0.264583"
           data-darkreader-inline-fill=""
           id="path17245" /><path
           d="m 831.75853,654.11397 c -0.22831,0 -0.42831,-0.041 -0.60031,-0.12314 -0.17185,-0.0846 -0.30523,-0.20005 -0.40016,-0.34628 -0.0924,-0.14878 -0.13854,-0.31936 -0.13854,-0.51176 0,-0.19238 0.0462,-0.36169 0.13854,-0.5079 0.0949,-0.14877 0.22831,-0.26421 0.40016,-0.34628 0.172,-0.0847 0.372,-0.12699 0.60031,-0.12699 0.22831,0 0.42846,0.0423 0.60031,0.12699 0.17182,0.0821 0.30393,0.19751 0.39627,0.34628 0.0949,0.14621 0.1424,0.31552 0.1424,0.5079 0,0.1924 -0.0475,0.36298 -0.1424,0.51176 -0.0923,0.14623 -0.22445,0.26164 -0.39627,0.34628 -0.17185,0.0821 -0.372,0.12314 -0.60031,0.12314 z m 0,-0.52713 c 0.13594,0 0.24376,-0.0398 0.32324,-0.11927 0.082,-0.0821 0.12308,-0.19368 0.12308,-0.33478 0,-0.14108 -0.041,-0.25138 -0.12308,-0.33092 -0.0795,-0.0821 -0.1873,-0.12311 -0.32324,-0.12311 -0.13597,0 -0.24487,0.041 -0.32711,0.12311 -0.0795,0.0795 -0.11922,0.18984 -0.11922,0.33092 0,0.1411 0.0397,0.25268 0.11922,0.33478 0.0822,0.0795 0.19114,0.11927 0.32711,0.11927 z"
           class="ccustom"
           fill="#000000"
           style="stroke-width:0.264583"
           data-darkreader-inline-fill=""
           id="path17247" /><path
           d="m 834.16952,654.94124 c -0.12309,0 -0.24747,-0.0115 -0.3733,-0.0346 -0.12309,-0.0231 -0.22942,-0.0539 -0.3192,-0.0923 v -0.46943 c 0.20257,0.0872 0.43344,0.13084 0.6925,0.13084 0.18727,0 0.32194,-0.0385 0.40399,-0.11546 0.0846,-0.0769 0.12695,-0.18979 0.12695,-0.33859 v -0.1116 c -0.0743,0.0641 -0.16666,0.11417 -0.27689,0.15007 -0.10779,0.0359 -0.22333,0.0539 -0.34642,0.0539 -0.19484,0 -0.36684,-0.041 -0.51549,-0.12314 -0.14885,-0.082 -0.26548,-0.19751 -0.3503,-0.34628 -0.082,-0.14878 -0.12306,-0.31936 -0.12306,-0.51176 0,-0.19495 0.041,-0.36682 0.12306,-0.5156 0.0822,-0.14877 0.19759,-0.26291 0.34644,-0.34245 0.14864,-0.0821 0.31938,-0.12312 0.51163,-0.12312 0.26437,0 0.48238,0.0808 0.6542,0.2424 v -0.18469 h 0.65405 v 1.71996 c 0,0.32065 -0.0986,0.56946 -0.2962,0.74647 -0.19502,0.17698 -0.49895,0.26548 -0.91196,0.26548 z m 0.0769,-1.35056 c 0.10525,0 0.19888,-0.0269 0.28093,-0.0808 0.082,-0.0539 0.13983,-0.12567 0.17312,-0.21547 v -0.32319 c -0.0359,-0.0898 -0.0949,-0.16034 -0.17698,-0.21164 -0.082,-0.0539 -0.17442,-0.0808 -0.27707,-0.0808 -0.13835,0 -0.25001,0.041 -0.33465,0.12311 -0.0846,0.0795 -0.12695,0.18857 -0.12695,0.32708 0,0.14108 0.0423,0.25395 0.12695,0.33862 0.0846,0.0821 0.1963,0.12311 0.33465,0.12311 z"
           class="ccustom"
           fill="#000000"
           style="stroke-width:0.264583"
           data-darkreader-inline-fill=""
           id="path17249" /><path
           d="m 836.68848,654.11397 c -0.22831,0 -0.42846,-0.041 -0.60031,-0.12314 -0.17182,-0.0846 -0.3052,-0.20005 -0.40013,-0.34628 -0.0924,-0.14878 -0.13853,-0.31936 -0.13853,-0.51176 0,-0.19238 0.0462,-0.36169 0.13853,-0.5079 0.0949,-0.14877 0.22831,-0.26421 0.40013,-0.34628 0.17185,-0.0847 0.372,-0.12699 0.60031,-0.12699 0.22831,0 0.42831,0.0423 0.60032,0.12699 0.17184,0.0821 0.30392,0.19751 0.39629,0.34628 0.0949,0.14621 0.1424,0.31552 0.1424,0.5079 0,0.1924 -0.0475,0.36298 -0.1424,0.51176 -0.0924,0.14623 -0.22445,0.26164 -0.39629,0.34628 -0.17201,0.0821 -0.37201,0.12314 -0.60032,0.12314 z m 0,-0.52713 c 0.13597,0 0.24361,-0.0398 0.32324,-0.11927 0.0821,-0.0821 0.12309,-0.19368 0.12309,-0.33478 0,-0.14108 -0.041,-0.25138 -0.12309,-0.33092 -0.0796,-0.0821 -0.18727,-0.12311 -0.32324,-0.12311 -0.13594,0 -0.24505,0.041 -0.3271,0.12311 -0.0795,0.0795 -0.11922,0.18984 -0.11922,0.33092 0,0.1411 0.0397,0.25268 0.11922,0.33478 0.082,0.0795 0.19116,0.11927 0.3271,0.11927 z"
           class="ccustom"
           fill="#000000"
           style="stroke-width:0.264583"
           data-darkreader-inline-fill=""
           id="path17251" /><path
           d="m 828.67121,655.04618 h 0.68107 v 2.68959 h -0.68107 z"
           class="ccustom"
           fill="#000000"
           style="stroke-width:0.264583"
           data-darkreader-inline-fill=""
           id="path17253" /><path
           d="m 829.69705,655.88885 h 0.65405 v 0.18468 c 0.17185,-0.16158 0.39005,-0.24239 0.65424,-0.24239 0.19225,0 0.36298,0.041 0.51162,0.12314 0.14883,0.0795 0.26419,0.19365 0.34642,0.34242 0.0821,0.14621 0.12309,0.31681 0.12309,0.51176 0,0.19238 -0.041,0.36425 -0.12309,0.51559 -0.0822,0.14878 -0.19759,0.26424 -0.34642,0.34629 -0.14607,0.0821 -0.31681,0.12314 -0.51162,0.12314 -0.12327,0 -0.24119,-0.0192 -0.35399,-0.0577 -0.11038,-0.0359 -0.20272,-0.0859 -0.27704,-0.15007 v 0.99274 h -0.67726 z m 1.13131,1.3775 c 0.13851,0 0.25,-0.041 0.33464,-0.12314 0.0846,-0.0821 0.12695,-0.19367 0.12695,-0.33475 0,-0.14108 -0.0423,-0.25138 -0.12695,-0.33092 -0.0846,-0.0821 -0.19613,-0.12311 -0.33464,-0.12311 -0.10266,0 -0.19502,0.0269 -0.27707,0.0808 -0.0821,0.0513 -0.14113,0.12184 -0.17698,0.21161 v 0.32705 c 0.0358,0.0898 0.0949,0.16161 0.17698,0.21548 0.082,0.0513 0.17441,0.077 0.27707,0.077 z"
           class="ccustom"
           fill="#000000"
           style="stroke-width:0.264583"
           data-darkreader-inline-fill=""
           id="path17255" /><path
           d="m 832.99612,657.79348 c -0.14886,0 -0.30411,-0.0154 -0.46564,-0.0462 -0.16153,-0.0282 -0.28996,-0.0692 -0.38471,-0.12311 v -0.49636 c 0.10504,0.0615 0.23072,0.11287 0.37698,0.15391 0.14883,0.0385 0.28477,0.0577 0.40786,0.0577 0.0898,0 0.15528,-0.006 0.19632,-0.0192 0.041,-0.0128 0.0614,-0.0385 0.0614,-0.077 0,-0.0308 -0.014,-0.0551 -0.0423,-0.0731 -0.0256,-0.0205 -0.0743,-0.0411 -0.14608,-0.0616 -0.0694,-0.0231 -0.15012,-0.0474 -0.24249,-0.0731 -0.15655,-0.0462 -0.27964,-0.0936 -0.36941,-0.14237 -0.0898,-0.0487 -0.1564,-0.11028 -0.2,-0.18468 -0.0436,-0.0744 -0.0655,-0.16804 -0.0655,-0.28091 0,-0.20005 0.0782,-0.34885 0.23473,-0.4463 0.15897,-0.10006 0.37587,-0.15007 0.65019,-0.15007 0.13338,0 0.27321,0.0141 0.41947,0.0423 0.14883,0.0282 0.26032,0.0654 0.33483,0.1116 v 0.48866 c -0.0771,-0.0513 -0.17957,-0.0936 -0.30779,-0.12698 -0.12583,-0.0333 -0.24379,-0.05 -0.35417,-0.05 -0.0872,0 -0.15507,0.009 -0.20383,0.0269 -0.0488,0.0154 -0.073,0.0436 -0.073,0.0847 0,0.0385 0.0243,0.068 0.073,0.0885 0.0488,0.0205 0.13596,0.0462 0.26162,0.077 0.082,0.0205 0.11681,0.0295 0.10392,0.0269 0.16412,0.0436 0.29107,0.0923 0.38084,0.14621 0.0898,0.0539 0.1527,0.118 0.18857,0.19241 0.0385,0.0718 0.0578,0.16414 0.0578,0.27701 0,0.17701 -0.0769,0.31811 -0.2309,0.42326 -0.15142,0.1026 -0.37201,0.15391 -0.66175,0.15391 z"
           class="ccustom"
           fill="#000000"
           style="stroke-width:0.264583"
           data-darkreader-inline-fill=""
           id="path17257" /><path
           d="m 834.8999,657.79348 c -0.25389,0 -0.44503,-0.0705 -0.57327,-0.21162 -0.12565,-0.1411 -0.18857,-0.32705 -0.18857,-0.55792 v -1.13509 h 0.67723 v 1.05812 c 0,0.21291 0.0962,0.31938 0.28847,0.31938 0.0874,0 0.16685,-0.0205 0.2386,-0.0616 0.0719,-0.041 0.13081,-0.10134 0.17698,-0.18084 v -1.13509 h 0.67723 v 1.84692 h -0.65405 v -0.2001 c -0.0795,0.0847 -0.17568,0.1488 -0.28866,0.1924 -0.11277,0.0436 -0.23088,0.0654 -0.35396,0.0654 z"
           class="ccustom"
           fill="#000000"
           style="stroke-width:0.264583"
           data-darkreader-inline-fill=""
           id="path17259" /><path
           d="m 836.54336,655.88885 h 0.62717 v 0.20007 c 0.0769,-0.0821 0.16539,-0.14491 0.26548,-0.18854 0.10007,-0.0462 0.20659,-0.0692 0.31938,-0.0692 0.13851,0 0.24892,0.0205 0.33097,0.0615 0.0846,0.0411 0.1525,0.10261 0.20383,0.18471 0.0769,-0.077 0.17055,-0.13724 0.28094,-0.18084 0.1102,-0.0436 0.22188,-0.0654 0.33464,-0.0654 0.24379,0 0.41691,0.0628 0.51956,0.18852 0.10266,0.12313 0.15399,0.30141 0.15399,0.53485 v 1.18126 h -0.64651 v -1.08506 c 0,-0.1026 -0.0193,-0.177 -0.0578,-0.2232 -0.0384,-0.0461 -0.10266,-0.0692 -0.19243,-0.0692 -0.11536,0 -0.20899,0.0411 -0.28075,0.12311 0.003,0.0436 0.004,0.11033 0.004,0.20011 v 1.05428 h -0.64649 v -1.11199 c 0,-0.0949 -0.0168,-0.1629 -0.0501,-0.20394 -0.0333,-0.041 -0.0923,-0.0616 -0.17698,-0.0616 -0.13081,0 -0.24376,0.0731 -0.3385,0.21931 v 1.15819 h -0.65035 z"
           class="ccustom"
           fill="#000000"
           style="stroke-width:0.264583"
           data-darkreader-inline-fill=""
           id="path17261" /><path
           d="m 821.13249,656.08414 -0.0526,0.0111 1.6311,1.63111 v 4.43404 h -1.39591 l -1.64225,-1.64224 h 1.39592 v -4.43407 h -1.39592 v -1.39586 h 1.39592 v -4.43408 l 1.64224,1.64224 v 2.79181 l -1.64224,3e-5 v 1.39586 z"
           class="ccompli1"
           fill="#555555"
           style="stroke-width:0.264583"
           data-darkreader-inline-fill=""
           id="path17263" /><path
           d="m 825.50291,656.08414 1.64224,1.64224 v -1.39592 l -1.64224,-1.64224 z"
           class="ccompli1"
           fill="#555555"
           style="stroke-width:0.264583"
           data-darkreader-inline-fill=""
           id="path17265" /><path
           d="m 828.76744,658.99826 h 0.99655 c 0.28213,0 0.50142,0.0667 0.658,0.2001 0.15893,0.13338 0.2386,0.33089 0.2386,0.59254 0,0.26421 -0.0784,0.46175 -0.23474,0.59258 -0.15658,0.13081 -0.37716,0.19622 -0.66186,0.19622 h -0.69643 v 1.10815 h -0.30012 z m 0.97348,1.32749 c 0.19241,0 0.34383,-0.0385 0.45403,-0.11544 0.11038,-0.0795 0.16539,-0.21931 0.16539,-0.41941 0,-0.20265 -0.055,-0.34245 -0.16539,-0.4194 -0.1102,-0.0795 -0.26162,-0.11927 -0.45403,-0.11927 h -0.67336 v 1.07352 z"
           class="ccompli1"
           fill="#555555"
           style="stroke-width:0.264583"
           data-darkreader-inline-fill=""
           id="path17267" /><path
           d="m 831.04455,658.84435 h 0.2962 v 2.8435 h -0.2962 z"
           class="ccompli1"
           fill="#555555"
           style="stroke-width:0.264583"
           data-darkreader-inline-fill=""
           id="path17269" /><path
           d="m 832.62525,661.74558 c -0.24633,0 -0.43619,-0.0667 -0.56959,-0.2001 -0.13081,-0.13338 -0.19611,-0.31165 -0.19611,-0.53483 v -1.16972 h 0.2962 v 1.18512 c 0,0.32322 0.16796,0.48482 0.50408,0.48482 0.14113,0 0.26419,-0.0308 0.36944,-0.0923 0.10763,-0.0616 0.20383,-0.15906 0.28847,-0.29244 v -1.28516 h 0.29639 v 1.84692 h -0.28866 v -0.27704 c -0.16669,0.22317 -0.40016,0.33477 -0.70022,0.33477 z"
           class="ccompli1"
           fill="#555555"
           style="stroke-width:0.264583"
           data-darkreader-inline-fill=""
           id="path17271" /><path
           d="m 834.79468,661.74558 c -0.12068,0 -0.25019,-0.018 -0.38873,-0.0539 -0.13854,-0.0334 -0.24617,-0.0757 -0.32324,-0.127 v -0.25009 c 0.0975,0.059 0.20918,0.10644 0.33483,0.14235 0.12822,0.0359 0.2513,0.0539 0.36941,0.0539 0.15896,0 0.27321,-0.0218 0.3424,-0.0654 0.0719,-0.0462 0.10779,-0.11414 0.10779,-0.20391 0,-0.0693 -0.0154,-0.12314 -0.0462,-0.16161 -0.0309,-0.0411 -0.082,-0.077 -0.15399,-0.10774 -0.0717,-0.0308 -0.18341,-0.0667 -0.33464,-0.10774 -0.14883,-0.041 -0.26805,-0.0834 -0.35785,-0.12697 -0.0872,-0.0462 -0.15399,-0.1039 -0.20016,-0.17317 -0.0462,-0.0692 -0.0692,-0.15775 -0.0692,-0.26548 0,-0.16674 0.0666,-0.29372 0.19997,-0.38092 0.13597,-0.0898 0.31552,-0.13468 0.53869,-0.13468 0.12049,0 0.23344,0.0115 0.33869,0.0346 0.10764,0.0205 0.19741,0.05 0.26935,0.0885 v 0.25008 c -0.0745,-0.041 -0.16431,-0.0731 -0.26935,-0.0962 -0.10525,-0.0256 -0.21433,-0.0385 -0.3271,-0.0385 -0.14885,0 -0.26162,0.0218 -0.33872,0.0654 -0.0769,0.0436 -0.11533,0.11416 -0.11533,0.21164 0,0.0667 0.0129,0.118 0.0384,0.1539 0.0283,0.0359 0.0782,0.0693 0.15013,0.10004 0.0743,0.0282 0.19243,0.0641 0.35396,0.10774 0.2309,0.0641 0.39113,0.13981 0.4809,0.22704 0.0924,0.0846 0.13854,0.20265 0.13854,0.35399 0,0.15645 -0.0614,0.27958 -0.18471,0.36938 -0.12049,0.0898 -0.30522,0.13467 -0.55395,0.13467 z"
           class="ccompli1"
           fill="#555555"
           style="stroke-width:0.264583"
           data-darkreader-inline-fill=""
           id="path17273" /></g></g></g></svg>
