<?xml version="1.0" encoding="UTF-8" standalone="no"?>
<!-- Created with Inkscape (http://www.inkscape.org/) -->

<svg
   xml:space="preserve"
   sodipodi:docname="mockup.svg"
   inkscape:version="1.2.1 (9c6d41e410, 2022-07-14)"
   id="svg182339"
   version="1.1"
   viewBox="0 0 32.639007 7.5379792"
   height="28.49"
   width="123.36003"
   xmlns:inkscape="http://www.inkscape.org/namespaces/inkscape"
   xmlns:sodipodi="http://sodipodi.sourceforge.net/DTD/sodipodi-0.dtd"
   xmlns:xlink="http://www.w3.org/1999/xlink"
   xmlns="http://www.w3.org/2000/svg"
   xmlns:svg="http://www.w3.org/2000/svg"><sodipodi:namedview
     id="namedview182341"
     pagecolor="#505050"
     bordercolor="#eeeeee"
     borderopacity="1"
     inkscape:showpageshadow="0"
     inkscape:pageopacity="0"
     inkscape:pagecheckerboard="0"
     inkscape:deskcolor="#505050"
     inkscape:document-units="mm"
     showgrid="false"
     inkscape:zoom="0.34578127"
     inkscape:cx="-615.99635"
     inkscape:cy="-902.30451"
     inkscape:window-width="1366"
     inkscape:window-height="705"
     inkscape:window-x="-8"
     inkscape:window-y="-8"
     inkscape:window-maximized="1"
     inkscape:current-layer="layer1"
     showguides="true"><sodipodi:guide
       position="-653.77756,461.04455"
       orientation="1,0"
       id="guide25471"
       inkscape:locked="false" /><sodipodi:guide
       position="-649.03623,381.87441"
       orientation="1,0"
       id="guide25473"
       inkscape:locked="false" /><sodipodi:guide
       position="-293.94425,232.17174"
       orientation="1,0"
       id="guide35590"
       inkscape:locked="false" /><sodipodi:guide
       position="-298.68558,266.4598"
       orientation="1,0"
       id="guide38199"
       inkscape:locked="false" /></sodipodi:namedview><defs
     id="defs182336"><linearGradient
       id="linearGradient1057"
       x1="522.69"
       y1="412.73999"
       x2="908.96997"
       y2="799.01001"
       gradientTransform="matrix(-0.26458333,0,0,-0.26458333,266.89035,244.97243)"
       gradientUnits="userSpaceOnUse"><stop
         offset="0"
         stop-color="#fcee21"
         id="stop1061" /><stop
         offset="0.1"
         stop-color="#f7ec22"
         id="stop1063" /><stop
         offset="0.22"
         stop-color="#e7e624"
         id="stop1065" /><stop
         offset="0.36"
         stop-color="#cedd28"
         id="stop1067" /><stop
         offset="0.51"
         stop-color="#aad02d"
         id="stop1069" /><stop
         offset="0.67"
         stop-color="#7cbf33"
         id="stop1071" /><stop
         offset="0.83"
         stop-color="#45ab3b"
         id="stop1073" /><stop
         offset="0.99"
         stop-color="#049344"
         id="stop1075" /><stop
         offset="1"
         stop-color="#009245"
         id="stop1077" /></linearGradient><linearGradient
       inkscape:collect="always"
       xlink:href="#linearGradient1057"
       id="linearGradient198911"
       gradientUnits="userSpaceOnUse"
       gradientTransform="matrix(13.538845,0,0,13.538845,-2625.6978,-4130.266)"
       x1="413.80301"
       y1="291.04166"
       x2="118.47618"
       y2="291.04166" /><linearGradient
       inkscape:collect="always"
       xlink:href="#linearGradient1057"
       id="linearGradient478189"
       gradientUnits="userSpaceOnUse"
       gradientTransform="matrix(1.6425514,0,0,1.6425514,352.95802,-164.19644)"
       x1="413.80301"
       y1="291.04166"
       x2="118.47618"
       y2="291.04166" /><linearGradient
       inkscape:collect="always"
       xlink:href="#linearGradient1057"
       id="linearGradient653602"
       gradientUnits="userSpaceOnUse"
       gradientTransform="matrix(1.2985426,0,0,1.2985426,458.15644,-56.374736)"
       x1="413.80301"
       y1="291.04166"
       x2="118.47618"
       y2="291.04166" /><linearGradient
       inkscape:collect="always"
       xlink:href="#linearGradient1057"
       id="linearGradient741566"
       gradientUnits="userSpaceOnUse"
       gradientTransform="matrix(1.2985426,0,0,1.2985426,649.52306,-458.3974)"
       x1="413.80301"
       y1="291.04166"
       x2="118.47618"
       y2="291.04166" /><linearGradient
       inkscape:collect="always"
       xlink:href="#linearGradient1057"
       id="linearGradient818934"
       gradientUnits="userSpaceOnUse"
       gradientTransform="matrix(1.2985426,0,0,1.2985426,457.45349,-153.39616)"
       x1="413.80301"
       y1="291.04166"
       x2="118.47618"
       y2="291.04166" /><linearGradient
       inkscape:collect="always"
       xlink:href="#linearGradient1057"
       id="linearGradient892145"
       gradientUnits="userSpaceOnUse"
       gradientTransform="matrix(1.2985426,0,0,1.2985426,458.15644,-154.90639)"
       x1="413.80301"
       y1="291.04166"
       x2="118.47618"
       y2="291.04166" /><linearGradient
       inkscape:collect="always"
       xlink:href="#linearGradient1057"
       id="linearGradient1018698"
       gradientUnits="userSpaceOnUse"
       gradientTransform="matrix(1.2985426,0,0,1.2985426,453.34098,-54.508543)"
       x1="413.80301"
       y1="291.04166"
       x2="118.47618"
       y2="291.04166" /></defs><g
     inkscape:label="ios-home"
     inkscape:groupmode="layer"
     id="layer1"
     style="display:inline"
     transform="translate(-738.44424,-501.33641)"><g
       id="g17457"
       transform="translate(-27.07802,-98.932469)"><g
         id="g17361"
         transform="translate(-41.992313,24.09678)"><path
           d="m 814.53135,578.61948 c 0.0953,0 0.127,0.0344 0.127,0.127 v 2.0955 h 1.07686 c 0.0926,0 0.127,0.0344 0.127,0.127 v 0.18521 c 0,0.0926 -0.0344,0.127 -0.127,0.127 h -1.41817 c -0.0926,0 -0.12964,-0.0344 -0.12964,-0.127 v -2.40771 c 0,-0.0926 0.037,-0.127 0.12964,-0.127 z"
           class="ccustom"
           fill="#394149"
           style="stroke-width:0.264583"
           data-darkreader-inline-fill=""
           id="path17316" /><path
           d="m 816.80148,579.54288 c 0,-0.61119 0.38629,-0.97896 1.05833,-0.97896 0.67204,0 1.05834,0.36777 1.05834,0.97896 v 0.81491 c 0,0.61119 -0.38894,0.97896 -1.05834,0.97896 -0.66939,0 -1.05833,-0.36777 -1.05833,-0.97896 z m 1.67217,0 c 0,-0.34396 -0.21432,-0.52917 -0.60061,-0.52917 -0.38629,0 -0.59796,0.18786 -0.59796,0.52917 v 0.82021 c 0,0.3466 0.21167,0.52916 0.59796,0.52916 0.38629,0 0.60061,-0.1905 0.60061,-0.52916 z"
           class="ccustom"
           fill="#394149"
           style="stroke-width:0.264583"
           data-darkreader-inline-fill=""
           id="path17318" /><path
           d="m 822.06933,579.82334 c 0.10319,0 0.127,0.0344 0.127,0.127 v 0.5027 c 0.003,0.11841 -0.0209,0.23596 -0.0694,0.34399 -0.0485,0.10805 -0.12062,0.20386 -0.21101,0.28043 -0.22444,0.17873 -0.50744,0.26739 -0.79375,0.24871 -0.68527,0 -1.05833,-0.36777 -1.05833,-0.97896 V 579.527 c 0,-0.60325 0.38629,-0.97366 1.05833,-0.97366 0.52917,0 0.87313,0.20902 1.01865,0.62706 0.008,0.0157 0.0125,0.0331 0.0127,0.0508 2.4e-4,0.0177 -0.004,0.0352 -0.0113,0.0511 -0.008,0.0159 -0.019,0.0298 -0.033,0.0406 -0.014,0.0108 -0.0304,0.0181 -0.0477,0.0215 l -0.20638,0.0714 c -0.09,0.0317 -0.127,0.0132 -0.15875,-0.0794 -0.0438,-0.113 -0.12409,-0.2082 -0.22807,-0.27048 -0.10398,-0.0623 -0.22574,-0.0882 -0.34608,-0.0735 -0.38893,0 -0.6006,0.18786 -0.6006,0.52917 v 0.84138 c 0,0.3466 0.21431,0.52916 0.6006,0.52916 0.3863,0 0.62442,-0.17727 0.62442,-0.43656 v -0.19579 h -0.57414 c -0.0953,0 -0.12965,-0.037 -0.12965,-0.12965 v -0.17991 c 0,-0.0926 0.0344,-0.127 0.12965,-0.127 z"
           class="ccustom"
           fill="#394149"
           style="stroke-width:0.264583"
           data-darkreader-inline-fill=""
           id="path17320" /><path
           d="m 823.28906,579.54288 c 0,-0.61119 0.38629,-0.97896 1.05834,-0.97896 0.67204,0 1.05833,0.36777 1.05833,0.97896 v 0.81491 c 0,0.61119 -0.38894,0.97896 -1.05833,0.97896 -0.6694,0 -1.05834,-0.36777 -1.05834,-0.97896 z m 1.66952,0 c 0,-0.34396 -0.21431,-0.52917 -0.59796,-0.52917 -0.38364,0 -0.6006,0.18786 -0.6006,0.52917 v 0.82021 c 0,0.3466 0.21431,0.52916 0.6006,0.52916 0.3863,0 0.59796,-0.1905 0.59796,-0.52916 z"
           class="ccustom"
           fill="#394149"
           style="stroke-width:0.264583"
           data-darkreader-inline-fill=""
           id="path17322" /><path
           d="m 826.65192,578.69621 c 0,-0.0582 0.0185,-0.0767 0.0767,-0.0767 h 0.1217 c 0.0582,0 0.0714,0.0185 0.0714,0.0767 v 2.50825 c 0,0.0582 0,0.0767 -0.0714,0.0767 h -0.1217 c -0.0582,0 -0.0767,-0.0185 -0.0767,-0.0767 z"
           class="ccustom"
           fill="#394149"
           style="stroke-width:0.264583"
           data-darkreader-inline-fill=""
           id="path17324" /><path
           d="m 829.33215,578.61948 c 0.22034,0 0.43164,0.0875 0.58745,0.24334 0.15581,0.15579 0.24334,0.36711 0.24334,0.58745 0,0.22035 -0.0875,0.43167 -0.24334,0.58746 -0.15581,0.15581 -0.36711,0.24334 -0.58745,0.24334 h -0.79375 v 0.92339 c 0,0.0582 -0.0132,0.0767 -0.0688,0.0767 h -0.12435 c -0.0556,0 -0.0767,-0.0185 -0.0767,-0.0767 v -2.50825 c 0,-0.0582 0.0212,-0.0767 0.0767,-0.0767 z m -0.0238,1.39965 c 0.0758,0 0.15076,-0.0149 0.22074,-0.0439 0.07,-0.029 0.13357,-0.0715 0.18712,-0.12504 0.0535,-0.0535 0.096,-0.11716 0.12504,-0.18711 0.029,-0.07 0.0439,-0.14499 0.0439,-0.22074 0,-0.0757 -0.0149,-0.15076 -0.0439,-0.22075 -0.029,-0.0699 -0.0715,-0.13356 -0.12504,-0.18711 -0.0535,-0.0536 -0.11716,-0.096 -0.18712,-0.12504 -0.07,-0.029 -0.14499,-0.0439 -0.22074,-0.0439 h -0.79375 v 1.15359 z"
           class="ccustom"
           fill="#394149"
           style="stroke-width:0.264583"
           data-darkreader-inline-fill=""
           id="path17326" /><path
           d="m 832.22933,578.56657 c 0.20429,-0.0225 0.41037,0.0214 0.5877,0.1253 0.17721,0.10393 0.31638,0.26226 0.39655,0.45149 0.0212,0.0423 0,0.0767 -0.0423,0.0979 l -0.11642,0.0529 c -0.0476,0.0185 -0.0661,0.0159 -0.0953,-0.0344 -0.0599,-0.14044 -0.16301,-0.25818 -0.29429,-0.33618 -0.13126,-0.078 -0.28395,-0.11223 -0.43596,-0.0977 -0.44714,0 -0.69056,0.17727 -0.69056,0.49477 -0.003,0.097 0.03,0.19174 0.0918,0.26662 0.0617,0.0749 0.14851,0.12491 0.24426,0.14084 0.14229,0.0464 0.28985,0.0749 0.43921,0.0847 0.18079,0.01 0.35915,0.0462 0.52917,0.10848 0.13044,0.0412 0.24262,0.12608 0.31776,0.24027 0.0751,0.11419 0.10874,0.25077 0.095,0.38679 0,0.49478 -0.35984,0.79375 -1.0213,0.79375 -0.21695,0.0248 -0.43587,-0.0254 -0.62026,-0.14245 -0.18439,-0.11697 -0.32313,-0.29363 -0.39309,-0.50048 -0.005,-0.009 -0.007,-0.0198 -0.007,-0.0303 -2.1e-4,-0.0105 0.002,-0.0209 0.006,-0.0306 0.004,-0.01 0.0107,-0.0181 0.0186,-0.025 0.008,-0.007 0.0174,-0.0119 0.0275,-0.0147 l 0.11642,-0.0423 c 0.009,-0.004 0.019,-0.006 0.0289,-0.005 0.01,2.6e-4 0.0196,0.003 0.0286,0.007 0.009,0.004 0.0169,0.0103 0.0234,0.0177 0.007,0.007 0.0114,0.0162 0.0143,0.0257 0.0592,0.14946 0.16443,0.2762 0.30048,0.36185 0.13605,0.0856 0.29586,0.1257 0.45622,0.1144 0.50007,0 0.74613,-0.17462 0.74613,-0.52917 0.005,-0.0932 -0.0238,-0.18502 -0.0806,-0.25916 -0.0567,-0.0741 -0.13782,-0.12573 -0.22897,-0.14565 -0.1369,-0.0408 -0.27808,-0.0657 -0.42069,-0.0741 l -0.28575,-0.037 c -0.0894,-0.019 -0.17775,-0.0428 -0.26458,-0.0714 -0.0858,-0.0259 -0.16574,-0.0681 -0.23548,-0.12435 -0.0702,-0.0636 -0.12552,-0.14177 -0.16211,-0.22911 -0.0366,-0.0873 -0.0535,-0.18163 -0.0496,-0.27625 0.0185,-0.46302 0.36513,-0.76464 0.97631,-0.76464 z"
           class="ccustom"
           fill="#394149"
           style="stroke-width:0.264583"
           data-darkreader-inline-fill=""
           id="path17328" /><path
           d="m 834.68202,580.37632 c 0.0111,0.18711 0.0934,0.36287 0.22992,0.49138 0.13653,0.12851 0.31697,0.20005 0.5043,0.20005 0.18732,0 0.36777,-0.0715 0.5043,-0.20005 0.13652,-0.12851 0.21854,-0.30427 0.22992,-0.49138 v -1.68011 c 0,-0.0582 0.0185,-0.0767 0.0767,-0.0767 h 0.12171 c 0.0582,0 0.0767,0.0185 0.0767,0.0767 v 1.67746 c 0,0.6006 -0.35454,0.96308 -1.00806,0.96308 -0.65352,0 -1.00806,-0.36248 -1.00806,-0.96308 v -1.67746 c 0,-0.0582 0.0185,-0.0767 0.0741,-0.0767 h 0.12436 c 0.0556,0 0.0741,0.0185 0.0741,0.0767 z"
           class="ccustom"
           fill="#394149"
           style="stroke-width:0.264583"
           data-darkreader-inline-fill=""
           id="path17330" /><path
           d="m 840.07687,578.61948 c 0.0582,0 0.0767,0.0185 0.0767,0.0767 v 2.50825 c 0,0.0582 -0.0185,0.0767 -0.0767,0.0767 h -0.11112 c -0.0556,0 -0.0741,-0.0185 -0.0741,-0.0767 v -1.52664 c 0,-0.22212 0.0151,-0.444 0.045,-0.66411 h -0.0159 c -0.0825,0.20127 -0.17912,0.39664 -0.2884,0.58473 l -0.56885,1.00277 c -0.007,0.0174 -0.019,0.0323 -0.0347,0.0427 -0.0156,0.0104 -0.0339,0.0158 -0.0526,0.0155 h -0.0741 c -0.019,1.1e-4 -0.0376,-0.005 -0.0537,-0.0157 -0.0159,-0.0104 -0.0286,-0.0251 -0.0362,-0.0425 l -0.5768,-1.01335 c -0.10239,-0.1854 -0.19076,-0.3782 -0.26458,-0.57679 h -0.0159 c 0.027,0.22211 0.0413,0.44563 0.0423,0.66939 v 1.524 c 0,0.0582 -0.0185,0.0767 -0.0767,0.0767 h -0.10319 c -0.0582,0 -0.0767,-0.0185 -0.0767,-0.0767 v -2.50825 c 0,-0.0582 0.0185,-0.0767 0.0767,-0.0767 h 0.0953 c 0.0217,-0.002 0.0437,0.003 0.0624,0.0136 0.019,0.0109 0.0341,0.0274 0.0434,0.0472 l 0.92604,1.6457 0.92075,-1.62983 c 0.0291,-0.0556 0.045,-0.0635 0.10319,-0.0635 z"
           class="ccustom"
           fill="#394149"
           style="stroke-width:0.264583"
           data-darkreader-inline-fill=""
           id="path17332" /><path
           d="m 809.82442,580.87902 v 1.91294 c 0,0.0733 -0.0291,0.14367 -0.081,0.1955 -0.0518,0.0519 -0.12216,0.081 -0.1955,0.081 -0.0733,0 -0.14365,-0.0291 -0.1955,-0.081 -0.0519,-0.0518 -0.081,-0.12216 -0.081,-0.1955 v -1.91029 c 0.077,0.0562 0.16928,0.0876 0.26458,0.09 0.10388,0.003 0.20566,-0.0297 0.2884,-0.0926 z m 2.35479,-0.55298 c -0.0702,0 -0.13748,0.0279 -0.18709,0.0775 -0.0496,0.0496 -0.0775,0.11692 -0.0775,0.18709 v 0.33337 c 0,0.0734 0.0291,0.14367 0.081,0.1955 0.0518,0.0519 0.12216,0.081 0.1955,0.081 0.0734,0 0.14367,-0.0291 0.1955,-0.081 0.0519,-0.0518 0.081,-0.12215 0.081,-0.1955 v -0.32014 c 0.002,-0.0379 -0.004,-0.0759 -0.018,-0.11123 -0.0139,-0.0353 -0.0353,-0.0673 -0.0626,-0.0937 -0.0274,-0.0263 -0.0601,-0.0465 -0.0959,-0.0591 -0.0359,-0.0126 -0.074,-0.0173 -0.11184,-0.0138 z m -3.50838,1.27794 c -0.0952,-0.003 -0.18737,-0.0342 -0.26458,-0.09 v 1.91823 c 0,0.0737 0.0293,0.14436 0.0814,0.19646 0.0521,0.0521 0.12276,0.0814 0.19644,0.0814 0.0737,0 0.14435,-0.0293 0.19644,-0.0814 0.0521,-0.0521 0.0814,-0.12277 0.0814,-0.19646 v -1.905 c -0.0864,0.0559 -0.18834,0.0827 -0.29104,0.0767 z m 2.64584,-1.85208 c -0.0359,-0.002 -0.0717,0.004 -0.10533,0.0162 -0.0336,0.0125 -0.0644,0.0317 -0.0904,0.0564 -0.026,0.0248 -0.0466,0.0545 -0.0608,0.0875 -0.0141,0.033 -0.0214,0.0685 -0.0213,0.1044 v 1.47373 c 0,0.0737 0.0293,0.14436 0.0814,0.19645 0.0521,0.0521 0.12277,0.0814 0.19646,0.0814 0.0737,0 0.14435,-0.0293 0.19645,-0.0814 0.0521,-0.0521 0.0814,-0.12276 0.0814,-0.19645 V 580.035 c 0.002,-0.0382 -0.004,-0.0764 -0.0181,-0.11192 -0.0141,-0.0356 -0.0357,-0.0677 -0.0633,-0.0941 -0.0277,-0.0264 -0.0607,-0.0465 -0.0969,-0.0589 -0.0362,-0.0124 -0.0746,-0.0168 -0.11266,-0.0129 z m -0.87842,0.56621 c -0.0997,-6.9e-4 -0.19667,-0.0321 -0.27781,-0.09 v 1.92352 c 0,0.0737 0.0293,0.14436 0.0814,0.19645 0.0521,0.0521 0.12276,0.0814 0.19645,0.0814 0.0737,0 0.14433,-0.0293 0.19645,-0.0814 0.0521,-0.0521 0.0814,-0.12276 0.0814,-0.19645 v -1.92088 c -0.0839,0.0625 -0.1864,0.0951 -0.29104,0.0926 z m -2.36802,1.47373 v -5.37369 c -7e-4,-0.0655 -0.0272,-0.12808 -0.0738,-0.17416 -0.0466,-0.0461 -0.10942,-0.0719 -0.17493,-0.0719 h -0.0582 c -0.0655,-10e-6 -0.12837,0.0258 -0.17493,0.0719 -0.0466,0.0461 -0.0731,0.10866 -0.0738,0.17416 v 5.37369 c 0,0.066 0.0262,0.12922 0.0729,0.17586 0.0466,0.0466 0.1099,0.0728 0.17586,0.0728 h 0.0582 c 0.066,0 0.12922,-0.0262 0.17586,-0.0728 0.0466,-0.0466 0.0729,-0.1099 0.0729,-0.17586 z m 0.62971,-0.39159 h -0.0582 c -0.066,0 -0.12922,-0.0262 -0.17586,-0.0728 -0.0466,-0.0466 -0.0729,-0.10991 -0.0729,-0.17587 v -4.0931 c 7e-4,-0.0655 0.0272,-0.12808 0.0738,-0.17415 0.0466,-0.0461 0.10943,-0.0719 0.17494,-0.0719 h 0.0582 c 0.0655,-10e-6 0.12836,0.0258 0.17493,0.0719 0.0466,0.0461 0.0731,0.10865 0.0738,0.17415 v 4.0984 c 0,0.066 -0.0262,0.12922 -0.0729,0.17586 -0.0466,0.0466 -0.1099,0.0728 -0.17586,0.0728 z m 0.87577,-0.62971 h -0.0609 c -0.0652,0 -0.12784,-0.0259 -0.17399,-0.0721 -0.0461,-0.0461 -0.0721,-0.10872 -0.0721,-0.17399 v -2.83104 c -3.4e-4,-0.0325 0.006,-0.0648 0.018,-0.095 0.0122,-0.0302 0.0303,-0.0576 0.0532,-0.0807 0.0229,-0.0231 0.0501,-0.0415 0.0802,-0.054 0.03,-0.0125 0.0622,-0.019 0.0948,-0.019 h 0.0609 c 0.0655,7e-4 0.12808,0.0272 0.17415,0.0738 0.0461,0.0466 0.0719,0.10942 0.0719,0.17493 v 2.83104 c 0,0.0653 -0.0259,0.12785 -0.0721,0.17399 -0.0462,0.0462 -0.10872,0.0721 -0.17399,0.0721 z m 0.87577,-0.64822 h -0.0556 c -0.0655,0 -0.12838,-0.0258 -0.17495,-0.0719 -0.0466,-0.0461 -0.0731,-0.10864 -0.0738,-0.17415 v -1.524 c -0.002,-0.034 0.003,-0.068 0.0142,-0.10006 0.0115,-0.032 0.0295,-0.0614 0.0528,-0.0862 0.0233,-0.0248 0.0515,-0.0446 0.0827,-0.058 0.0312,-0.0135 0.0649,-0.0204 0.099,-0.0203 h 0.0582 c 0.066,0 0.12923,0.0262 0.17587,0.0728 0.0466,0.0466 0.0728,0.10991 0.0728,0.17587 v 1.53458 c 3.5e-4,0.0329 -0.006,0.0655 -0.0182,0.096 -0.0123,0.0305 -0.0306,0.0582 -0.0537,0.0816 -0.0231,0.0234 -0.0506,0.0419 -0.081,0.0546 -0.0303,0.0127 -0.0629,0.0192 -0.0958,0.0192 z m 0.87842,-0.56886 h -0.0582 c -0.066,0 -0.12923,-0.0262 -0.17587,-0.0728 -0.0466,-0.0466 -0.0728,-0.10991 -0.0728,-0.17587 v -0.39423 c 6.9e-4,-0.0655 0.0272,-0.12808 0.0738,-0.17415 0.0466,-0.0461 0.10944,-0.0719 0.17495,-0.0719 h 0.0582 c 0.0655,0 0.12837,0.0258 0.17494,0.0719 0.0466,0.0461 0.0731,0.10864 0.0738,0.17415 v 0.39423 c 0,0.0655 -0.0258,0.12838 -0.0719,0.17495 -0.0461,0.0466 -0.10864,0.0731 -0.17415,0.0738 z"
           class="ccustom"
           fill="#394149"
           style="stroke-width:0.264583"
           data-darkreader-inline-fill=""
           id="path17334" /></g></g></g></svg>
