<?xml version="1.0" encoding="UTF-8" standalone="no"?>
<!-- Created with Inkscape (http://www.inkscape.org/) -->

<svg
   xml:space="preserve"
   sodipodi:docname="mockup.svg"
   inkscape:version="1.2.1 (9c6d41e410, 2022-07-14)"
   id="svg182339"
   version="1.1"
   viewBox="0 0 31.42641 7.1757966"
   height="27.12112"
   width="118.77699"
   xmlns:inkscape="http://www.inkscape.org/namespaces/inkscape"
   xmlns:sodipodi="http://sodipodi.sourceforge.net/DTD/sodipodi-0.dtd"
   xmlns:xlink="http://www.w3.org/1999/xlink"
   xmlns="http://www.w3.org/2000/svg"
   xmlns:svg="http://www.w3.org/2000/svg"><sodipodi:namedview
     id="namedview182341"
     pagecolor="#505050"
     bordercolor="#eeeeee"
     borderopacity="1"
     inkscape:showpageshadow="0"
     inkscape:pageopacity="0"
     inkscape:pagecheckerboard="0"
     inkscape:deskcolor="#505050"
     inkscape:document-units="mm"
     showgrid="false"
     inkscape:zoom="0.34578127"
     inkscape:cx="-615.99635"
     inkscape:cy="-902.30451"
     inkscape:window-width="1366"
     inkscape:window-height="705"
     inkscape:window-x="-8"
     inkscape:window-y="-8"
     inkscape:window-maximized="1"
     inkscape:current-layer="layer1"
     showguides="true"><sodipodi:guide
       position="-810.26231,460.86345"
       orientation="1,0"
       id="guide25471"
       inkscape:locked="false" /><sodipodi:guide
       position="-805.52098,381.69331"
       orientation="1,0"
       id="guide25473"
       inkscape:locked="false" /><sodipodi:guide
       position="-450.42901,231.99064"
       orientation="1,0"
       id="guide35590"
       inkscape:locked="false" /><sodipodi:guide
       position="-455.17034,266.2787"
       orientation="1,0"
       id="guide38199"
       inkscape:locked="false" /></sodipodi:namedview><defs
     id="defs182336"><linearGradient
       id="linearGradient1057"
       x1="522.69"
       y1="412.73999"
       x2="908.96997"
       y2="799.01001"
       gradientTransform="matrix(-0.26458333,0,0,-0.26458333,266.89035,244.97243)"
       gradientUnits="userSpaceOnUse"><stop
         offset="0"
         stop-color="#fcee21"
         id="stop1061" /><stop
         offset="0.1"
         stop-color="#f7ec22"
         id="stop1063" /><stop
         offset="0.22"
         stop-color="#e7e624"
         id="stop1065" /><stop
         offset="0.36"
         stop-color="#cedd28"
         id="stop1067" /><stop
         offset="0.51"
         stop-color="#aad02d"
         id="stop1069" /><stop
         offset="0.67"
         stop-color="#7cbf33"
         id="stop1071" /><stop
         offset="0.83"
         stop-color="#45ab3b"
         id="stop1073" /><stop
         offset="0.99"
         stop-color="#049344"
         id="stop1075" /><stop
         offset="1"
         stop-color="#009245"
         id="stop1077" /></linearGradient><linearGradient
       inkscape:collect="always"
       xlink:href="#linearGradient1057"
       id="linearGradient198911"
       gradientUnits="userSpaceOnUse"
       gradientTransform="matrix(13.538845,0,0,13.538845,-2625.6978,-4130.266)"
       x1="413.80301"
       y1="291.04166"
       x2="118.47618"
       y2="291.04166" /><linearGradient
       inkscape:collect="always"
       xlink:href="#linearGradient1057"
       id="linearGradient478189"
       gradientUnits="userSpaceOnUse"
       gradientTransform="matrix(1.6425514,0,0,1.6425514,352.95802,-164.19644)"
       x1="413.80301"
       y1="291.04166"
       x2="118.47618"
       y2="291.04166" /><linearGradient
       inkscape:collect="always"
       xlink:href="#linearGradient1057"
       id="linearGradient653602"
       gradientUnits="userSpaceOnUse"
       gradientTransform="matrix(1.2985426,0,0,1.2985426,458.15644,-56.374736)"
       x1="413.80301"
       y1="291.04166"
       x2="118.47618"
       y2="291.04166" /><linearGradient
       inkscape:collect="always"
       xlink:href="#linearGradient1057"
       id="linearGradient741566"
       gradientUnits="userSpaceOnUse"
       gradientTransform="matrix(1.2985426,0,0,1.2985426,649.52306,-458.3974)"
       x1="413.80301"
       y1="291.04166"
       x2="118.47618"
       y2="291.04166" /><linearGradient
       inkscape:collect="always"
       xlink:href="#linearGradient1057"
       id="linearGradient818934"
       gradientUnits="userSpaceOnUse"
       gradientTransform="matrix(1.2985426,0,0,1.2985426,457.45349,-153.39616)"
       x1="413.80301"
       y1="291.04166"
       x2="118.47618"
       y2="291.04166" /><linearGradient
       inkscape:collect="always"
       xlink:href="#linearGradient1057"
       id="linearGradient892145"
       gradientUnits="userSpaceOnUse"
       gradientTransform="matrix(1.2985426,0,0,1.2985426,458.15644,-154.90639)"
       x1="413.80301"
       y1="291.04166"
       x2="118.47618"
       y2="291.04166" /><linearGradient
       inkscape:collect="always"
       xlink:href="#linearGradient1057"
       id="linearGradient1018698"
       gradientUnits="userSpaceOnUse"
       gradientTransform="matrix(1.2985426,0,0,1.2985426,453.34098,-54.508543)"
       x1="413.80301"
       y1="291.04166"
       x2="118.47618"
       y2="291.04166" /></defs><g
     inkscape:label="ios-home"
     inkscape:groupmode="layer"
     id="layer1"
     style="display:inline"
     transform="translate(-894.92901,-501.5175)"><g
       id="g17457"
       transform="translate(-27.07802,-98.932469)"><g
         id="g17125"
         transform="translate(59.069747,-16.816864)"><path
           d="m 872.03866,619.28855 h 0.79375 v 3.2094 h -0.79375 z m 1.10861,1.9976 c 0,-0.79375 0.48683,-1.26735 1.23825,-1.26735 0.75141,0 1.23825,0.4736 1.23825,1.26735 0,0.79375 -0.47625,1.27 -1.23825,1.27 -0.762,0 -1.23825,-0.46302 -1.23825,-1.27 z m 1.6801,0 c 0,-0.43656 -0.17198,-0.6932 -0.44185,-0.6932 -0.26988,0 -0.43921,0.26458 -0.43921,0.6932 0,0.42863 0.16668,0.68792 0.43921,0.68792 0.27252,0 0.44185,-0.24342 0.44185,-0.68527 z m 1.09537,1.3679 h 0.762 c 0.0363,0.0806 0.0976,0.14727 0.17481,0.19018 0.0772,0.0429 0.16627,0.0597 0.25382,0.0479 0.30162,0 0.46037,-0.16404 0.46037,-0.40216 v -0.4445 h -0.0159 c -0.0632,0.13623 -0.16587,0.25037 -0.29461,0.32774 -0.12875,0.0773 -0.27774,0.11432 -0.4277,0.10617 -0.57944,0 -0.96309,-0.44185 -0.96309,-1.2012 0,-0.75936 0.36513,-1.23825 0.97367,-1.23825 0.15468,-0.006 0.3075,0.0353 0.43802,0.1185 0.13052,0.0832 0.23249,0.20437 0.29223,0.34716 v 0 -0.44185 h 0.79375 v 2.40771 c 0,0.57943 -0.51065,0.93927 -1.26471,0.93927 -0.70114,0 -1.13771,-0.31486 -1.18269,-0.75406 z m 1.65365,-1.37054 c 0,-0.38629 -0.17727,-0.62971 -0.45773,-0.62971 -0.28046,0 -0.45244,0.24077 -0.45244,0.62971 0,0.38894 0.16934,0.60854 0.45244,0.60854 0.28311,0 0.45773,-0.21431 0.45773,-0.6059 z m 1.09273,0 c 0,-0.79375 0.48683,-1.26736 1.23825,-1.26736 0.75142,0 1.2409,0.47361 1.2409,1.26736 0,0.79375 -0.47625,1.27 -1.2409,1.27 -0.76465,0 -1.23825,-0.46038 -1.23825,-1.26736 z m 1.6801,0 c 0,-0.43656 -0.17198,-0.69321 -0.44185,-0.69321 -0.26988,0 -0.42598,0.26723 -0.42598,0.6985 0,0.43127 0.16669,0.68792 0.43656,0.68792 0.26988,0 0.43127,-0.24607 0.43127,-0.68792 z m 1.10067,-1.79652 c -0.002,-0.0801 0.0197,-0.1591 0.0625,-0.22685 0.0429,-0.0678 0.10486,-0.12127 0.17815,-0.15375 0.0733,-0.0325 0.15456,-0.0425 0.23354,-0.0287 0.079,0.0138 0.15209,0.0507 0.21006,0.10606 0.058,0.0554 0.0982,0.12671 0.11559,0.20497 0.0174,0.0783 0.0111,0.15992 -0.018,0.23463 -0.0291,0.0747 -0.0797,0.1391 -0.14542,0.185 -0.0657,0.0459 -0.14359,0.0713 -0.22373,0.0729 -0.0531,0.004 -0.10644,-0.004 -0.15658,-0.0217 -0.0502,-0.0179 -0.096,-0.046 -0.13481,-0.0826 -0.0388,-0.0365 -0.0695,-0.0807 -0.0904,-0.12967 -0.0209,-0.049 -0.0314,-0.10176 -0.0309,-0.15502 z m 0,0.58208 h 0.79375 v 2.42888 h -0.79375 z m 3.67506,1.21444 c 0,0.79375 -0.35189,1.24619 -0.95514,1.24619 -0.15468,0.01 -0.30869,-0.0279 -0.4412,-0.10832 -0.1325,-0.0805 -0.23709,-0.19966 -0.29964,-0.34148 h -0.0159 v 1.19592 h -0.79375 v -3.21204 h 0.79375 v 0.43392 h 0.0159 c 0.0596,-0.14418 0.16225,-0.26647 0.29385,-0.35026 0.1316,-0.0838 0.28583,-0.12502 0.4417,-0.11806 0.60854,0.0106 0.97102,0.46567 0.97102,1.25942 z m -0.79375,0 c 0,-0.38629 -0.17727,-0.63236 -0.45508,-0.63236 -0.27781,0 -0.45508,0.24871 -0.45773,0.63236 -0.003,0.38364 0.17992,0.62971 0.45773,0.62971 0.27781,0 0.45508,-0.24077 0.45508,-0.62442 z m 2.15636,-1.27 c 0.65881,0 1.05833,0.31221 1.07685,0.81227 h -0.72231 c 0,-0.17198 -0.14288,-0.28046 -0.36248,-0.28046 -0.2196,0 -0.3175,0.0847 -0.3175,0.20902 0,0.12436 0.0873,0.16404 0.26458,0.20108 l 0.508,0.10319 c 0.48419,0.10319 0.69057,0.29898 0.69057,0.66675 0,0.50271 -0.45773,0.8255 -1.13242,0.8255 -0.67469,0 -1.11654,-0.32279 -1.15094,-0.81756 h 0.76465 c 0.0238,0.17992 0.16668,0.28575 0.39952,0.28575 0.23283,0 0.33866,-0.0767 0.33866,-0.20373 0,-0.127 -0.0741,-0.15346 -0.26458,-0.19315 l -0.45773,-0.0979 c -0.4736,-0.0979 -0.72231,-0.34925 -0.72231,-0.71967 0.005,-0.47625 0.43127,-0.78581 1.08744,-0.78581 z m 3.78618,2.47914 h -0.76464 v -0.45243 h -0.0159 c -0.0421,0.15189 -0.13467,0.28485 -0.26273,0.37679 -0.12806,0.0919 -0.28363,0.13729 -0.44106,0.12856 -0.1206,0.007 -0.24125,-0.0122 -0.35383,-0.056 -0.11258,-0.0438 -0.21444,-0.1112 -0.29871,-0.19775 -0.0843,-0.0865 -0.14901,-0.19015 -0.18979,-0.30385 -0.0408,-0.11369 -0.0567,-0.23481 -0.0467,-0.35517 v -1.56898 h 0.79375 v 1.38642 c 0,0.28839 0.14817,0.44185 0.39423,0.44185 0.0577,1.1e-4 0.11483,-0.0121 0.16748,-0.0358 0.0524,-0.0237 0.0995,-0.0584 0.13759,-0.10179 0.0378,-0.0434 0.0664,-0.0944 0.0831,-0.14954 0.0167,-0.0552 0.0217,-0.11338 0.014,-0.17058 v -1.37054 h 0.79375 z m 0.38365,-2.42887 h 0.76729 v 0.46831 h 0.0159 c 0.0421,-0.14988 0.13282,-0.28159 0.2577,-0.37446 0.12488,-0.0929 0.27728,-0.14171 0.43286,-0.13883 0.15848,-0.0127 0.31565,0.0347 0.4408,0.13277 0.12488,0.0981 0.20849,0.23955 0.23389,0.3964 h 0.0159 c 0.0479,-0.15852 0.14737,-0.29652 0.28258,-0.39233 0.13493,-0.0958 0.29818,-0.14396 0.46355,-0.13684 0.10795,-0.004 0.21537,0.0155 0.31538,0.0561 0.10028,0.0406 0.1905,0.10187 0.26538,0.17971 0.0749,0.0779 0.13255,0.1706 0.16933,0.27218 0.0365,0.10157 0.0516,0.20976 0.0437,0.31747 v 1.65365 h -0.79375 v -1.44198 c 0,-0.26459 -0.11907,-0.3863 -0.34132,-0.3863 -0.0495,-4.2e-4 -0.0987,0.01 -0.14393,0.03 -0.0452,0.0202 -0.0857,0.0498 -0.11853,0.0869 -0.0328,0.0371 -0.0574,0.0808 -0.072,0.12822 -0.0145,0.0474 -0.0185,0.0974 -0.0122,0.1465 v 1.43669 h -0.75406 v -1.45257 c 0,-0.24341 -0.11906,-0.37571 -0.33602,-0.37571 -0.05,3e-5 -0.0997,0.0107 -0.14526,0.0312 -0.0458,0.0206 -0.0868,0.0506 -0.11986,0.0881 -0.0333,0.0375 -0.0582,0.0816 -0.0733,0.12949 -0.0148,0.0478 -0.0196,0.0983 -0.0135,0.14806 v 1.4314 h -0.79375 z"
           class="ccustom"
           fill="#394149"
           style="stroke-width:0.264583"
           data-darkreader-inline-fill=""
           id="path17112" /><path
           d="m 869.81881,619.43407 c -0.13465,-0.30788 -0.31285,-0.5948 -0.52917,-0.85196 -0.31975,-0.39149 -0.71879,-0.71083 -1.17086,-0.93699 -0.45207,-0.22616 -0.94692,-0.35402 -1.45195,-0.37517 -0.50504,-0.0211 -1.00883,0.0649 -1.47823,0.2525 -0.46938,0.18759 -0.89372,0.47246 -1.24508,0.83586 -0.35136,0.3634 -0.62178,0.79709 -0.79345,1.27253 -0.17168,0.47543 -0.24072,0.98184 -0.20258,1.48587 0.0381,0.50406 0.18259,0.99431 0.42384,1.43849 0.24126,0.44421 0.57386,0.83227 0.9759,1.13866 0.25797,0.20053 0.54301,0.36354 0.84666,0.48419 0.42572,0.17447 0.88135,0.26432 1.34144,0.26458 0.94969,-0.002 1.85981,-0.38065 2.53087,-1.05269 0.67104,-0.67205 1.04825,-1.58272 1.04894,-2.53241 6.9e-4,-0.48988 -0.1002,-0.97457 -0.29633,-1.42346 z m -3.28613,-1.43669 c 0.41318,-4e-5 0.82135,0.0903 1.19592,0.26458 v 0 c -0.0913,0.0395 -0.18738,0.067 -0.28575,0.082 -0.32369,0.0469 -0.62354,0.19713 -0.85482,0.4284 -0.23127,0.23127 -0.38155,0.53114 -0.42841,0.85483 -0.0206,0.18153 -0.10313,0.35041 -0.23376,0.47815 -0.13062,0.12774 -0.30131,0.20648 -0.48326,0.22299 -0.32369,0.0469 -0.62355,0.19714 -0.85482,0.42842 -0.23127,0.23127 -0.38155,0.53112 -0.42841,0.85481 -0.0159,0.17262 -0.0895,0.33483 -0.20902,0.46038 v 0 c -0.2062,-0.43569 -0.29883,-0.91649 -0.26927,-1.39761 0.0296,-0.48112 0.18035,-0.94695 0.43833,-1.35414 0.25799,-0.40717 0.61479,-0.74247 1.0372,-0.97469 0.42241,-0.23221 0.8967,-0.3538 1.37872,-0.35344 z m -2.1881,4.71223 c 0.0318,-0.0291 0.0635,-0.0556 0.0953,-0.0873 0.23539,-0.2282 0.38648,-0.52946 0.42863,-0.8546 0.0171,-0.18278 0.0987,-0.35349 0.23018,-0.48155 0.12655,-0.13171 0.29686,-0.21264 0.4789,-0.22754 0.32369,-0.0469 0.62354,-0.19714 0.85481,-0.42841 0.23127,-0.23127 0.38156,-0.53113 0.42842,-0.85482 0.0114,-0.19116 0.0935,-0.37126 0.23018,-0.50535 0.12968,-0.12916 0.3016,-0.20714 0.48419,-0.21961 0.29737,-0.0409 0.5747,-0.17311 0.79375,-0.37835 0.24942,0.20692 0.46072,0.45585 0.62442,0.73554 -0.0101,0.0136 -0.0216,0.026 -0.0344,0.037 -0.12628,0.13288 -0.29638,0.21559 -0.47889,0.23284 -0.32404,0.046 -0.62434,0.19605 -0.85577,0.42746 -0.23141,0.23143 -0.38143,0.53173 -0.42746,0.85577 -0.0187,0.18214 -0.0997,0.35224 -0.2294,0.48146 -0.12972,0.12925 -0.30011,0.20965 -0.48233,0.22762 -0.32465,0.0465 -0.62561,0.19648 -0.85823,0.42765 -0.2326,0.23119 -0.38444,0.53123 -0.43294,0.85558 -0.0142,0.1293 -0.0587,0.25347 -0.12965,0.36248 -0.27146,-0.16119 -0.51458,-0.36587 -0.71966,-0.6059 z m 2.1881,1.02129 c -0.26847,3e-4 -0.53567,-0.0371 -0.79375,-0.11112 0.0883,-0.16457 0.14568,-0.34393 0.16934,-0.52917 0.0185,-0.18174 0.0992,-0.35152 0.22838,-0.48069 0.12917,-0.12917 0.29896,-0.20984 0.4807,-0.22839 0.32417,-0.0463 0.62463,-0.19637 0.85643,-0.4277 0.23177,-0.2313 0.38245,-0.53147 0.42944,-0.85553 0.0186,-0.18174 0.0992,-0.35153 0.22839,-0.4807 0.12917,-0.12916 0.29895,-0.20984 0.4807,-0.22838 0.24394,-0.0317 0.47646,-0.12256 0.67733,-0.26459 0.11155,0.42278 0.12475,0.86548 0.0386,1.29416 -0.0861,0.42868 -0.26932,0.83196 -0.53549,1.17885 -0.26617,0.34687 -0.60825,0.6282 -1.00005,0.82235 -0.39176,0.19415 -0.8228,0.29599 -1.26005,0.29768 z"
           class="ccustom"
           fill="#394149"
           style="stroke-width:0.264583"
           data-darkreader-inline-fill=""
           id="path17114" /></g></g></g></svg>
