<?xml version="1.0" encoding="UTF-8" standalone="no"?>
<!-- Created with Inkscape (http://www.inkscape.org/) -->

<svg
   xml:space="preserve"
   sodipodi:docname="mockup.svg"
   inkscape:version="1.2.1 (9c6d41e410, 2022-07-14)"
   id="svg182339"
   version="1.1"
   viewBox="0 0 25.032196 11.90625"
   height="45"
   width="94.609879"
   xmlns:inkscape="http://www.inkscape.org/namespaces/inkscape"
   xmlns:sodipodi="http://sodipodi.sourceforge.net/DTD/sodipodi-0.dtd"
   xmlns:xlink="http://www.w3.org/1999/xlink"
   xmlns="http://www.w3.org/2000/svg"
   xmlns:svg="http://www.w3.org/2000/svg"><sodipodi:namedview
     id="namedview182341"
     pagecolor="#505050"
     bordercolor="#eeeeee"
     borderopacity="1"
     inkscape:showpageshadow="0"
     inkscape:pageopacity="0"
     inkscape:pagecheckerboard="0"
     inkscape:deskcolor="#505050"
     inkscape:document-units="mm"
     showgrid="false"
     inkscape:zoom="0.34578127"
     inkscape:cx="-615.99635"
     inkscape:cy="-902.30451"
     inkscape:window-width="1366"
     inkscape:window-height="705"
     inkscape:window-x="-8"
     inkscape:window-y="-8"
     inkscape:window-maximized="1"
     inkscape:current-layer="layer1"
     showguides="true"><sodipodi:guide
       position="-660.25157,489.74558"
       orientation="1,0"
       id="guide25471"
       inkscape:locked="false" /><sodipodi:guide
       position="-655.51024,410.57544"
       orientation="1,0"
       id="guide25473"
       inkscape:locked="false" /><sodipodi:guide
       position="-300.41826,260.87277"
       orientation="1,0"
       id="guide35590"
       inkscape:locked="false" /><sodipodi:guide
       position="-305.15959,295.16083"
       orientation="1,0"
       id="guide38199"
       inkscape:locked="false" /></sodipodi:namedview><defs
     id="defs182336"><linearGradient
       id="linearGradient1057"
       x1="522.69"
       y1="412.73999"
       x2="908.96997"
       y2="799.01001"
       gradientTransform="matrix(-0.26458333,0,0,-0.26458333,266.89035,244.97243)"
       gradientUnits="userSpaceOnUse"><stop
         offset="0"
         stop-color="#fcee21"
         id="stop1061" /><stop
         offset="0.1"
         stop-color="#f7ec22"
         id="stop1063" /><stop
         offset="0.22"
         stop-color="#e7e624"
         id="stop1065" /><stop
         offset="0.36"
         stop-color="#cedd28"
         id="stop1067" /><stop
         offset="0.51"
         stop-color="#aad02d"
         id="stop1069" /><stop
         offset="0.67"
         stop-color="#7cbf33"
         id="stop1071" /><stop
         offset="0.83"
         stop-color="#45ab3b"
         id="stop1073" /><stop
         offset="0.99"
         stop-color="#049344"
         id="stop1075" /><stop
         offset="1"
         stop-color="#009245"
         id="stop1077" /></linearGradient><linearGradient
       inkscape:collect="always"
       xlink:href="#linearGradient1057"
       id="linearGradient198911"
       gradientUnits="userSpaceOnUse"
       gradientTransform="matrix(13.538845,0,0,13.538845,-2625.6978,-4130.266)"
       x1="413.80301"
       y1="291.04166"
       x2="118.47618"
       y2="291.04166" /><linearGradient
       inkscape:collect="always"
       xlink:href="#linearGradient1057"
       id="linearGradient478189"
       gradientUnits="userSpaceOnUse"
       gradientTransform="matrix(1.6425514,0,0,1.6425514,352.95802,-164.19644)"
       x1="413.80301"
       y1="291.04166"
       x2="118.47618"
       y2="291.04166" /><linearGradient
       inkscape:collect="always"
       xlink:href="#linearGradient1057"
       id="linearGradient653602"
       gradientUnits="userSpaceOnUse"
       gradientTransform="matrix(1.2985426,0,0,1.2985426,458.15644,-56.374736)"
       x1="413.80301"
       y1="291.04166"
       x2="118.47618"
       y2="291.04166" /><linearGradient
       inkscape:collect="always"
       xlink:href="#linearGradient1057"
       id="linearGradient741566"
       gradientUnits="userSpaceOnUse"
       gradientTransform="matrix(1.2985426,0,0,1.2985426,649.52306,-458.3974)"
       x1="413.80301"
       y1="291.04166"
       x2="118.47618"
       y2="291.04166" /><linearGradient
       inkscape:collect="always"
       xlink:href="#linearGradient1057"
       id="linearGradient818934"
       gradientUnits="userSpaceOnUse"
       gradientTransform="matrix(1.2985426,0,0,1.2985426,457.45349,-153.39616)"
       x1="413.80301"
       y1="291.04166"
       x2="118.47618"
       y2="291.04166" /><linearGradient
       inkscape:collect="always"
       xlink:href="#linearGradient1057"
       id="linearGradient892145"
       gradientUnits="userSpaceOnUse"
       gradientTransform="matrix(1.2985426,0,0,1.2985426,458.15644,-154.90639)"
       x1="413.80301"
       y1="291.04166"
       x2="118.47618"
       y2="291.04166" /><linearGradient
       inkscape:collect="always"
       xlink:href="#linearGradient1057"
       id="linearGradient1018698"
       gradientUnits="userSpaceOnUse"
       gradientTransform="matrix(1.2985426,0,0,1.2985426,453.34098,-54.508543)"
       x1="413.80301"
       y1="291.04166"
       x2="118.47618"
       y2="291.04166" /></defs><g
     inkscape:label="ios-home"
     inkscape:groupmode="layer"
     id="layer1"
     style="display:inline"
     transform="translate(-744.91826,-525.66917)"><g
       id="g17413"
       transform="translate(-7.8439999,-98.932469)"><g
         id="g17184"
         transform="translate(-111.78322,-3.4082163)"><path
           d="m 864.54548,635.15798 h 0.74954 v 3.67525 h -0.74954 z"
           class="cneutral"
           fill="#394149"
           style="stroke-width:0.264583"
           data-darkreader-inline-fill=""
           id="path17127" /><path
           d="m 865.72975,637.57399 c -4.9e-4,-0.26397 0.0773,-0.52218 0.22364,-0.74191 0.1463,-0.21974 0.3545,-0.39114 0.59825,-0.4925 0.24373,-0.10136 0.51207,-0.12814 0.77105,-0.0769 0.25897,0.0512 0.49694,0.17807 0.68376,0.36457 0.18685,0.18648 0.31417,0.42421 0.36584,0.68307 0.0517,0.25887 0.0254,0.52727 -0.0755,0.77121 -0.10091,0.24392 -0.27191,0.45244 -0.49138,0.59915 -0.21945,0.14674 -0.47749,0.22503 -0.74147,0.22503 -0.17558,0.002 -0.34975,-0.031 -0.51236,-0.0972 -0.16261,-0.0662 -0.31038,-0.16414 -0.43464,-0.28818 -0.12426,-0.12401 -0.22251,-0.27159 -0.289,-0.4341 -0.0665,-0.16248 -0.0999,-0.3366 -0.0982,-0.51216 z m 1.91382,0 c -0.003,-0.11395 -0.0394,-0.22452 -0.10488,-0.31784 -0.0655,-0.0933 -0.15697,-0.16528 -0.26313,-0.20688 -0.10615,-0.0416 -0.22219,-0.0509 -0.33361,-0.0269 -0.11144,0.024 -0.21331,0.0804 -0.29289,0.162 -0.0796,0.0816 -0.1333,0.18492 -0.15448,0.29694 -0.0212,0.112 -0.009,0.22778 0.0354,0.33282 0.0443,0.10504 0.11855,0.19471 0.21351,0.25776 0.095,0.063 0.20643,0.0967 0.32044,0.0967 0.078,0.002 0.15558,-0.0118 0.22789,-0.0411 0.0723,-0.0293 0.13776,-0.0733 0.19224,-0.12917 0.0545,-0.0559 0.0968,-0.12242 0.1242,-0.19544 0.0275,-0.0731 0.0395,-0.15098 0.0353,-0.2289 z"
           class="cneutral"
           fill="#394149"
           style="stroke-width:0.264583"
           data-darkreader-inline-fill=""
           id="path17129" /><path
           d="m 871.41127,636.31476 v 2.39353 c 0,0.84698 -0.6621,1.20428 -1.33168,1.20428 -0.23545,0.0175 -0.47119,-0.0301 -0.68141,-0.13764 -0.21021,-0.10753 -0.38676,-0.27083 -0.51035,-0.47199 l 0.6446,-0.37227 c 0.0512,0.10308 0.13208,0.18846 0.23231,0.24503 0.10022,0.0566 0.21513,0.0818 0.32985,0.0723 0.0755,0.0126 0.15283,0.008 0.22612,-0.0144 0.0733,-0.022 0.14052,-0.0606 0.19653,-0.11277 0.056,-0.0521 0.0993,-0.11647 0.1265,-0.18798 0.0272,-0.0715 0.0376,-0.14833 0.0305,-0.22453 v -0.23236 c -0.0881,0.10843 -0.20056,0.19455 -0.32817,0.25141 -0.1276,0.0569 -0.26683,0.0829 -0.40637,0.0759 -0.33927,0 -0.66463,-0.13478 -0.90456,-0.37468 -0.23989,-0.2399 -0.37467,-0.56528 -0.37467,-0.90456 0,-0.33927 0.13478,-0.66463 0.37467,-0.90453 0.23993,-0.23989 0.56529,-0.37467 0.90456,-0.37467 0.13946,-0.006 0.27847,0.0199 0.406,0.0767 0.12753,0.0568 0.24003,0.14264 0.32854,0.25059 v -0.24985 z m -0.73705,1.20925 c 0.005,-0.12149 -0.0265,-0.24172 -0.0904,-0.34522 -0.0639,-0.10348 -0.15727,-0.1855 -0.26813,-0.23548 -0.11086,-0.05 -0.23415,-0.0657 -0.35401,-0.0451 -0.11986,0.0206 -0.2308,0.0766 -0.31856,0.16079 -0.0878,0.0842 -0.14838,0.19269 -0.17399,0.31157 -0.0256,0.11888 -0.0151,0.24273 0.0302,0.35557 0.0453,0.11287 0.12335,0.20958 0.22407,0.27774 0.10073,0.0682 0.21953,0.10464 0.34113,0.10474 0.0794,0.006 0.15907,-0.005 0.23389,-0.0325 0.0748,-0.0271 0.14319,-0.0695 0.20064,-0.12457 0.0574,-0.0551 0.10268,-0.1216 0.13284,-0.19523 0.0302,-0.0736 0.0446,-0.15277 0.0423,-0.23234 z"
           class="cneutral"
           fill="#394149"
           style="stroke-width:0.264583"
           data-darkreader-inline-fill=""
           id="path17131" /><path
           d="m 871.84352,637.57399 c -5.1e-4,-0.26397 0.0773,-0.52218 0.22362,-0.74191 0.14632,-0.21974 0.35452,-0.39114 0.59825,-0.4925 0.24374,-0.10136 0.51208,-0.12814 0.77105,-0.0769 0.25897,0.0512 0.49694,0.17807 0.68379,0.36457 0.18682,0.18648 0.31414,0.42421 0.36584,0.68307 0.0517,0.25887 0.0254,0.52727 -0.0755,0.77121 -0.10092,0.24392 -0.27192,0.45244 -0.49136,0.59915 -0.21947,0.14674 -0.47752,0.22503 -0.7415,0.22503 -0.17555,0.002 -0.34975,-0.031 -0.51236,-0.0972 -0.16261,-0.0662 -0.31038,-0.16414 -0.43463,-0.28818 -0.12425,-0.12401 -0.22252,-0.27159 -0.28901,-0.4341 -0.0665,-0.16248 -0.0999,-0.3366 -0.0982,-0.51216 z m 1.91383,0 c -0.003,-0.11395 -0.0394,-0.22452 -0.1049,-0.31784 -0.0655,-0.0933 -0.15698,-0.16528 -0.26313,-0.20688 -0.10613,-0.0416 -0.22217,-0.0509 -0.33362,-0.0269 -0.11144,0.024 -0.2133,0.0804 -0.29289,0.162 -0.0796,0.0816 -0.1333,0.18492 -0.15449,0.29694 -0.0212,0.112 -0.009,0.22778 0.0354,0.33282 0.0443,0.10504 0.11856,0.19471 0.21352,0.25776 0.095,0.063 0.20643,0.0967 0.32043,0.0967 0.0776,10e-4 0.15463,-0.013 0.22636,-0.0426 0.0717,-0.0296 0.13655,-0.0737 0.19047,-0.12952 0.0539,-0.0558 0.0958,-0.1221 0.12292,-0.19478 0.0272,-0.0727 0.039,-0.15021 0.0349,-0.22768 z"
           class="cneutral"
           fill="#394149"
           style="stroke-width:0.264583"
           data-darkreader-inline-fill=""
           id="path17133" /><path
           d="m 874.85918,635.64018 c 0,-0.0899 0.0267,-0.17785 0.0766,-0.25262 0.05,-0.0748 0.12099,-0.13306 0.20407,-0.16748 0.0831,-0.0344 0.17452,-0.0434 0.26273,-0.0259 0.0882,0.0175 0.16923,0.0608 0.23283,0.12443 0.0636,0.0636 0.1069,0.14463 0.12444,0.23284 0.0176,0.0882 0.009,0.17965 -0.0258,0.26273 -0.0344,0.0831 -0.0927,0.15412 -0.16748,0.20407 -0.0748,0.0499 -0.16269,0.0766 -0.25265,0.0766 -0.12039,-6.3e-4 -0.23567,-0.0488 -0.32081,-0.1339 -0.0851,-0.0851 -0.13324,-0.2004 -0.13391,-0.32081 z m 0.0774,0.67458 h 0.74954 v 2.51847 h -0.74954 z"
           class="cneutral"
           fill="#394149"
           style="stroke-width:0.264583"
           data-darkreader-inline-fill=""
           id="path17135" /><path
           d="m 878.95414,637.57399 c 0.009,0.16648 -0.0148,0.33312 -0.0704,0.4903 -0.0556,0.15719 -0.14168,0.30184 -0.25339,0.42561 -0.1117,0.12377 -0.24677,0.22424 -0.39745,0.2956 -0.15068,0.0714 -0.31399,0.11221 -0.48051,0.1202 -0.13981,0.007 -0.2794,-0.0173 -0.40889,-0.0704 -0.12951,-0.0531 -0.2458,-0.13396 -0.34065,-0.23688 v 1.24923 h -0.74954 v -3.53285 h 0.74954 v 0.23736 c 0.0948,-0.10292 0.21114,-0.18378 0.34065,-0.23688 0.12949,-0.0531 0.26908,-0.0771 0.40889,-0.0704 0.16631,0.008 0.3294,0.0488 0.4799,0.11996 0.15052,0.0712 0.28548,0.17145 0.39714,0.29496 0.11168,0.1235 0.19783,0.26784 0.25355,0.42473 0.0557,0.1569 0.0799,0.32327 0.0712,0.48953 z m -0.74954,0 c -0.003,-0.11726 -0.0403,-0.23108 -0.10729,-0.32736 -0.067,-0.0963 -0.16078,-0.17079 -0.26971,-0.21429 -0.10893,-0.0435 -0.22826,-0.0541 -0.34314,-0.0305 -0.11491,0.0236 -0.22037,0.0804 -0.30332,0.16336 -0.0829,0.0829 -0.13973,0.18838 -0.16335,0.30329 -0.0236,0.11491 -0.013,0.23421 0.0305,0.34314 0.0435,0.10893 0.11803,0.20272 0.21432,0.26971 0.0963,0.067 0.2101,0.10433 0.32736,0.10729 0.0818,0.005 0.16383,-0.007 0.24051,-0.0363 0.0767,-0.0291 0.14618,-0.0743 0.20394,-0.13253 0.0577,-0.0582 0.10237,-0.12814 0.13086,-0.20503 0.0285,-0.0769 0.0402,-0.15899 0.0343,-0.2408 z"
           class="cneutral"
           fill="#394149"
           style="stroke-width:0.264583"
           data-darkreader-inline-fill=""
           id="path17137" /><path
           d="m 881.28774,638.07869 c 0,0.57965 -0.49969,0.82698 -1.04937,0.82698 -0.21957,0.0195 -0.43994,-0.0273 -0.63275,-0.13414 -0.19277,-0.10687 -0.34919,-0.26898 -0.44907,-0.46549 l 0.6546,-0.37226 c 0.0266,0.0909 0.0834,0.16994 0.16116,0.22402 0.0777,0.0541 0.17161,0.08 0.26606,0.0733 0.18241,0 0.27234,-0.0575 0.27234,-0.1574 0,-0.27734 -1.24923,-0.12991 -1.24923,-0.99939 0,-0.54967 0.46471,-0.82701 0.99938,-0.82701 0.1973,-0.006 0.39262,0.0409 0.56571,0.13579 0.17309,0.0949 0.31763,0.23434 0.4187,0.40389 l -0.65709,0.3448 c -0.029,-0.066 -0.0766,-0.12213 -0.13692,-0.16161 -0.0603,-0.0395 -0.13079,-0.0606 -0.20288,-0.0608 -0.12991,0 -0.20987,0.05 -0.20987,0.14242 0.01,0.28731 1.24923,0.0949 1.24923,1.02688 z"
           class="cneutral"
           fill="#394149"
           style="stroke-width:0.264583"
           data-darkreader-inline-fill=""
           id="path17139" /><path
           d="m 884.04605,636.31476 v 2.51847 h -0.74957 v -0.23485 c -0.0872,0.10435 -0.19783,0.18659 -0.3229,0.24001 -0.12504,0.0534 -0.26098,0.0765 -0.39666,0.0673 -0.49969,0 -0.94192,-0.3623 -0.94192,-1.04437 v -1.54657 h 0.74954 v 1.43664 c -0.007,0.0612 5.6e-4,0.12313 0.0209,0.18126 0.0203,0.0581 0.0533,0.111 0.0966,0.15479 0.0433,0.0438 0.0958,0.0774 0.1537,0.0983 0.0579,0.021 0.11975,0.0288 0.18103,0.0229 0.27485,0 0.46723,-0.15991 0.46723,-0.51718 v -1.37668 z"
           class="cneutral"
           fill="#394149"
           style="stroke-width:0.264583"
           data-darkreader-inline-fill=""
           id="path17141" /><path
           d="m 888.37839,637.28914 v 1.54406 h -0.74957 v -1.47907 c 0,-0.24985 -0.12242,-0.41476 -0.36227,-0.41476 -0.23984,0 -0.39475,0.1774 -0.39475,0.47471 v 1.41912 h -0.74954 v -1.47907 c 0,-0.24985 -0.11994,-0.41476 -0.3623,-0.41476 -0.24233,0 -0.39224,0.1774 -0.39224,0.47471 v 1.41912 h -0.74954 v -2.51844 h 0.74954 v 0.23236 c 0.0783,-0.10263 0.18108,-0.18404 0.2989,-0.23683 0.11782,-0.0528 0.24696,-0.0753 0.37568,-0.0655 0.12928,-0.006 0.258,0.021 0.37357,0.0792 0.11559,0.0582 0.21412,0.14542 0.28604,0.25305 0.0836,-0.11253 0.19439,-0.20204 0.32197,-0.26014 0.12758,-0.0581 0.26781,-0.0829 0.40756,-0.0721 0.56968,0 0.94695,0.41473 0.94695,1.04433 z"
           class="cneutral"
           fill="#394149"
           style="stroke-width:0.264583"
           data-darkreader-inline-fill=""
           id="path17143" /><path
           d="m 889.01802,636.29979 c 0.30908,0 0.55964,-0.25059 0.55964,-0.55967 0,-0.30909 -0.25056,-0.55965 -0.55964,-0.55965 -0.30909,0 -0.55968,0.25056 -0.55968,0.55965 0,0.30908 0.25059,0.55967 0.55968,0.55967 z"
           class="cneutral"
           fill="#394149"
           style="stroke-width:0.264583"
           data-darkreader-inline-fill=""
           id="path17145" /><path
           d="m 873.02779,633.25166 c 1.44748,0 2.62088,-1.17343 2.62088,-2.62091 0,-1.44748 -1.1734,-2.62089 -2.62088,-2.62089 -1.44748,0 -2.62091,1.17341 -2.62091,2.62089 0,1.44748 1.17343,2.62091 2.62091,2.62091 z"
           class="ccompli1"
           fill="#394149"
           style="stroke-width:0.264583"
           data-darkreader-inline-fill=""
           id="path17147" /><path
           d="m 878.8867,633.25166 c 1.44748,0 2.62088,-1.17343 2.62088,-2.62091 0,-1.44748 -1.1734,-2.62089 -2.62088,-2.62089 -1.44748,0 -2.62091,1.17341 -2.62091,2.62089 0,1.44748 1.17343,2.62091 2.62091,2.62091 z"
           class="ccompli2"
           fill="#394149"
           style="stroke-width:0.264583"
           data-darkreader-inline-fill=""
           id="path17149" /><path
           d="m 869.78977,628.00986 h -5.23929 v 5.23928 h 5.23929 z"
           class="ccustom"
           fill="#394149"
           style="stroke-width:0.264583"
           data-darkreader-inline-fill=""
           id="path17151" /></g></g></g></svg>
