<?xml version="1.0" encoding="UTF-8" standalone="no"?>
<!-- Created with Inkscape (http://www.inkscape.org/) -->

<svg
   xml:space="preserve"
   sodipodi:docname="mockup.svg"
   inkscape:version="1.2 (dc2aeda, 2022-05-15)"
   id="svg182339"
   version="1.1"
   viewBox="0 0 11.783001 11.787727"
   height="44.55204"
   width="44.53418"
   xmlns:inkscape="http://www.inkscape.org/namespaces/inkscape"
   xmlns:sodipodi="http://sodipodi.sourceforge.net/DTD/sodipodi-0.dtd"
   xmlns:xlink="http://www.w3.org/1999/xlink"
   xmlns="http://www.w3.org/2000/svg"
   xmlns:svg="http://www.w3.org/2000/svg"><sodipodi:namedview
     id="namedview182341"
     pagecolor="#505050"
     bordercolor="#eeeeee"
     borderopacity="1"
     inkscape:showpageshadow="0"
     inkscape:pageopacity="0"
     inkscape:pagecheckerboard="0"
     inkscape:deskcolor="#505050"
     inkscape:document-units="mm"
     showgrid="false"
     inkscape:zoom="0.34578127"
     inkscape:cx="3152.2818"
     inkscape:cy="221.23813"
     inkscape:window-width="1920"
     inkscape:window-height="1055"
     inkscape:window-x="0"
     inkscape:window-y="25"
     inkscape:window-maximized="1"
     inkscape:current-layer="layer5"
     showguides="true"><sodipodi:guide
       position="-867.62896,-31.206257"
       orientation="1,0"
       id="guide25471"
       inkscape:locked="false" /><sodipodi:guide
       position="-862.88763,-110.37639"
       orientation="1,0"
       id="guide25473"
       inkscape:locked="false" /><sodipodi:guide
       position="-507.79566,-260.07906"
       orientation="1,0"
       id="guide35590"
       inkscape:locked="false" /><sodipodi:guide
       position="-512.53699,-225.791"
       orientation="1,0"
       id="guide38199"
       inkscape:locked="false" /></sodipodi:namedview><defs
     id="defs182336"><linearGradient
       id="linearGradient1057"
       x1="522.69"
       y1="412.73999"
       x2="908.96997"
       y2="799.01001"
       gradientTransform="matrix(-0.26458333,0,0,-0.26458333,266.89035,244.97243)"
       gradientUnits="userSpaceOnUse"><stop
         offset="0"
         stop-color="#fcee21"
         id="stop1061" /><stop
         offset="0.1"
         stop-color="#f7ec22"
         id="stop1063" /><stop
         offset="0.22"
         stop-color="#e7e624"
         id="stop1065" /><stop
         offset="0.36"
         stop-color="#cedd28"
         id="stop1067" /><stop
         offset="0.51"
         stop-color="#aad02d"
         id="stop1069" /><stop
         offset="0.67"
         stop-color="#7cbf33"
         id="stop1071" /><stop
         offset="0.83"
         stop-color="#45ab3b"
         id="stop1073" /><stop
         offset="0.99"
         stop-color="#049344"
         id="stop1075" /><stop
         offset="1"
         stop-color="#009245"
         id="stop1077" /></linearGradient><linearGradient
       inkscape:collect="always"
       xlink:href="#linearGradient1057"
       id="linearGradient198911"
       gradientUnits="userSpaceOnUse"
       gradientTransform="matrix(13.538845,0,0,13.538845,-2625.6978,-4130.266)"
       x1="413.80301"
       y1="291.04166"
       x2="118.47618"
       y2="291.04166" /><linearGradient
       inkscape:collect="always"
       xlink:href="#linearGradient1057"
       id="linearGradient478189"
       gradientUnits="userSpaceOnUse"
       gradientTransform="matrix(1.6425514,0,0,1.6425514,352.95802,-164.19644)"
       x1="413.80301"
       y1="291.04166"
       x2="118.47618"
       y2="291.04166" /><linearGradient
       inkscape:collect="always"
       xlink:href="#linearGradient1057"
       id="linearGradient653602"
       gradientUnits="userSpaceOnUse"
       gradientTransform="matrix(1.2985426,0,0,1.2985426,458.15644,-56.374736)"
       x1="413.80301"
       y1="291.04166"
       x2="118.47618"
       y2="291.04166" /><linearGradient
       inkscape:collect="always"
       xlink:href="#linearGradient1057"
       id="linearGradient741566"
       gradientUnits="userSpaceOnUse"
       gradientTransform="matrix(1.2985426,0,0,1.2985426,649.52306,-458.3974)"
       x1="413.80301"
       y1="291.04166"
       x2="118.47618"
       y2="291.04166" /><linearGradient
       inkscape:collect="always"
       xlink:href="#linearGradient1057"
       id="linearGradient818934"
       gradientUnits="userSpaceOnUse"
       gradientTransform="matrix(1.2985426,0,0,1.2985426,457.45349,-153.39616)"
       x1="413.80301"
       y1="291.04166"
       x2="118.47618"
       y2="291.04166" /><linearGradient
       inkscape:collect="always"
       xlink:href="#linearGradient1057"
       id="linearGradient892145"
       gradientUnits="userSpaceOnUse"
       gradientTransform="matrix(1.2985426,0,0,1.2985426,458.15644,-154.90639)"
       x1="413.80301"
       y1="291.04166"
       x2="118.47618"
       y2="291.04166" /><linearGradient
       inkscape:collect="always"
       xlink:href="#linearGradient1057"
       id="linearGradient1018698"
       gradientUnits="userSpaceOnUse"
       gradientTransform="matrix(1.2985426,0,0,1.2985426,453.34098,-54.508543)"
       x1="413.80301"
       y1="291.04166"
       x2="118.47618"
       y2="291.04166" /></defs><g
     inkscape:label="ios-home"
     inkscape:groupmode="layer"
     id="layer1"
     style="display:inline"
     transform="translate(-952.29567,-4.8358492)"><path
       style="display:inline;fill:#797e7a;fill-opacity:1;stroke-width:1"
       d="m 957.87677,16.6168 c -0.57862,-0.02707 -1.26582,-0.175408 -1.82748,-0.394471 -1.16577,-0.454676 -2.17488,-1.286516 -2.84261,-2.343258 -0.86312,-1.365968 -1.12629,-3.016848 -0.73223,-4.5934668 0.37429,-1.4975665 1.34929,-2.8100904 2.68309,-3.6119529 1.70072,-1.0224405 3.83725,-1.1153516 5.61291,-0.2440865 0.58576,0.2874157 1.06684,0.6266943 1.52634,1.0764217 1.01487,0.993318 1.60356,2.2124639 1.76051,3.6459185 0.0285,0.260313 0.0285,0.894754 0,1.155068 -0.12891,1.17734 -0.55209,2.214412 -1.26789,3.107098 -1.19068,1.484926 -2.992,2.292599 -4.91264,2.202729 z m -0.58957,-2.674972 c 0.88344,-0.06589 1.6212,-0.311827 2.25599,-0.752038 0.44904,-0.311397 0.8932,-0.773909 1.24772,-1.299267 0.28607,-0.423953 0.49123,-0.936243 0.61131,-1.526512 0.0651,-0.320016 0.10829,-0.7248715 0.10798,-1.0122309 l -1.4e-4,-0.1443835 0.29195,-0.2874459 c 0.16057,-0.1580957 0.28576,-0.2896559 0.27818,-0.2923568 -0.008,-0.0027 -0.1153,0.00618 -0.23939,0.019735 -0.12408,0.013555 -0.23802,0.024646 -0.25317,0.024646 -0.025,0 -0.012,-0.027883 0.13913,-0.297789 0.0917,-0.163784 0.16475,-0.2997188 0.16239,-0.302077 -0.002,-0.00236 -0.0747,0.025747 -0.16068,0.062456 -0.13879,0.059232 -0.47709,0.176451 -0.50925,0.176451 -0.007,0 -0.0526,-0.037797 -0.10209,-0.083994 -0.32139,-0.3001404 -0.66194,-0.4520013 -1.04453,-0.4657826 -0.20445,-0.00736 -0.35133,0.013582 -0.53542,0.076349 -0.50334,0.1716136 -0.8478,0.5149228 -0.98092,0.9776223 -0.0747,0.2597233 -0.0845,0.6065868 -0.0246,0.8704564 l 0.0157,0.069184 -0.10366,-1.161e-4 c -0.34311,-3.831e-4 -0.87378,-0.1048799 -1.33845,-0.2635629 -0.54626,-0.1865397 -1.14681,-0.5135384 -1.58016,-0.8603889 -0.14662,-0.1173575 -0.35603,-0.3252511 -0.42166,-0.4185977 -0.0265,-0.037654 -0.0518,-0.068721 -0.0563,-0.069039 -0.0104,-7.376e-4 -0.0513,0.108157 -0.0748,0.1995623 -0.0488,0.1890712 -0.0548,0.520502 -0.0134,0.7353603 0.055,0.285541 0.23844,0.6816514 0.50698,1.094892 0.0484,0.07445 0.085,0.13536 0.0814,0.13536 -0.004,0 -0.11579,-0.04407 -0.24927,-0.09794 -0.13348,-0.05387 -0.2744,-0.110549 -0.31317,-0.125955 l -0.0705,-0.02801 0.008,0.05625 c 0.0345,0.229981 0.18262,0.565884 0.32772,0.743103 0.1535,0.187493 0.51805,0.4575 0.95137,0.704617 l 0.13583,0.07747 -0.40864,0.0061 c -0.22474,0.0033 -0.41255,0.01001 -0.41734,0.0148 -0.0194,0.01938 0.12672,0.211569 0.28864,0.379677 0.14519,0.150738 0.27194,0.23826 0.51833,0.357906 0.19539,0.09488 0.31964,0.145877 0.57125,0.234456 l 0.16216,0.05709 -0.14411,0.09401 c -0.36274,0.236609 -0.71073,0.426144 -0.91416,0.497893 -0.21481,0.07576 -0.55629,0.143087 -0.86901,0.17133 -0.0878,0.0079 -0.15973,0.01791 -0.15973,0.02216 0,0.01464 0.33115,0.165778 0.48128,0.219655 0.5719,0.205239 1.23125,0.294397 1.84089,0.248924 z"
       id="path44479" /></g></svg>
