<?xml version="1.0" encoding="UTF-8" standalone="no"?>
<!-- Created with Inkscape (http://www.inkscape.org/) -->

<svg
   xml:space="preserve"
   sodipodi:docname="mockup.svg"
   inkscape:version="1.2.1 (9c6d41e410, 2022-07-14)"
   id="svg182339"
   version="1.1"
   viewBox="0 0 9.1943967 14.191224"
   height="53.63612"
   width="34.750477"
   xmlns:inkscape="http://www.inkscape.org/namespaces/inkscape"
   xmlns:sodipodi="http://sodipodi.sourceforge.net/DTD/sodipodi-0.dtd"
   xmlns:xlink="http://www.w3.org/1999/xlink"
   xmlns="http://www.w3.org/2000/svg"
   xmlns:svg="http://www.w3.org/2000/svg"
   xmlns:serif="http://www.serif.com/"><sodipodi:namedview
     id="namedview182341"
     pagecolor="#505050"
     bordercolor="#eeeeee"
     borderopacity="1"
     inkscape:showpageshadow="0"
     inkscape:pageopacity="0"
     inkscape:pagecheckerboard="0"
     inkscape:deskcolor="#505050"
     inkscape:document-units="mm"
     showgrid="false"
     inkscape:zoom="0.34578127"
     inkscape:cx="-615.99635"
     inkscape:cy="393.31222"
     inkscape:window-width="1366"
     inkscape:window-height="705"
     inkscape:window-x="-8"
     inkscape:window-y="-8"
     inkscape:window-maximized="1"
     inkscape:current-layer="layer1"
     showguides="true"><sodipodi:guide
       position="-1605.2382,-30.150876"
       orientation="1,0"
       id="guide25471"
       inkscape:locked="false" /><sodipodi:guide
       position="-1600.4968,-109.32102"
       orientation="1,0"
       id="guide25473"
       inkscape:locked="false" /><sodipodi:guide
       position="-1245.4049,-259.02369"
       orientation="1,0"
       id="guide35590"
       inkscape:locked="false" /><sodipodi:guide
       position="-1250.1462,-224.73563"
       orientation="1,0"
       id="guide38199"
       inkscape:locked="false" /></sodipodi:namedview><defs
     id="defs182336"><linearGradient
       id="linearGradient1057"
       x1="522.69"
       y1="412.73999"
       x2="908.96997"
       y2="799.01001"
       gradientTransform="matrix(-0.26458333,0,0,-0.26458333,266.89035,244.97243)"
       gradientUnits="userSpaceOnUse"><stop
         offset="0"
         stop-color="#fcee21"
         id="stop1061" /><stop
         offset="0.1"
         stop-color="#f7ec22"
         id="stop1063" /><stop
         offset="0.22"
         stop-color="#e7e624"
         id="stop1065" /><stop
         offset="0.36"
         stop-color="#cedd28"
         id="stop1067" /><stop
         offset="0.51"
         stop-color="#aad02d"
         id="stop1069" /><stop
         offset="0.67"
         stop-color="#7cbf33"
         id="stop1071" /><stop
         offset="0.83"
         stop-color="#45ab3b"
         id="stop1073" /><stop
         offset="0.99"
         stop-color="#049344"
         id="stop1075" /><stop
         offset="1"
         stop-color="#009245"
         id="stop1077" /></linearGradient><linearGradient
       inkscape:collect="always"
       xlink:href="#linearGradient1057"
       id="linearGradient198911"
       gradientUnits="userSpaceOnUse"
       gradientTransform="matrix(13.538845,0,0,13.538845,-2625.6978,-4130.266)"
       x1="413.80301"
       y1="291.04166"
       x2="118.47618"
       y2="291.04166" /><linearGradient
       inkscape:collect="always"
       xlink:href="#linearGradient1057"
       id="linearGradient478189"
       gradientUnits="userSpaceOnUse"
       gradientTransform="matrix(1.6425514,0,0,1.6425514,352.95802,-164.19644)"
       x1="413.80301"
       y1="291.04166"
       x2="118.47618"
       y2="291.04166" /><linearGradient
       inkscape:collect="always"
       xlink:href="#linearGradient1057"
       id="linearGradient653602"
       gradientUnits="userSpaceOnUse"
       gradientTransform="matrix(1.2985426,0,0,1.2985426,458.15644,-56.374736)"
       x1="413.80301"
       y1="291.04166"
       x2="118.47618"
       y2="291.04166" /><linearGradient
       inkscape:collect="always"
       xlink:href="#linearGradient1057"
       id="linearGradient741566"
       gradientUnits="userSpaceOnUse"
       gradientTransform="matrix(1.2985426,0,0,1.2985426,649.52306,-458.3974)"
       x1="413.80301"
       y1="291.04166"
       x2="118.47618"
       y2="291.04166" /><linearGradient
       inkscape:collect="always"
       xlink:href="#linearGradient1057"
       id="linearGradient818934"
       gradientUnits="userSpaceOnUse"
       gradientTransform="matrix(1.2985426,0,0,1.2985426,457.45349,-153.39616)"
       x1="413.80301"
       y1="291.04166"
       x2="118.47618"
       y2="291.04166" /><linearGradient
       inkscape:collect="always"
       xlink:href="#linearGradient1057"
       id="linearGradient892145"
       gradientUnits="userSpaceOnUse"
       gradientTransform="matrix(1.2985426,0,0,1.2985426,458.15644,-154.90639)"
       x1="413.80301"
       y1="291.04166"
       x2="118.47618"
       y2="291.04166" /><linearGradient
       inkscape:collect="always"
       xlink:href="#linearGradient1057"
       id="linearGradient1018698"
       gradientUnits="userSpaceOnUse"
       gradientTransform="matrix(1.2985426,0,0,1.2985426,453.34098,-54.508543)"
       x1="413.80301"
       y1="291.04166"
       x2="118.47618"
       y2="291.04166" /></defs><g
     inkscape:groupmode="layer"
     id="layer3"
     inkscape:label="ios-community"
     transform="translate(-1689.9048,-3.4877377)"><g
       id="g1059267"
       serif:id="Logo IfcOpenShell"
       style="clip-rule:evenodd;display:inline;fill:#ffffff;fill-rule:evenodd;stroke-width:18.9567;stroke-linejoin:round;stroke-miterlimit:2"
       transform="matrix(0.01395735,0,0,0.01395735,1687.8196,1.7980051)"><path
         d="m 734.5,824.782 v 0 l 2.025,1.39 5.688,4.122 5.471,4.188 5.25,4.247 5.032,4.306 4.803,4.365 4.575,4.419 4.344,4.472 4.109,4.519 3.875,4.565 3.634,4.61 3.391,4.647 3.153,4.687 2.903,4.725 2.66,4.753 2.409,4.785 2.159,4.809 1.91,4.834 1.659,4.857 1.403,4.872 1.15,4.887 0.894,4.897 0.641,4.909 0.384,4.913 0.128,4.915 -0.128,4.919 -0.384,4.913 -0.641,4.909 -0.894,4.897 -1.15,4.887 -1.403,4.872 -1.659,4.857 -1.91,4.831 -2.159,4.812 -2.409,4.785 -2.66,4.753 -2.903,4.722 -3.15,4.687 -3.394,4.65 -3.634,4.61 -3.875,4.565 -4.109,4.519 -4.344,4.472 -4.575,4.419 -4.803,4.362 -5.028,4.309 -5.254,4.247 -5.471,4.188 -5.688,4.122 -5.903,4.053 -6.109,3.984 -6.316,3.913 -6.519,3.84 -6.715,3.763 -6.91,3.684 -7.1,3.6 -7.284,3.522 -7.466,3.431 -7.64,3.347 -7.816,3.26 -7.981,3.165 -8.144,3.072 -8.3,2.978 -8.453,2.878 -8.603,2.782 -8.744,2.681 -8.878,2.581 -9.013,2.475 -9.137,2.372 -9.26,2.262 -9.375,2.16 -9.481,2.047 -9.587,1.937 -9.688,1.825 -9.775,1.713 -9.865,1.6 -9.944,1.484 -10.016,1.372 -10.087,1.253 -10.15,1.134 -10.203,1.019 -10.257,0.9 -10.297,0.781 -10.337,0.663 -10.366,0.541 -10.393,0.421 -10.41,0.304 -10.425,0.178 -10.428,0.062 v -225.39 l 10.428,-0.06 10.425,-0.181 10.41,-0.303 10.393,-0.422 10.366,-0.541 10.337,-0.662 10.297,-0.781 10.257,-0.9 10.203,-1.019 10.15,-1.135 10.087,-1.253 10.016,-1.372 9.944,-1.484 9.865,-1.6 9.775,-1.712 9.688,-1.825 9.587,-1.938 9.481,-2.047 9.375,-2.156 9.26,-2.266 9.137,-2.372 9.013,-2.475 8.878,-2.578 8.744,-2.681 8.603,-2.784 8.453,-2.878 8.3,-2.979 8.144,-3.071 7.981,-3.166 7.816,-3.259 7.64,-3.344 7.466,-3.435 7.284,-3.518 7.1,-3.603 6.91,-3.685 6.715,-3.762 6.519,-3.838 6.316,-3.915 6.109,-3.985 z"
         style="fill:#ffffff;stroke-width:18.9567"
         id="path1059259" /><path
         d="m 149.4,316.4 0.063,4.794 0.193,4.791 0.319,4.787 0.447,4.775 0.575,4.766 0.703,4.75 0.828,4.734 0.956,4.713 1.079,4.69 1.206,4.666 1.328,4.634 1.453,4.604 1.575,4.571 1.697,4.535 1.816,4.494 1.937,4.45 2.056,4.406 2.172,4.359 2.288,4.31 2.4,4.253 2.515,4.2 2.625,4.143 2.738,4.082 2.844,4.018 2.95,3.954 0.17,0.217 c 0,0 0,0.004 0,0.004 l 2.886,3.663 3.156,3.816 3.259,3.743 3.36,3.669 3.453,3.591 3.55,3.512 3.644,3.431 3.731,3.35 3.822,3.263 3.906,3.175 3.991,3.087 4.072,2.994 4.15,2.903 4.228,2.81 4.3,2.712 4.372,2.616 4.44,2.512 4.506,2.416 4.569,2.312 4.628,2.207 4.688,2.103 4.74,1.997 4.794,1.887 4.844,1.781 4.887,1.672 4.935,1.56 4.972,1.447 5.006,1.334 5.044,1.222 5.075,1.109 5.103,0.991 5.125,0.878 5.15,0.762 5.169,0.644 5.184,0.531 5.194,0.41 5.206,0.294 5.212,0.178 5.216,0.056 v 225.391 l -5.216,-0.057 -5.212,-0.178 -5.206,-0.294 -5.194,-0.412 -5.184,-0.528 -5.169,-0.644 -5.15,-0.762 -5.125,-0.879 -5.103,-0.99 -5.075,-1.11 -5.044,-1.221 -5.006,-1.335 -4.972,-1.45 -4.935,-1.559 -4.887,-1.669 -4.844,-1.781 -4.794,-1.888 -4.74,-1.997 -4.688,-2.103 -4.628,-2.209 -4.569,-2.309 -4.506,-2.416 -4.44,-2.516 -4.372,-2.612 -4.3,-2.713 -4.228,-2.809 -4.15,-2.903 -4.072,-2.994 -3.991,-3.087 -3.906,-3.175 -3.822,-3.263 -3.731,-3.35 -3.644,-3.431 -3.55,-3.513 -3.453,-3.59 -3.36,-3.669 -3.259,-3.744 -3.156,-3.815 -3.056,-3.885 -2.95,-3.953 -2.844,-4.019 -2.738,-4.081 -2.625,-4.144 -2.515,-4.2 -2.4,-4.253 -2.288,-4.309 -2.172,-4.36 -2.056,-4.406 -1.937,-4.45 -1.816,-4.494 -1.697,-4.534 -1.575,-4.572 -1.453,-4.603 -1.328,-4.637 -1.206,-4.663 -1.079,-4.691 -0.956,-4.712 -0.828,-4.734 -0.703,-4.75 -0.575,-4.766 -0.447,-4.775 -0.319,-4.788 -0.193,-4.79 -0.063,-4.794 z"
         style="fill:#ffffff;stroke-width:18.9567"
         id="path1059261" /><path
         d="m 188.163,428.879 -2.95,-3.954 -2.844,-4.018 -2.738,-4.082 -2.625,-4.143 -2.515,-4.2 -2.4,-4.253 -2.288,-4.31 -2.172,-4.359 -2.056,-4.406 -1.937,-4.45 -1.816,-4.494 -1.697,-4.535 -1.575,-4.571 -1.453,-4.604 -1.328,-4.634 -1.206,-4.666 -1.079,-4.69 -0.956,-4.713 -0.828,-4.734 -0.703,-4.75 -0.575,-4.766 -0.447,-4.775 -0.319,-4.787 -0.193,-4.791 -0.063,-4.794 0.063,-4.793 0.193,-4.791 0.319,-4.784 0.447,-4.778 0.575,-4.763 0.703,-4.753 0.828,-4.731 0.956,-4.713 1.079,-4.69 1.206,-4.666 1.328,-4.634 1.453,-4.607 1.575,-4.568 1.697,-4.535 1.816,-4.494 1.937,-4.453 2.056,-4.406 2.172,-4.356 2.288,-4.31 2.4,-4.256 2.515,-4.2 2.625,-4.14 2.738,-4.082 2.844,-4.018 2.95,-3.954 3.056,-3.887 3.156,-3.816 3.259,-3.74 3.36,-3.669 3.453,-3.594 3.55,-3.512 3.644,-3.432 3.731,-3.346 3.822,-3.263 3.906,-3.178 3.991,-3.084 4.072,-2.997 4.15,-2.903 4.228,-2.81 4.3,-2.709 4.372,-2.616 4.44,-2.515 4.506,-2.413 4.569,-2.312 4.628,-2.21 4.688,-2.103 4.74,-1.994 4.794,-1.89 4.844,-1.778 4.887,-1.672 4.935,-1.56 4.972,-1.447 5.006,-1.337 5.044,-1.222 5.075,-1.106 5.103,-0.994 5.128,-0.878 5.147,-0.759 5.169,-0.647 5.184,-0.528 5.197,-0.413 5.203,-0.294 5.212,-0.175 5.216,-0.059 v 225.391 l -5.216,0.059 -5.212,0.175 -5.203,0.294 -5.197,0.412 -5.184,0.528 -5.169,0.644 -5.147,0.763 -5.128,0.878 -5.103,0.993 -5.075,1.107 -5.044,1.222 -5.006,1.334 -4.972,1.45 -4.935,1.559 -4.887,1.669 -4.844,1.781 -4.794,1.888 -4.74,1.997 -4.688,2.103 -4.628,2.209 -4.569,2.313 -4.506,2.412 -4.44,2.516 -4.372,2.612 -4.3,2.713 -4.228,2.809 -4.15,2.903 -4.072,2.997 -3.991,3.085 -3.906,3.178 -3.822,3.262 -3.731,3.347 -3.644,3.431 -3.55,3.513 -3.453,3.59 -3.36,3.669 -3.259,3.744 -3.156,3.816 -2.886,3.667 z"
         style="fill:#ffffff;stroke-width:18.9567"
         id="path1059263" /><path
         d="m 734.5,824.782 -3.878,-2.663 -6.109,-3.987 -6.316,-3.913 -6.519,-3.837 -6.715,-3.763 -6.91,-3.684 -7.1,-3.603 -7.284,-3.519 -7.466,-3.434 -7.64,-3.347 -7.816,-3.257 -7.981,-3.165 -8.144,-3.072 -8.3,-2.978 -8.453,-2.878 -8.603,-2.785 -8.744,-2.681 -8.878,-2.578 -9.013,-2.475 -9.137,-2.372 -9.26,-2.266 -9.375,-2.156 -9.481,-2.047 -9.587,-1.937 -9.688,-1.825 -9.775,-1.713 -9.865,-1.6 -9.941,-1.484 -10.019,-1.372 -10.087,-1.253 -10.147,-1.134 -10.206,-1.019 -10.254,-0.9 -10.3,-0.781 -10.334,-0.663 -10.369,-0.541 -10.39,-0.421 -10.413,-0.304 -10.425,-0.181 -10.428,-0.059 V 511.744 l 10.428,0.06 10.425,0.181 10.413,0.303 10.39,0.422 10.369,0.54 10.334,0.663 10.3,0.781 10.254,0.9 10.206,1.019 10.147,1.134 10.087,1.253 10.019,1.372 9.941,1.485 9.865,1.6 9.775,1.712 9.688,1.825 9.587,1.938 9.481,2.047 9.375,2.156 9.26,2.265 9.137,2.372 9.013,2.475 8.878,2.578 8.744,2.685 8.603,2.781 8.453,2.878 8.3,2.978 8.144,3.072 7.981,3.166 7.816,3.259 7.64,3.344 7.466,3.434 7.284,3.522 7.1,3.6 6.91,3.685 6.715,3.762 6.519,3.838 6.316,3.915 6.109,3.985 5.903,4.053 5.688,4.122 5.471,4.187 5.25,4.247 5.032,4.309 4.803,4.363 4.575,4.419 4.344,4.471 4.109,4.519 3.875,4.566 3.634,4.609 3.391,4.65 3.153,4.688 2.903,4.722 2.66,4.753 2.409,4.784 2.159,4.809 1.91,4.835 1.659,4.856 1.403,4.872 1.15,4.887 0.894,4.897 0.641,4.91 0.384,4.912 0.128,4.916 v 225.39 l -0.128,-4.915 -0.384,-4.913 -0.641,-4.909 -0.894,-4.897 -1.15,-4.887 -1.403,-4.872 -1.659,-4.857 -1.91,-4.834 -2.159,-4.809 -2.409,-4.785 -2.66,-4.753 -2.903,-4.725 -3.153,-4.687 -3.391,-4.647 -3.634,-4.61 -3.875,-4.565 -4.109,-4.519 -4.344,-4.472 -4.575,-4.419 -4.803,-4.365 -5.032,-4.306 -5.25,-4.247 -5.471,-4.188 -5.688,-4.122 z"
         style="fill:#ffffff;stroke-width:18.9567"
         id="path1059265" /></g></g></svg>
